<svg xmlns="http://www.w3.org/2000/svg" xmlns:xlink="http://www.w3.org/1999/xlink" width="86" height="85.911" viewBox="0 0 86 85.911">
  <defs>
    <clipPath id="clip-path">
      <path id="Контур_262" data-name="Контур 262" d="M0,22.878H86V-63.033H0Z" transform="translate(0 63.033)" fill="none"/>
    </clipPath>
  </defs>
  <g id="Сгруппировать_375" data-name="Сгруппировать 375" transform="translate(0 63.033)">
    <g id="Сгруппировать_374" data-name="Сгруппировать 374" transform="translate(0 -63.033)" clip-path="url(#clip-path)">
      <g id="Сгруппировать_373" data-name="Сгруппировать 373" transform="translate(2.111 2.043)">
        <path id="Контур_261" data-name="Контур 261" d="M19.438,14.632l8.784,15.333L27.1,39.229a2.446,2.446,0,0,1-1.278,1.916,2.386,2.386,0,0,1-2.235.159l-8.625-3.673L6.181,22.458A48.277,48.277,0,0,0,19.438,14.632ZM26.306-.382h-.159A45.113,45.113,0,0,1,9.535,15.271a45.115,45.115,0,0,1-22.2,5.749,45.529,45.529,0,0,1-16.291-3.034L-40.3,37.632l-8.625,3.673a2.389,2.389,0,0,1-2.237-.159,2.444,2.444,0,0,1-1.277-1.916l-1.119-9.264L-42.214,10.16a48.938,48.938,0,0,1-8.945-9.9,2.567,2.567,0,0,1-.24-1.916,2.2,2.2,0,0,1,1.2-1.6l4.472-2.556a1.761,1.761,0,0,1,1.758-.319,3.365,3.365,0,0,1,1.6,1.118,33.006,33.006,0,0,0,5.431,6.229l10.861-18.847A15.128,15.128,0,0,1-28-24.978,14.783,14.783,0,0,1-23.526-35.84a14.782,14.782,0,0,1,10.86-4.473A14.785,14.785,0,0,1-1.8-35.84,14.781,14.781,0,0,1,2.667-24.978,15.126,15.126,0,0,1,.751-17.632L9.057-3.416A28.63,28.63,0,0,1-4.2,4.41L-12.346-9.645h-.639l-10.7,18.527A33.825,33.825,0,0,0-12.666,10.8,34.921,34.921,0,0,0,4.424,6.407a36.087,36.087,0,0,0,12.939-11.9,2.7,2.7,0,0,1,1.6-1.2,2.236,2.236,0,0,1,1.757.24l4.473,2.4a3.061,3.061,0,0,1,1.277,1.678A2.6,2.6,0,0,1,26.306-.382ZM-12.666-30.091a4.913,4.913,0,0,0-3.593,1.518,4.908,4.908,0,0,0-1.518,3.594,4.907,4.907,0,0,0,1.518,3.593,4.913,4.913,0,0,0,3.593,1.518,4.913,4.913,0,0,0,3.594-1.518,4.911,4.911,0,0,0,1.517-3.593,4.912,4.912,0,0,0-1.517-3.594A4.913,4.913,0,0,0-12.666-30.091Z" transform="translate(53.555 40.313)" fill="none" stroke="#8b7a00" stroke-width="3"/>
      </g>
    </g>
  </g>
</svg>
