<svg xmlns="http://www.w3.org/2000/svg" width="81.108" height="81.109" viewBox="0 0 81.108 81.109">
  <path id="Контур_263" data-name="Контур 263" d="M-89.229-19.192a21.467,21.467,0,0,1-.152,11.054A22.575,22.575,0,0,1-95.024,1.7a22.058,22.058,0,0,1-10.6,5.794,21.83,21.83,0,0,1-11.969-.61l-32.478,32.478a9.465,9.465,0,0,1-6.938,2.9,9.339,9.339,0,0,1-6.861-2.821,9.339,9.339,0,0,1-2.821-6.862,9.465,9.465,0,0,1,2.9-6.937l32.477-32.63a21.491,21.491,0,0,1-.61-11.893,21.158,21.158,0,0,1,5.794-10.521,21.5,21.5,0,0,1,9.758-5.642,21.76,21.76,0,0,1,11.131-.152,1.691,1.691,0,0,1,1.3,1.3,1.781,1.781,0,0,1-.534,1.753L-115.76-20.717l1.678,10.368,10.368,1.678,11.436-11.284a1.782,1.782,0,0,1,1.753-.533A1.691,1.691,0,0,1-89.229-19.192Zm-67.7,55.349a3.53,3.53,0,0,0,2.592-1.067,3.531,3.531,0,0,0,1.067-2.592,3.53,3.53,0,0,0-1.067-2.592,3.53,3.53,0,0,0-2.592-1.067,3.531,3.531,0,0,0-2.593,1.067,3.53,3.53,0,0,0-1.067,2.592,3.53,3.53,0,0,0,1.067,2.592A3.53,3.53,0,0,0-156.929,36.157Z" transform="translate(168.187 37.353)" fill="#fff" stroke="#8b7a00" stroke-width="3"/>
</svg>
