<svg xmlns="http://www.w3.org/2000/svg" width="97.508" height="61.554" viewBox="0 0 97.508 61.554">
  <path id="Контур_273" data-name="Контур 273" d="M-17.557,0a2.82,2.82,0,0,1,2.082.815A2.816,2.816,0,0,1-14.66,2.9V24.263a4.191,4.191,0,0,1-1.267,3.079,4.191,4.191,0,0,1-3.078,1.267,4.189,4.189,0,0,1-3.078-1.267l-5.795-5.795L-57.154,50.824a6.043,6.043,0,0,1-4.165,1.63,6.043,6.043,0,0,1-4.165-1.63L-78.7,37.425l-21.412,20.223a2.865,2.865,0,0,1-2.083.905,2.862,2.862,0,0,1-2.082-.905l-3.984-3.984a2.862,2.862,0,0,1-.905-2.082,2.864,2.864,0,0,1,.905-2.083l25.4-24.387a6.041,6.041,0,0,1,4.165-1.63,6.039,6.039,0,0,1,4.164,1.63l13.219,13.4,25.112-25.294L-42,7.424a4.192,4.192,0,0,1-1.268-3.078A4.192,4.192,0,0,1-42,1.267,4.189,4.189,0,0,1-38.923,0Z" transform="translate(110.668 1.5)" fill="none" stroke="#8b7a00" stroke-width="3"/>
</svg>
