<svg xmlns="http://www.w3.org/2000/svg" xmlns:xlink="http://www.w3.org/1999/xlink" width="108.225" height="107.748" viewBox="0 0 108.225 107.748">
  <defs>
    <clipPath id="clip-path">
      <path id="Контур_265" data-name="Контур 265" d="M83.17,12.2H0v-84H83.17Z" transform="translate(0 71.795)" fill="#fff"/>
    </clipPath>
  </defs>
  <g id="Сгруппировать_379" data-name="Сгруппировать 379" transform="matrix(0.358, -0.934, 0.934, 0.358, 0, 77.646)">
    <g id="Сгруппировать_380" data-name="Сгруппировать 380" clip-path="url(#clip-path)">
      <g id="Сгруппировать_379-2" data-name="Сгруппировать 379" transform="translate(2.34 2.34)">
        <path id="Контур_264" data-name="Контур 264" d="M-67.087,3.506A23.75,23.75,0,0,1-63.865-8.628,23.773,23.773,0,0,1-55.09-17.4a23.749,23.749,0,0,1,12.134-3.222A23.75,23.75,0,0,1-30.822-17.4a23.773,23.773,0,0,1,8.775,8.775A23.75,23.75,0,0,1-18.825,3.506a23.7,23.7,0,0,1-1.234,7.541l30.5,30.5a3.174,3.174,0,0,1,.961,2.331V54.574a3.28,3.28,0,0,1-3.291,3.291l-12.039.828a3.171,3.171,0,0,1-2.331-.959A3.174,3.174,0,0,1-7.218,55.4V49.919H-12.7a3.171,3.171,0,0,1-2.331-.959,3.174,3.174,0,0,1-.961-2.331V41.144h-5.073a3.129,3.129,0,0,1-2.467-1.1L-35.115,28.054c-1.462.274-6.287-.418-7.841-.418A23.749,23.749,0,0,1-55.09,24.414a23.773,23.773,0,0,1-8.775-8.775A23.75,23.75,0,0,1-67.087,3.506Zm24.131-6.581a6.344,6.344,0,0,0-1.92-4.661,6.344,6.344,0,0,0-4.661-1.92A6.344,6.344,0,0,0-54.2-7.737a6.344,6.344,0,0,0-1.92,4.661A6.343,6.343,0,0,0-54.2,1.586a6.344,6.344,0,0,0,4.661,1.92,6.344,6.344,0,0,0,4.661-1.92A6.343,6.343,0,0,0-42.956-3.075Z" transform="translate(67.087 20.625)" fill="#fff" stroke="#8b7a00" stroke-width="3"/>
      </g>
    </g>
  </g>
</svg>
