<svg xmlns="http://www.w3.org/2000/svg" width="83.264" height="76.576" viewBox="0 0 83.264 76.576">
  <g id="Сгруппировать_565" data-name="Сгруппировать 565" transform="translate(-306.04 -3116.052)">
    <g id="Сгруппировать_392" data-name="Сгруппировать 392" transform="translate(306.647 3158.91)">
      <g id="Сгруппировать_394" data-name="Сгруппировать 394" transform="translate(0 -42.25)">
        <g id="Сгруппировать_393" data-name="Сгруппировать 393" transform="translate(31.023 6.679)">
          <path id="Контур_275" data-name="Контур 275" d="M6.566.457A9.552,9.552,0,0,0,2.253-.583c-4.288,0-7.866,2.563-8.729,7.866H-8l-.355,1.472h1.725a6.968,6.968,0,0,0-.025.735c0,.482.025.685.05,1.142h-1.42L-8.379,12.1h1.955A8.091,8.091,0,0,0,2.05,19.36a8.257,8.257,0,0,0,3.983-.888V15.909a6.119,6.119,0,0,1-4.06,1.268c-3.576,0-5.328-2.511-5.886-5.074H3.673l.355-1.472H-4.166a6.519,6.519,0,0,1-.1-1.218,6.023,6.023,0,0,1,.025-.658H4.663l.355-1.472H-4.039C-3.533,4.467-1.883,1.6,2.025,1.6A6.789,6.789,0,0,1,6.033,2.613Z" transform="translate(8.379 0.583)" fill="#8b7a00"/>
        </g>
      </g>
    </g>
    <path id="Контур_276" data-name="Контур 276" d="M0,22.5q6.271,4.39,17.35,6.9a116.3,116.3,0,0,0,22.783,2.09A116.3,116.3,0,0,0,62.915,29.4q11.079-2.507,17.35-6.9v8.988q0,3.553-5.435,6.689T60.2,43.088a105.946,105.946,0,0,1-20.066,1.777,105.932,105.932,0,0,1-20.066-1.777q-9.2-1.777-14.631-4.912T0,31.487ZM0,.552Q6.271,5.777,17.35,8.7a92.022,92.022,0,0,0,22.783,2.717A92.022,92.022,0,0,0,62.915,8.7Q73.994,5.778,80.264.552v10.87q0,3.553-5.435,6.689T60.2,23.022A105.945,105.945,0,0,1,40.132,24.8a105.932,105.932,0,0,1-20.066-1.777q-9.2-1.777-14.631-4.912T0,11.421ZM40.132-28.711a82.677,82.677,0,0,1,20.066,2.3q9.2,2.3,14.631,6.063t5.435,8.36q0,4.6-5.435,8.362T60.2,2.433a82.677,82.677,0,0,1-20.066,2.3,82.667,82.667,0,0,1-20.066-2.3q-9.2-2.3-14.631-6.061T0-11.989q0-4.6,5.435-8.36t14.631-6.063A82.667,82.667,0,0,1,40.132-28.711Z" transform="translate(307.54 3146.263)" fill="none" stroke="#8b7a00" stroke-width="3"/>
  </g>
</svg>
