<svg xmlns="http://www.w3.org/2000/svg" width="95.426" height="85.122" viewBox="0 0 95.426 85.122">
  <path id="Контур_270" data-name="Контур 270" d="M-110.993-45.952l-9.441-8.338V-76.238a2.574,2.574,0,0,0-2.574-2.574H-133.3a2.573,2.573,0,0,0-2.574,2.574v8.312L-152.159-82.3a7.4,7.4,0,0,0-4.308-1.657,7.381,7.381,0,0,0-4.3,1.657l-41.181,36.355a2.939,2.939,0,0,0-.846,1.914,3,3,0,0,0,.658,1.723l3.444,3.827a3.4,3.4,0,0,0,1.93.852,3.489,3.489,0,0,0,1.72-.661l2.558-2.252v33.8A5.148,5.148,0,0,0-187.338-1.6h61.756a5.148,5.148,0,0,0,5.148-5.148v-33.8l2.559,2.252a3.526,3.526,0,0,0,1.724.663,3.358,3.358,0,0,0,1.909-.854l3.444-3.83a3.483,3.483,0,0,0,.658-1.719A3.377,3.377,0,0,0-110.993-45.952Zm-45.474-9.7a10.3,10.3,0,0,1,10.3,10.295,10.3,10.3,0,0,1-10.3,10.3,10.3,10.3,0,0,1-10.295-10.3A10.3,10.3,0,0,1-156.467-55.647Zm18.016,43.754h-36.033a2.574,2.574,0,0,1-2.574-2.574,15.443,15.443,0,0,1,15.443-15.443h10.295a15.443,15.443,0,0,1,15.443,15.443A2.574,2.574,0,0,1-138.45-11.893Z" transform="translate(204.177 85.339)" fill="#fff" stroke="#8b7a00" stroke-width="2.76"/>
</svg>
