<svg xmlns="http://www.w3.org/2000/svg" xmlns:xlink="http://www.w3.org/1999/xlink" width="98.863" height="87.094" viewBox="0 0 98.863 87.094">
  <defs>
    <clipPath id="clip-path">
      <path id="Контур_332" data-name="Контур 332" d="M0,31.594H98.863V-55.5H0Z" transform="translate(0 55.5)" fill="none"/>
    </clipPath>
  </defs>
  <g id="Сгруппировать_462" data-name="Сгруппировать 462" transform="translate(0 55.5)">
    <g id="Сгруппировать_461" data-name="Сгруппировать 461" transform="translate(0 -55.5)" clip-path="url(#clip-path)">
      <g id="Сгруппировать_460" data-name="Сгруппировать 460" transform="translate(2.353 2.354)">
        <path id="Контур_331" data-name="Контур 331" d="M33.689,24.549a4.44,4.44,0,0,0,0-6.252L19.16,5.239a4.255,4.255,0,0,0-3.126-1.287,4.762,4.762,0,0,0-3.219,1.2,4.04,4.04,0,0,0-1.379,3.217v8.829H9.23L-5.3,1.194l-7.171,7.724L4.081,26.756a2.283,2.283,0,0,0,1.656.736h5.7v7.355a4.119,4.119,0,0,0,1.379,3.128,4.568,4.568,0,0,0,3.219,1.287,4.255,4.255,0,0,0,3.126-1.287ZM-56.972-21.057a2.13,2.13,0,0,1-1.565-.645,2.128,2.128,0,0,1-.643-1.563v-5.885a2.133,2.133,0,0,1,.643-1.563,2.134,2.134,0,0,1,1.565-.643h20.411a2.283,2.283,0,0,1,1.656.736l16.551,17.838-6.988,7.54L-40.054-21.057ZM33.689-28.78a4.253,4.253,0,0,1,1.287,3.126,4.255,4.255,0,0,1-1.287,3.126L19.16-9.1a4.255,4.255,0,0,1-3.126,1.287A4.568,4.568,0,0,1,12.816-9.1a4.118,4.118,0,0,1-1.379-3.126v-8.827H9.23L-34.905,26.756a2.283,2.283,0,0,1-1.656.736H-56.972a2.134,2.134,0,0,1-1.565-.643,2.133,2.133,0,0,1-.643-1.563V19.4a2.128,2.128,0,0,1,.643-1.563,2.128,2.128,0,0,1,1.565-.643h16.918L4.081-30.62a2.283,2.283,0,0,1,1.656-.736h5.7v-7.357a4.118,4.118,0,0,1,1.379-3.126,4.568,4.568,0,0,1,3.219-1.287,4.255,4.255,0,0,1,3.126,1.287Z" transform="translate(59.18 43.125)" fill="none" stroke="#8b7a00" stroke-width="3"/>
      </g>
    </g>
  </g>
</svg>
