<svg xmlns="http://www.w3.org/2000/svg" xmlns:xlink="http://www.w3.org/1999/xlink" width="353.189" height="353.189" viewBox="0 0 353.189 353.189">
  <defs>
    <clipPath id="clip-path">
      <path id="Контур_381" data-name="Контур 381" d="M0,237.869H353.189V-115.32H0Z" transform="translate(-45.971 69.349)" fill="#fff"/>
    </clipPath>
  </defs>
  <g id="Сгруппировать_586" data-name="Сгруппировать 586" transform="translate(45.971 45.971)" opacity="0.6" clip-path="url(#clip-path)">
    <g id="Сгруппировать_584" data-name="Сгруппировать 584" transform="translate(14.703 14.676)">
      <path id="Контур_379" data-name="Контур 379" d="M117.965,4.506a8.225,8.225,0,0,0-5.638-5.632C97.788-4.233,86.4-4.233,75.052-4.233c-46.749,0-74.784,25-95.715,57.974H-67.857c-7.381,0-16.125,5.4-19.426,12l-22.384,44.748a12.9,12.9,0,0,0-1.14,4.848,10.875,10.875,0,0,0,10.872,10.87h47.083a43.483,43.483,0,0,1,43.487,43.48h0v47.1a10.875,10.875,0,0,0,10.872,10.87,12.946,12.946,0,0,0,4.848-1.14L51.08,204.145c6.594-3.3,11.989-12.03,11.989-19.4v-47.3c32.879-20.976,57.984-49.1,57.984-95.61C121.095,30.438,121.095,19.047,117.965,4.506ZM63.113,71.858A18.117,18.117,0,1,1,81.232,53.741,18.119,18.119,0,0,1,63.113,71.858Z" transform="translate(110.807 4.233)" fill="#fff"/>
    </g>
    <g id="Сгруппировать_585" data-name="Сгруппировать 585" transform="translate(14.676 159.61)">
      <path id="Контур_380" data-name="Контур 380" d="M8.334,7.489c-11.71,11.71-17.5,41-15.9,72.17,31.3,1.612,60.515-4.234,72.18-15.9C82.86,45.517,84.032,21.192,67.47,4.632S26.581-10.756,8.334,7.489ZM45.307,45.548c-3.888,3.888-13.624,5.837-24.059,5.3-.531-10.389,1.4-20.153,5.3-24.055,6.08-6.08,14.19-6.473,19.709-.952S51.389,39.468,45.307,45.548Z" transform="translate(7.828 7.035)" fill="#fff"/>
    </g>
  </g>
</svg>
