<svg xmlns="http://www.w3.org/2000/svg" xmlns:xlink="http://www.w3.org/1999/xlink" width="307.563" height="189.502" viewBox="0 0 307.563 189.502">
  <defs>
    <clipPath id="clip-path">
      <path id="Контур_383" data-name="Контур 383" d="M0,141.443H307.563v-189.5H0Z" transform="translate(0 48.059)" fill="#fff"/>
    </clipPath>
  </defs>
  <g id="Сгруппировать_601" data-name="Сгруппировать 601" opacity="0.6" clip-path="url(#clip-path)">
    <g id="Сгруппировать_600" data-name="Сгруппировать 600" transform="translate(5.914 5.916)">
      <path id="Контур_382" data-name="Контур 382" d="M214.525,30.868q5.542,1.845,7.393,6.238a10.876,10.876,0,0,1,0,8.781q-1.851,4.389-7.393,6.238L85.605,91.4a31.484,31.484,0,0,1-21.257,0L-26.221,63.675a22.875,22.875,0,0,0-9.7,17.1q7.393,4.625,7.393,12.247A14.352,14.352,0,0,1-35,105.263L-22.984,158.4a7.831,7.831,0,0,1-1.621,6.005,6.8,6.8,0,0,1-5.773,2.772H-56.256a6.813,6.813,0,0,1-5.777-2.772,7.844,7.844,0,0,1-1.617-6.005l12.015-53.141a14.557,14.557,0,0,1-6.471-12.476q0-7.855,7.393-12.015a35.954,35.954,0,0,1,8.32-21.719l-22.18-6.928q-5.548-1.851-7.393-6.238a10.876,10.876,0,0,1,0-8.781q1.845-4.389,7.393-6.238L64.348-8.871a35.726,35.726,0,0,1,21.257,0Zm-124.3,74.856,67-20.331,6.467,52.215q0,7.855-12.015,14.787t-32.345,10.859a234.153,234.153,0,0,1-44.36,3.927,234.213,234.213,0,0,1-44.36-3.927Q10.286,159.327-1.73,152.395t-12.015-14.787l6.471-52.215,67,20.331A51.437,51.437,0,0,0,90.227,105.724Z" transform="translate(72.891 10.488)" fill="#fff"/>
    </g>
  </g>
</svg>
