<svg xmlns="http://www.w3.org/2000/svg" xmlns:xlink="http://www.w3.org/1999/xlink" width="85.876" height="85.875" viewBox="0 0 85.876 85.875">
  <defs>
    <clipPath id="clip-path">
      <path id="Контур_322" data-name="Контур 322" d="M0-29.444H85.876V-115.32H0Z" transform="translate(0 115.32)" fill="none"/>
    </clipPath>
  </defs>
  <g id="Сгруппировать_444" data-name="Сгруппировать 444" transform="translate(0 115.32)">
    <g id="Сгруппировать_438" data-name="Сгруппировать 438" transform="translate(0 -115.32)" clip-path="url(#clip-path)">
      <g id="Сгруппировать_436" data-name="Сгруппировать 436" transform="translate(1.127 1.117)">
        <path id="Контур_320" data-name="Контур 320" d="M-28.292-1.081a2.966,2.966,0,0,0-2.034-2.031A59.322,59.322,0,0,0-43.77-4.233c-16.862,0-26.974,9.018-34.523,20.91H-95.316a8.6,8.6,0,0,0-7.007,4.329l-8.074,16.14a4.652,4.652,0,0,0-.411,1.748,3.923,3.923,0,0,0,3.921,3.921H-89.9A15.684,15.684,0,0,1-74.218,58.5h0v16.99A3.923,3.923,0,0,0-70.3,79.409,4.67,4.67,0,0,0-68.548,79l16.132-8.072a8.594,8.594,0,0,0,4.324-7V46.866c11.859-7.566,20.914-17.71,20.914-34.485A58.063,58.063,0,0,0-28.292-1.081ZM-48.077,23.212a6.535,6.535,0,0,1-6.534-6.536,6.534,6.534,0,0,1,6.536-6.533,6.534,6.534,0,0,1,6.533,6.535A6.537,6.537,0,0,1-48.077,23.212Z" transform="translate(110.807 4.233)" fill="none" stroke="#8b7a00" stroke-width="3"/>
      </g>
      <g id="Сгруппировать_437" data-name="Сгруппировать 437" transform="translate(1.117 53.393)">
        <path id="Контур_321" data-name="Контур 321" d="M-2-1.8C-6.223,2.428-8.31,12.992-7.734,24.235,3.556,24.816,14.093,22.707,18.3,18.5c6.581-6.58,7-15.354,1.031-21.327S4.583-8.377-2-1.8ZM11.337,11.931c-1.4,1.4-4.914,2.105-8.678,1.912-.191-3.747.5-7.269,1.912-8.676C6.765,2.974,9.69,2.832,11.68,4.823S13.531,9.738,11.337,11.931Z" transform="translate(7.828 7.035)" fill="none" stroke="#8b7a00" stroke-width="3"/>
      </g>
    </g>
  </g>
</svg>
