<svg xmlns="http://www.w3.org/2000/svg" xmlns:xlink="http://www.w3.org/1999/xlink" width="243.134" height="330.379" viewBox="0 0 243.134 330.379">
  <defs>
    <clipPath id="clip-path">
      <path id="Контур_387" data-name="Контур 387" d="M0,238.523H243.134V-91.856H0Z" transform="translate(0 91.856)" fill="none"/>
    </clipPath>
  </defs>
  <g id="Сгруппировать_602" data-name="Сгруппировать 602" transform="translate(0 91.856)" opacity="0.6">
    <g id="Сгруппировать_605" data-name="Сгруппировать 605" transform="translate(0 -91.856)" clip-path="url(#clip-path)">
      <g id="Сгруппировать_602-2" data-name="Сгруппировать 602" transform="translate(0 0)">
        <path id="Контур_384" data-name="Контур 384" d="M64.563,175.3a18.182,18.182,0,0,1-14.7-6.582,46.422,46.422,0,0,0-26.519-15.279c-1.306-.266-2.564-.745-3.859-1.075-9.873-2.5-15.509-8.323-17.307-18.8A53.928,53.928,0,0,0-17.679,99.683c-7.1-5.694-8.485-13.268-6.122-21.739,2.467-8.855,4.654-17.789,3.327-27.044-.888-6.19-2.338-12.3-3.7-18.419-1.651-7.406.417-13.621,5.683-18.883,2.115-2.108,4.374-4.071,6.535-6.132A39.707,39.707,0,0,0-.063-13.048c.91-4.111,2.039-8.175,3.2-12.222,2.259-7.844,7.434-12.7,15.426-14.3A61.686,61.686,0,0,0,54.64-60.629c5.694-6.729,12.923-8.082,21.249-5.953,7.636,1.949,15.189,5.071,23.264,3.942a147.7,147.7,0,0,0,18.678-3.9c8.208-2.259,14.984-.421,20.771,5.708,2.262,2.392,4.816,4.517,7.021,6.963,5.949,6.6,13.4,10.391,21.947,12.4A88.255,88.255,0,0,1,177.9-38.4c6.42,2.377,10.445,7,12.319,13.628,1.87,6.6,3.435,13.376,6.147,19.634,1.824,4.2,5.312,7.726,8.247,11.4a39.717,39.717,0,0,0,5.082,4.963c8.111,7.05,10.585,15.513,6.916,25.77-4.647,12.995-4.064,25.965.058,39.053,3.014,9.574,1.557,18.07-6.8,25a50.405,50.405,0,0,0-17.843,29.22c-.762,3.7-2.313,7.237-3.446,10.866-1.511,4.83-4.884,7.787-9.531,9.344-4.086,1.37-8.211,2.662-12.38,3.755-7.776,2.036-14.545,5.712-19.875,11.79-6.812,7.769-15.4,9.747-25.17,7.812A14.729,14.729,0,0,1,117.748,172c-14.272-7.79-28.446-7.434-42.707.176-3.176,1.7-6.769,2.611-10.168,3.884-.1-.252-.205-.5-.309-.752M96.286-15.987c-33.3-1.306-72.362,28.335-69.492,75.042,2.144,34.877,32.87,66.3,72.283,64.942a70.093,70.093,0,0,0,67.787-71.334c-.518-38.395-32.626-69.442-70.578-68.65" transform="translate(24.863 67.51)" fill="#fff"/>
      </g>
      <g id="Сгруппировать_603" data-name="Сгруппировать 603" transform="translate(5.204 227.639)">
        <path id="Контур_385" data-name="Контур 385" d="M41.249,74.175C35.016,67.5,29.11,61.461,23.557,55.12c-3.841-4.388-8.341-5.78-14.02-5.312-8.262.68-16.566.845-25.422,1.259,2.2-5.23,4.115-9.859,6.1-14.455Q3.845,5.034,17.467-26.54c.816-1.906,1.615-2.435,3.683-1.719,3.485,1.2,7.165,1.852,10.653,3.046a31.167,31.167,0,0,1,14.045,9.222C52.668-7.909,61.175-4.147,71.738-5.1c.6-.058,1.212-.007,2.539-.007C63.25,21.357,52.384,47.444,41.249,74.175" transform="translate(15.885 28.565)" fill="#fff"/>
      </g>
      <g id="Сгруппировать_604" data-name="Сгруппировать 604" transform="translate(147.783 227.187)">
        <path id="Контур_386" data-name="Контур 386" d="M23.75,74.5C12.575,47.68,1.669,21.514-9.146-4.436c4.532-.378,8.956-.349,13.2-1.2A22.283,22.283,0,0,0,16.66-13,40.025,40.025,0,0,1,40.1-26.869c2.007-.381,3.938-1.147,6.194-1.82,11.484,26.5,22.943,52.962,34.572,79.8-3.377,0-6.226.1-9.067-.022-5.863-.263-11.729-.543-17.581-1.018A14.042,14.042,0,0,0,41.87,55.017C36.093,61.445,30.109,67.685,23.75,74.5" transform="translate(9.146 28.689)" fill="#fff"/>
      </g>
    </g>
  </g>
</svg>
