<svg xmlns="http://www.w3.org/2000/svg" xmlns:xlink="http://www.w3.org/1999/xlink" width="404.757" height="288" viewBox="0 0 404.757 288">
  <defs>
    <clipPath id="clip-path">
      <path id="Контур_330" data-name="Контур 330" d="M0,232.5H404.757v-288H0Z" transform="translate(0 55.5)" fill="#fff"/>
    </clipPath>
  </defs>
  <g id="Сгруппировать_463" data-name="Сгруппировать 463" transform="translate(0 55.5)" opacity="0.6">
    <g id="Сгруппировать_454" data-name="Сгруппировать 454" transform="translate(0 -55.5)" clip-path="url(#clip-path)">
      <g id="Сгруппировать_453" data-name="Сгруппировать 453" transform="translate(7.784 7.784)">
        <path id="Контур_329" data-name="Контур 329" d="M47.128,94.257q-15.809,0-27.363-11.556T8.209,55.338q0-15.809,11.556-27.363T47.128,16.419q15.809,0,27.363,11.556T86.047,55.338q0,15.809-11.556,27.363T47.128,94.257Zm272.432,0q-15.809,0-27.363-11.556T280.642,55.338q0-15.809,11.556-27.363t27.363-11.556q15.809,0,27.363,11.556T358.48,55.338q0,15.809-11.556,27.363T319.561,94.257Zm19.459,19.459q15.809,0,27.363,11.556t11.556,27.363v19.459a19.725,19.725,0,0,1-19.459,19.459H318.347a90.16,90.16,0,0,0-15.2-38.919,85.4,85.4,0,0,0-30.4-27.363q11.551-11.559,27.363-11.556Zm-155.676,0A68.09,68.09,0,0,1,124.359,79.66a66.987,66.987,0,0,1-9.123-34.051,67.019,67.019,0,0,1,9.123-34.057,68.111,68.111,0,0,1,117.971,0,67.019,67.019,0,0,1,9.123,34.057A66.986,66.986,0,0,1,242.33,79.66a68.09,68.09,0,0,1-58.986,34.057Zm46.822,19.459a68.065,68.065,0,0,1,34.97,9.424,70.171,70.171,0,0,1,25.541,25.541,68.065,68.065,0,0,1,9.424,34.97v17.633a29.074,29.074,0,0,1-29.189,29.189H95.777a29.074,29.074,0,0,1-29.189-29.189V203.11a68.065,68.065,0,0,1,9.424-34.97A70.172,70.172,0,0,1,101.553,142.6a68.065,68.065,0,0,1,34.97-9.424h4.862a95.341,95.341,0,0,0,83.92,0Zm-136.216-7.9a85.4,85.4,0,0,0-30.4,27.363,90.16,90.16,0,0,0-15.2,38.919H8.209a18.7,18.7,0,0,1-13.684-5.776,18.7,18.7,0,0,1-5.776-13.684V152.635q0-15.809,11.556-27.363t27.363-11.556H66.588Q82.4,113.716,93.95,125.273Z" transform="translate(11.25 22.5)" fill="#fff"/>
      </g>
    </g>
  </g>
</svg>
