<svg xmlns="http://www.w3.org/2000/svg" xmlns:xlink="http://www.w3.org/1999/xlink" width="273.834" height="241.234" viewBox="0 0 273.834 241.234">
  <defs>
    <clipPath id="clip-path">
      <path id="Контур_332" data-name="Контур 332" d="M0,185.734H273.834V-55.5H0Z" transform="translate(0 55.5)" fill="#fff"/>
    </clipPath>
  </defs>
  <g id="Сгруппировать_592" data-name="Сгруппировать 592" transform="translate(0 55.5)" opacity="0.6">
    <g id="Сгруппировать_461" data-name="Сгруппировать 461" transform="translate(0 -55.5)" clip-path="url(#clip-path)">
      <g id="Сгруппировать_460" data-name="Сгруппировать 460" transform="translate(6.519 6.52)">
        <path id="Контур_331" data-name="Контур 331" d="M198.05,144.321a12.3,12.3,0,0,0,0-17.317l-40.24-36.168a11.787,11.787,0,0,0-8.658-3.564,13.191,13.191,0,0,0-8.915,3.312,11.191,11.191,0,0,0-3.821,8.91v24.454H130.3L90.064,79.631,70.2,101.024l45.843,49.407a6.323,6.323,0,0,0,4.586,2.039h15.787v20.372a11.408,11.408,0,0,0,3.821,8.663,12.654,12.654,0,0,0,8.915,3.564,11.787,11.787,0,0,0,8.658-3.564ZM-53.064,18A5.9,5.9,0,0,1-57.4,16.214a5.9,5.9,0,0,1-1.782-4.329v-16.3A5.909,5.909,0,0,1-57.4-8.744a5.912,5.912,0,0,1,4.334-1.782H3.471A6.323,6.323,0,0,1,8.057-8.487L53.9,40.92,34.545,61.805-6.2,18ZM198.05-3.393a11.78,11.78,0,0,1,3.564,8.658,11.787,11.787,0,0,1-3.564,8.658l-40.24,37.185a11.787,11.787,0,0,1-8.658,3.564,12.654,12.654,0,0,1-8.915-3.564,11.406,11.406,0,0,1-3.821-8.658V18H130.3L8.057,150.432a6.323,6.323,0,0,1-4.586,2.039H-53.064a5.912,5.912,0,0,1-4.334-1.782,5.909,5.909,0,0,1-1.782-4.329v-16.3A5.9,5.9,0,0,1-57.4,125.73a5.9,5.9,0,0,1,4.334-1.782H-6.2L116.043-8.487a6.323,6.323,0,0,1,4.586-2.039h15.787V-30.9a11.406,11.406,0,0,1,3.821-8.658,12.654,12.654,0,0,1,8.915-3.564,11.787,11.787,0,0,1,8.658,3.564Z" transform="translate(59.18 43.125)" fill="#fff"/>
      </g>
    </g>
  </g>
</svg>
