<svg xmlns="http://www.w3.org/2000/svg" xmlns:xlink="http://www.w3.org/1999/xlink" width="101.156" height="62.327" viewBox="0 0 101.156 62.327">
  <defs>
    <clipPath id="clip-path">
      <path id="Контур_324" data-name="Контур 324" d="M0,14.268H101.156V-48.059H0Z" transform="translate(0 48.059)" fill="none"/>
    </clipPath>
  </defs>
  <g id="Сгруппировать_440" data-name="Сгруппировать 440" clip-path="url(#clip-path)">
    <g id="Сгруппировать_439" data-name="Сгруппировать 439" transform="translate(1.945 1.946)">
      <path id="Контур_323" data-name="Контур 323" d="M21.639,3.114a3.725,3.725,0,0,1,2.432,2.052,3.577,3.577,0,0,1,0,2.888,3.728,3.728,0,0,1-2.432,2.052l-42.4,12.918a10.355,10.355,0,0,1-6.991,0L-57.541,13.9a7.523,7.523,0,0,0-3.192,5.623A4.588,4.588,0,0,1-58.3,23.555a4.72,4.72,0,0,1-2.127,4.027l3.952,17.478a2.575,2.575,0,0,1-.533,1.975,2.237,2.237,0,0,1-1.9.912H-67.42a2.241,2.241,0,0,1-1.9-.912,2.58,2.58,0,0,1-.532-1.975L-65.9,27.582a4.788,4.788,0,0,1-2.128-4.1A4.311,4.311,0,0,1-65.6,19.527a11.825,11.825,0,0,1,2.736-7.143l-7.295-2.279a3.722,3.722,0,0,1-2.432-2.052,3.577,3.577,0,0,1,0-2.888,3.719,3.719,0,0,1,2.432-2.052l42.4-13.07a11.75,11.75,0,0,1,6.991,0Zm-40.881,24.62L2.795,21.047,4.921,38.22q0,2.583-3.952,4.863A34.7,34.7,0,0,1-9.668,46.655a77.012,77.012,0,0,1-14.59,1.292,77.032,77.032,0,0,1-14.59-1.292,34.71,34.71,0,0,1-10.638-3.572q-3.951-2.28-3.952-4.863l2.128-17.173,22.036,6.687A16.917,16.917,0,0,0-19.242,27.734Z" transform="translate(72.891 10.488)" fill="none" stroke="#8b7a00" stroke-width="3"/>
    </g>
  </g>
</svg>
