<svg xmlns="http://www.w3.org/2000/svg" xmlns:xlink="http://www.w3.org/1999/xlink" width="70.231" height="95.594" viewBox="0 0 70.231 95.594">
  <defs>
    <clipPath id="clip-path">
      <path id="Контур_344" data-name="Контур 344" d="M0,0H70.231V-95.594H0Z" fill="none"/>
    </clipPath>
  </defs>
  <g id="Сгруппировать_496" data-name="Сгруппировать 496" transform="translate(0 95.594)">
    <g id="Сгруппировать_497" data-name="Сгруппировать 497" clip-path="url(#clip-path)">
      <g id="Сгруппировать_496-2" data-name="Сгруппировать 496" transform="translate(68.722 -67.479)">
        <path id="Контур_343" data-name="Контур 343" d="M0,0A7.055,7.055,0,0,0-2.1-4.674c-.606-.6-1.182-1.237-1.832-1.786C-6.207-8.378-6.9-11.1-7.462-13.783a6.341,6.341,0,0,0-3.856-4.876,18.8,18.8,0,0,0-3.193-.965,9.478,9.478,0,0,1-5.133-2.858c-.8-.9-1.715-1.7-2.6-2.512a5.457,5.457,0,0,0-4.774-1.541,34.748,34.748,0,0,0-3.6.821,9.807,9.807,0,0,1-5.7.08c-.783-.244-1.6-.384-2.386-.611-2.729-.788-5.11-.348-7.03,1.89a15.19,15.19,0,0,1-8.929,5.226,6.3,6.3,0,0,0-5.061,4.657c-.366,1.265-.708,2.539-1,3.822-.552,2.38-2.215,4.006-3.919,5.513A6.468,6.468,0,0,0-67.1,1.085c.237,1.446.752,2.848.965,4.3a14.375,14.375,0,0,1,.105,3.739,37.218,37.218,0,0,1-.964,4.294,6.245,6.245,0,0,0,2.268,6.778A14.189,14.189,0,0,1-59.8,29.159a5.757,5.757,0,0,0,3.533,4.524,15.545,15.545,0,0,0,2.755.91,11.134,11.134,0,0,1,6.627,3.889,2.669,2.669,0,0,0,.248.251,6.265,6.265,0,0,0,7.495.938,10.2,10.2,0,0,1,10.953-.027,5.988,5.988,0,0,0,3.979.8,6.286,6.286,0,0,0,3.947-2.13,10.521,10.521,0,0,1,5.757-3.524c1-.22,1.967-.586,2.944-.9a5.006,5.006,0,0,0,3.327-2.816,31.44,31.44,0,0,0,1.394-4.426c.679-2.8,2.478-4.8,4.52-6.659A5.777,5.777,0,0,0-.137,15.627a10.922,10.922,0,0,0-.451-3.3,14.447,14.447,0,0,1-.01-9.5A22.829,22.829,0,0,0,0,0ZM-56.234,34.006c-2.9,7.08-7.275,16.614-10.187,23.733.344,0,.57.009.795,0,2.848-.125,5.7-.235,8.542-.392a1.976,1.976,0,0,1,1.74.731c2.014,2.216,4.093,4.372,6.27,6.68,2.888-7.052,7.643-18.3,10.46-25.179m27.521-5.572C-8.2,41.086-3.818,50.62-.906,57.739c-.343,0-.569.009-.794,0-2.848-.125-5.7-.235-8.543-.392a1.975,1.975,0,0,0-1.739.731c-2.014,2.216-4.094,4.372-6.271,6.68-2.888-7.052-7.642-18.3-10.46-25.178M-51.188,6.938c-.319-9.349,7.792-17.7,17.592-17.582A17.57,17.57,0,0,1-16.04,6.957a17.683,17.683,0,0,1-17.751,17.6C-43.365,24.494-51.506,16.36-51.188,6.938Z" fill="none" stroke="#8b7a00" stroke-width="3"/>
      </g>
    </g>
  </g>
</svg>
