<svg xmlns="http://www.w3.org/2000/svg" xmlns:xlink="http://www.w3.org/1999/xlink" width="67.599" height="91.856" viewBox="0 0 67.599 91.856">
  <defs>
    <clipPath id="clip-path">
      <path id="Контур_342" data-name="Контур 342" d="M0,0H67.6V-91.856H0Z" fill="#fff"/>
    </clipPath>
  </defs>
  <g id="Сгруппировать_495" data-name="Сгруппировать 495" transform="translate(0 91.856)">
    <g id="Сгруппировать_494" data-name="Сгруппировать 494" clip-path="url(#clip-path)">
      <g id="Сгруппировать_491" data-name="Сгруппировать 491" transform="translate(24.863 -24.346)">
        <path id="Контур_339" data-name="Контур 339" d="M0,0A5.055,5.055,0,0,1-4.086-1.83a12.907,12.907,0,0,0-7.373-4.248c-.363-.074-.713-.207-1.073-.3A5.925,5.925,0,0,1-17.344-11.6a14.994,14.994,0,0,0-5.522-9.421c-1.974-1.583-2.359-3.689-1.7-6.044a18.235,18.235,0,0,0,.925-7.519c-.247-1.721-.65-3.421-1.029-5.121a5.354,5.354,0,0,1,1.58-5.25c.588-.586,1.216-1.132,1.817-1.705a11.04,11.04,0,0,0,3.307-5.7c.253-1.143.567-2.273.891-3.4a5.282,5.282,0,0,1,4.289-3.977A17.151,17.151,0,0,0-2.759-65.6a5.366,5.366,0,0,1,5.908-1.655c2.123.542,4.223,1.41,6.468,1.1A41.067,41.067,0,0,0,14.81-67.24a5.381,5.381,0,0,1,5.775,1.587c.629.665,1.339,1.256,1.952,1.936a11.447,11.447,0,0,0,6.1,3.448,24.538,24.538,0,0,1,2.873.853,5.35,5.35,0,0,1,3.425,3.789,43.33,43.33,0,0,0,1.709,5.459A15.191,15.191,0,0,0,38.939-47a11.043,11.043,0,0,0,1.413,1.38,6.041,6.041,0,0,1,1.923,7.165A16.577,16.577,0,0,0,42.291-27.6a5.942,5.942,0,0,1-1.89,6.952A14.014,14.014,0,0,0,35.44-12.52c-.212,1.029-.643,2.012-.958,3.021a3.879,3.879,0,0,1-2.65,2.6c-1.136.381-2.283.74-3.442,1.044a10.722,10.722,0,0,0-5.526,3.278,6.874,6.874,0,0,1-7,2.172A4.1,4.1,0,0,1,14.787-.92,11.779,11.779,0,0,0,2.913-.871,23.089,23.089,0,0,1,.086.209L0,0M8.82-53.185C-.438-53.548-11.3-45.307-10.5-32.321A19.568,19.568,0,0,0,9.6-14.265,19.488,19.488,0,0,0,28.443-34.1,19.4,19.4,0,0,0,8.82-53.185" fill="#fff"/>
      </g>
      <g id="Сгруппировать_492" data-name="Сгруппировать 492" transform="translate(17.332)">
        <path id="Контур_340" data-name="Контур 340" d="M0,0C-1.733-1.857-3.375-3.535-4.919-5.3a4.283,4.283,0,0,0-3.9-1.477c-2.3.189-4.606.235-7.068.35.613-1.454,1.144-2.741,1.7-4.019Q-10.4-19.224-6.612-28c.227-.53.449-.677,1.024-.478.969.335,1.992.515,2.962.847a8.665,8.665,0,0,1,3.9,2.564,7.982,7.982,0,0,0,7.2,3.027c.167-.016.337,0,.706,0C6.117-14.685,3.1-7.432,0,0" fill="#fff"/>
      </g>
      <g id="Сгруппировать_493" data-name="Сгруппировать 493" transform="translate(50.234 -0.002)">
        <path id="Контур_341" data-name="Контур 341" d="M0,0-9.146-21.946a32.656,32.656,0,0,0,3.67-.334,6.2,6.2,0,0,0,3.5-2.048,11.128,11.128,0,0,1,6.517-3.855c.558-.106,1.095-.319,1.722-.506C9.461-21.32,12.647-13.964,15.88-6.5c-.939,0-1.731.029-2.521-.006-1.63-.073-3.261-.151-4.888-.283A3.9,3.9,0,0,0,5.038-5.416C3.432-3.629,1.768-1.894,0,0" fill="#fff"/>
      </g>
    </g>
  </g>
</svg>
