<svg xmlns="http://www.w3.org/2000/svg" xmlns:xlink="http://www.w3.org/1999/xlink" width="110.64" height="78.725" viewBox="0 0 110.64 78.725">
  <defs>
    <clipPath id="clip-path">
      <path id="Контур_330" data-name="Контур 330" d="M0,23.225H110.64V-55.5H0Z" transform="translate(0 55.5)" fill="#fff"/>
    </clipPath>
  </defs>
  <g id="Сгруппировать_454" data-name="Сгруппировать 454" clip-path="url(#clip-path)">
    <g id="Сгруппировать_453" data-name="Сгруппировать 453" transform="translate(2.128 2.128)">
      <path id="Контур_329" data-name="Контур 329" d="M4.708,9.415a10.219,10.219,0,0,1-7.48-3.159,10.219,10.219,0,0,1-3.159-7.48A10.219,10.219,0,0,1-2.772-8.7a10.219,10.219,0,0,1,7.48-3.159A10.219,10.219,0,0,1,12.187-8.7a10.219,10.219,0,0,1,3.159,7.48,10.219,10.219,0,0,1-3.159,7.48A10.219,10.219,0,0,1,4.708,9.415Zm74.469,0A10.219,10.219,0,0,1,71.7,6.256a10.219,10.219,0,0,1-3.159-7.48A10.219,10.219,0,0,1,71.7-8.7a10.219,10.219,0,0,1,7.48-3.159A10.219,10.219,0,0,1,86.656-8.7a10.219,10.219,0,0,1,3.159,7.48,10.219,10.219,0,0,1-3.159,7.48A10.219,10.219,0,0,1,79.177,9.415ZM84.5,14.735a10.219,10.219,0,0,1,7.48,3.159,10.219,10.219,0,0,1,3.159,7.48v5.319a5.392,5.392,0,0,1-5.319,5.319H78.845a24.645,24.645,0,0,0-4.156-10.638,23.343,23.343,0,0,0-8.311-7.48,10.219,10.219,0,0,1,7.48-3.159Zm-42.554,0a18.32,18.32,0,0,1-9.309-2.494,18.281,18.281,0,0,1-6.814-6.816,18.311,18.311,0,0,1-2.494-9.308,18.32,18.32,0,0,1,2.494-9.309,18.288,18.288,0,0,1,6.814-6.814A18.32,18.32,0,0,1,41.942-22.5a18.32,18.32,0,0,1,9.309,2.494,18.288,18.288,0,0,1,6.814,6.814A18.32,18.32,0,0,1,60.56-3.883a18.311,18.311,0,0,1-2.494,9.308,18.281,18.281,0,0,1-6.814,6.816A18.32,18.32,0,0,1,41.942,14.735Zm12.8,5.319A18.606,18.606,0,0,1,64.3,22.63a19.181,19.181,0,0,1,6.982,6.982,18.606,18.606,0,0,1,2.576,9.559v4.82a7.947,7.947,0,0,1-7.979,7.979H18.006a7.947,7.947,0,0,1-7.979-7.979V39.17A18.606,18.606,0,0,1,12.6,29.611a19.181,19.181,0,0,1,6.982-6.982,18.606,18.606,0,0,1,9.559-2.576h1.329a26.691,26.691,0,0,0,11.47,2.66,26.691,26.691,0,0,0,11.47-2.66Zm-37.235-2.16A23.343,23.343,0,0,0,9.2,25.373,24.645,24.645,0,0,0,5.04,36.012H-5.931a5.112,5.112,0,0,1-3.74-1.579,5.112,5.112,0,0,1-1.579-3.74V25.373a10.219,10.219,0,0,1,3.159-7.48,10.219,10.219,0,0,1,7.48-3.159H10.027A10.219,10.219,0,0,1,17.506,17.894Z" transform="translate(11.25 22.5)" fill="#fff"/>
    </g>
  </g>
</svg>
