<svg xmlns="http://www.w3.org/2000/svg" xmlns:xlink="http://www.w3.org/1999/xlink" width="386.888" height="386.887" viewBox="0 0 386.888 386.887">
  <defs>
    <clipPath id="clip-path">
      <path id="Контур_52" data-name="Контур 52" d="M0,79.8H386.888V-307.09H0Z" transform="translate(0 307.09)" fill="#b19900"/>
    </clipPath>
  </defs>
  <g id="Сгруппировать_63" data-name="Сгруппировать 63" clip-path="url(#clip-path)">
    <g id="Сгруппировать_62" data-name="Сгруппировать 62" transform="translate(0 0.001)">
      <path id="Контур_51" data-name="Контур 51" d="M39.9,26.5q30.979.756,52.512,22.289t22.289,51a656.6,656.6,0,0,1-9.067,117.869,13.532,13.532,0,0,1-3.777,7.555,10.256,10.256,0,0,1-7.557,3.022l-2.266-.756a11.078,11.078,0,0,1-7.933-4.533,12.229,12.229,0,0,1-1.889-9.067,653.211,653.211,0,0,0,8.311-113.335q0-20.4-14.734-35.133T39.9,50.678q-22.668,0-36.645,13.978A45.844,45.844,0,0,0-10.721,98.279,513.525,513.525,0,0,1-21.3,216.147a13.327,13.327,0,0,1-5.667,7.933,11.446,11.446,0,0,1-9.066,1.512,11.74,11.74,0,0,1-7.557-5.289,12.04,12.04,0,0,1-1.889-8.689A471.369,471.369,0,0,0-34.9,99.035q0-30.223,20.779-51T39.9,26.5m0,64.978a12.163,12.163,0,0,1,8.311,3.4,11.168,11.168,0,0,1,3.778,8.689A583,583,0,0,1,30.081,272.815l-.756,3.022a13.536,13.536,0,0,1-4.534,6.8,11.044,11.044,0,0,1-6.8,2.266q-7.555,0-10.578-5.289T5.9,269.792l.756-3.778A551.519,551.519,0,0,0,27.813,103.568a12.163,12.163,0,0,1,3.4-8.311A11.168,11.168,0,0,1,39.9,91.478M-68.143,11.388A12.166,12.166,0,0,1-60.21,6.855,10.117,10.117,0,0,1-51.521,9.5a13.686,13.686,0,0,1,4.533,8.311A9.669,9.669,0,0,1-50.009,26.5Q-73.433,55.967-72.676,93.746a447.233,447.233,0,0,1-8.311,93.69,11.033,11.033,0,0,1-4.156,7.177,11.515,11.515,0,0,1-7.177,2.644h-2.266a10.692,10.692,0,0,1-7.933-4.911,12.035,12.035,0,0,1-1.89-8.689A444.277,444.277,0,0,0-96.854,94.5a120.281,120.281,0,0,1,6.8-44.2A126.216,126.216,0,0,1-68.143,11.388M233.327,89.212v18.134a10.873,10.873,0,0,1-3.4,7.933,12.091,12.091,0,0,1-20.777-8.689V89.212a136.589,136.589,0,0,0-3.778-31.733,10.4,10.4,0,0,1,1.512-9.445,13.2,13.2,0,0,1,7.933-5.289,11.446,11.446,0,0,1,9.066,1.512,10.694,10.694,0,0,1,4.912,7.933,152.118,152.118,0,0,1,4.533,37.022M37.636-101.945a196.647,196.647,0,0,1,90.29,23.422,201.538,201.538,0,0,1,70.646,61.957,10.72,10.72,0,0,1,2.266,8.688A11.694,11.694,0,0,1,195.926.056a11.826,11.826,0,0,1-9.066,2.266,11.361,11.361,0,0,1-7.933-5.289A175.928,175.928,0,0,0,116.97-56.99,175.464,175.464,0,0,0,36.88-77.767,165.181,165.181,0,0,0-28.476-66.056a156.472,156.472,0,0,0-54.4,35.889,164.358,164.358,0,0,0-35.133,52.512,149.6,149.6,0,0,0-11.334,61.578v18.134a10.379,10.379,0,0,1-3.777,7.933,12.163,12.163,0,0,1-8.311,3.4,11.168,11.168,0,0,1-8.689-3.778,12.163,12.163,0,0,1-3.4-8.311V83.923A172.853,172.853,0,0,1-140.3,13.278,188.678,188.678,0,0,1-99.876-47.167,181.563,181.563,0,0,1-37.921-88.345a189.916,189.916,0,0,1,75.557-13.6m.756,64.222a139.947,139.947,0,0,1,68.756,19.267A143.357,143.357,0,0,1,157.77,30.656a130.215,130.215,0,0,1,19.645,66.867,713.307,713.307,0,0,1-4.533,92.935,12.584,12.584,0,0,1-4.156,7.555,11.569,11.569,0,0,1-7.933,3.022h-1.511a9.717,9.717,0,0,1-8.311-4.156,11.2,11.2,0,0,1-2.266-8.689,667.933,667.933,0,0,0,4.533-89.912,109.8,109.8,0,0,0-16.245-55.534A115.333,115.333,0,0,0,95.059,2.322,119.814,119.814,0,0,0,37.636-13.544,135.554,135.554,0,0,0,9.68-10.523,10.632,10.632,0,0,1,.613-11.656a11.444,11.444,0,0,1-5.667-7.555,12.543,12.543,0,0,1,1.512-9.445,10.434,10.434,0,0,1,7.933-5.289,152.941,152.941,0,0,1,34-3.778" transform="translate(153.561 101.983)" fill="#b19900"/>
    </g>
  </g>
</svg>
