<svg xmlns="http://www.w3.org/2000/svg" xmlns:xlink="http://www.w3.org/1999/xlink" width="218" height="218" viewBox="0 0 218 218">
  <defs>
    <clipPath id="clip-path">
      <path id="Контур_195" data-name="Контур 195" d="M0,159.875H218v-218H0Z" transform="translate(0 58.125)" fill="#8b7a00"/>
    </clipPath>
  </defs>
  <g id="Сгруппировать_412" data-name="Сгруппировать 412" transform="translate(0 58.125)">
    <g id="Сгруппировать_281" data-name="Сгруппировать 281" transform="translate(0 -58.125)" clip-path="url(#clip-path)">
      <g id="Сгруппировать_280" data-name="Сгруппировать 280" transform="translate(0.002)">
        <path id="Контур_194" data-name="Контур 194" d="M79.936,0a105.667,105.667,0,0,1,54.5,14.725A110.138,110.138,0,0,1,174.213,54.5,105.664,105.664,0,0,1,188.934,109a105.667,105.667,0,0,1-14.721,54.5,110.138,110.138,0,0,1-39.778,39.774A105.667,105.667,0,0,1,79.936,218a105.667,105.667,0,0,1-54.5-14.725A110.138,110.138,0,0,1-14.341,163.5,105.667,105.667,0,0,1-29.062,109,105.663,105.663,0,0,1-14.341,54.5,110.138,110.138,0,0,1,25.437,14.725,105.667,105.667,0,0,1,79.936,0m84.826,66.8a93.6,93.6,0,0,0-22.634-29.667A89.03,89.03,0,0,0,109.385,18.9Q122.567,36.918,128.723,66.8ZM118.615,109a226.935,226.935,0,0,0-1.759-28.129H43.016a225.822,225.822,0,0,0,0,56.262h73.841A227,227,0,0,0,118.615,109M79.936,14.065q-9.232,0-18.9,14.065Q50.928,42.632,45.652,66.8H114.22q-5.277-24.168-15.385-38.676-9.671-14.065-18.9-14.065M50.487,18.9A89.029,89.029,0,0,0,17.745,37.138,93.6,93.6,0,0,0-4.89,66.8H31.149Q37.3,37.359,50.487,18.9M-15,109a91.1,91.1,0,0,0,4.392,28.133H28.951a225.225,225.225,0,0,1-1.759-27.911,235.98,235.98,0,0,1,1.759-28.35H-10.606A91.089,91.089,0,0,0-15,109M-4.89,151.2a93.6,93.6,0,0,0,22.634,29.667A89.029,89.029,0,0,0,50.487,199.1Q37.306,181.082,31.149,151.2Zm84.826,52.74q9.232,0,18.9-14.065,10.11-14.5,15.385-38.676H45.652q5.277,24.168,15.385,38.676,9.671,14.065,18.9,14.065m29.888-4.834a89.592,89.592,0,0,0,32.3-18.239A93.6,93.6,0,0,0,164.762,151.2H128.723q-6.155,29.445-18.9,47.906m21.1-61.97h39.557a92.288,92.288,0,0,0,0-56.262H130.921a225.223,225.223,0,0,1,1.759,27.911,235.977,235.977,0,0,1-1.759,28.35" transform="translate(29.062)" fill="#8b7a00"/>
      </g>
    </g>
  </g>
</svg>
