<svg xmlns="http://www.w3.org/2000/svg" xmlns:xlink="http://www.w3.org/1999/xlink" width="222.875" height="206.039" viewBox="0 0 222.875 206.039">
  <defs>
    <clipPath id="clip-path">
      <path id="Контур_189" data-name="Контур 189" d="M222.875,127.989H0V-78.05H222.875Z" transform="translate(0 78.05)" fill="#8b7a00"/>
    </clipPath>
    <clipPath id="clip-path-2">
      <path id="Контур_193" data-name="Контур 193" d="M47.7,41.068H0V-27.371H47.7Z" transform="translate(0 27.371)" fill="none"/>
    </clipPath>
  </defs>
  <g id="Сгруппировать_411" data-name="Сгруппировать 411" transform="translate(0)">
    <g id="Сгруппировать_272" data-name="Сгруппировать 272" transform="translate(0 0)">
      <g id="Сгруппировать_271" data-name="Сгруппировать 271" clip-path="url(#clip-path)">
        <g id="Сгруппировать_269" data-name="Сгруппировать 269" transform="translate(0.001 102.953)">
          <path id="Контур_187" data-name="Контур 187" d="M104.566,0h-4.95a7.158,7.158,0,0,0-5.259,2.165L-2.054,79.871a7.47,7.47,0,0,0,0,10.517l8.661,10.533a7.158,7.158,0,0,0,5.259,2.165,7.16,7.16,0,0,0,5.261-2.165l96.409-79.575a7.161,7.161,0,0,0,2.167-5.259v-4.95" transform="translate(4.219)" fill="#8b7a00"/>
        </g>
        <g id="Сгруппировать_270" data-name="Сгруппировать 270" transform="translate(94.183 0)">
          <path id="Контур_188" data-name="Контур 188" d="M-18.038,72.831V68.5A66.477,66.477,0,0,0,1.452,80.1a62.2,62.2,0,0,0,22.584,4.176,62.508,62.508,0,0,0,32.327-8.661A65.006,65.006,0,0,0,79.717,52.259a62.485,62.485,0,0,0,8.664-32.327A62.485,62.485,0,0,0,79.717-12.4,65.006,65.006,0,0,0,56.363-35.753a62.508,62.508,0,0,0-32.327-8.661,62.51,62.51,0,0,0-32.33,8.661A65.006,65.006,0,0,0-31.649-12.4a62.485,62.485,0,0,0-8.664,32.327,62.208,62.208,0,0,0,4.179,22.584A66.4,66.4,0,0,0-24.535,62h-4.332m52.9,7.426A48.418,48.418,0,0,1-.716,62.776a49.136,49.136,0,0,1-18.1-18.1,48.416,48.416,0,0,1-6.652-24.748A48.416,48.416,0,0,1-18.812-4.817a49.162,49.162,0,0,1,18.1-18.1,48.442,48.442,0,0,1,24.751-6.65,48.423,48.423,0,0,1,24.746,6.65,49.15,49.15,0,0,1,18.1,18.1,48.416,48.416,0,0,1,6.652,24.748A48.416,48.416,0,0,1,66.88,44.68a49.123,49.123,0,0,1-18.1,18.1,48.4,48.4,0,0,1-24.746,6.652" transform="translate(40.313 44.414)" fill="#8b7a00"/>
        </g>
      </g>
    </g>
    <g id="Сгруппировать_275" data-name="Сгруппировать 275" transform="translate(155.337 40.171)">
      <g id="Сгруппировать_278" data-name="Сгруппировать 278" transform="translate(0 0)">
        <g id="Сгруппировать_277" data-name="Сгруппировать 277" clip-path="url(#clip-path-2)">
          <g id="Сгруппировать_276" data-name="Сгруппировать 276" transform="translate(-0.001 3.268)">
            <path id="Контур_192" data-name="Контур 192" d="M33.651,0A36.894,36.894,0,0,1,39.22,19.641a36.892,36.892,0,0,1-5.568,19.638A40.132,40.132,0,0,1,18.5,53.641,42.276,42.276,0,0,1-2.227,58.92" transform="translate(2.227)" fill="none" stroke="#8b7a00" stroke-width="5"/>
          </g>
        </g>
      </g>
    </g>
  </g>
</svg>
