<svg xmlns="http://www.w3.org/2000/svg" xmlns:xlink="http://www.w3.org/1999/xlink" width="87" height="87" viewBox="0 0 87 87">
  <defs>
    <clipPath id="clip-path">
      <path id="Контур_26" data-name="Контур 26" d="M0,18H27V-34H0Z" transform="translate(0 34)" fill="#8b7a00"/>
    </clipPath>
  </defs>
  <g id="Сгруппировать_56" data-name="Сгруппировать 56" transform="translate(-186 -7439)">
    <circle id="Эллипс_2" data-name="Эллипс 2" cx="43.5" cy="43.5" r="43.5" transform="translate(186 7439)" fill="#fff"/>
    <g id="Сгруппировать_22" data-name="Сгруппировать 22" transform="translate(-271 297)">
      <g id="Сгруппировать_21" data-name="Сгруппировать 21" transform="translate(487 7194)">
        <g id="Сгруппировать_20" data-name="Сгруппировать 20" transform="translate(0 -34)" clip-path="url(#clip-path)">
          <g id="Сгруппировать_19" data-name="Сгруппировать 19" transform="translate(0)">
            <path id="Контур_25" data-name="Контур 25" d="M2.887,18h9V-5h8l1-9h-9v-7a4.384,4.384,0,0,1,1-3c.678-.813,2.17-1,4-1h5v-9a59.5,59.5,0,0,0-7,0c-3.594,0-6.83.864-9,3s-3,5.135-3,9v8h-8v9h8Z" transform="translate(5.113 34)" fill="#8b7a00"/>
          </g>
        </g>
      </g>
    </g>
  </g>
</svg>
