<svg xmlns="http://www.w3.org/2000/svg" xmlns:xlink="http://www.w3.org/1999/xlink" width="360.742" height="360.371" viewBox="0 0 360.742 360.371">
  <defs>
    <clipPath id="clip-path">
      <path id="Контур_262" data-name="Контур 262" d="M0,297.338H360.742V-63.033H0Z" transform="translate(0 63.033)" fill="#fff"/>
    </clipPath>
  </defs>
  <g id="Сгруппировать_403" data-name="Сгруппировать 403" transform="translate(122.063 53.044)">
    <g id="Сгруппировать_374" data-name="Сгруппировать 374" transform="translate(-122.063 -53.044)" opacity="0.6" clip-path="url(#clip-path)">
      <g id="Сгруппировать_373" data-name="Сгруппировать 373" transform="translate(8.853 8.57)">
        <path id="Контур_261" data-name="Контур 261" d="M252.628,190.163l36.847,64.318-4.688,38.86a10.26,10.26,0,0,1-5.363,8.038,10.007,10.007,0,0,1-9.376.669L233.87,286.641l-36.853-63.649A202.508,202.508,0,0,0,252.628,190.163Zm28.809-62.98h-.669a189.235,189.235,0,0,1-69.681,65.662A189.245,189.245,0,0,1,117.96,216.96a190.98,190.98,0,0,1-68.337-12.726L2.056,286.641l-36.178,15.408a10.02,10.02,0,0,1-9.382-.669,10.253,10.253,0,0,1-5.357-8.038l-4.694-38.86,47.573-83.076A205.277,205.277,0,0,1-43.5,129.864a10.768,10.768,0,0,1-1.006-8.038,9.227,9.227,0,0,1,5.025-6.7l18.758-10.72a7.387,7.387,0,0,1,7.375-1.338,14.114,14.114,0,0,1,6.695,4.688,138.449,138.449,0,0,0,22.783,26.127l45.56-79.057a63.455,63.455,0,0,1-8.044-30.816q0-26.808,18.764-45.56T117.96-40.313q26.8,0,45.56,18.764t18.758,45.56a63.449,63.449,0,0,1-8.038,30.816l34.84,59.63a120.092,120.092,0,0,1-55.611,32.828L119.3,88.329h-2.681L71.731,166.043a141.883,141.883,0,0,0,46.229,8.038,146.481,146.481,0,0,0,71.688-18.421,151.373,151.373,0,0,0,54.273-49.917,11.318,11.318,0,0,1,6.695-5.025,9.38,9.38,0,0,1,7.369,1.006l18.764,10.051a12.839,12.839,0,0,1,5.357,7.038A10.91,10.91,0,0,1,281.437,127.183ZM117.96,2.566a20.607,20.607,0,0,0-15.07,6.369,20.588,20.588,0,0,0-6.369,15.076,20.585,20.585,0,0,0,6.369,15.07,21.021,21.021,0,0,0,30.147,0,20.6,20.6,0,0,0,6.363-15.07,20.6,20.6,0,0,0-6.363-15.076A20.61,20.61,0,0,0,117.96,2.566Z" transform="translate(53.555 40.313)" fill="#fff"/>
      </g>
    </g>
  </g>
</svg>
