<svg xmlns="http://www.w3.org/2000/svg" xmlns:xlink="http://www.w3.org/1999/xlink" width="85" height="105" viewBox="0 0 104.86 143.3">
  <defs>
    <clipPath id="clip-path">
      <path id="Контур_239" data-name="Контур 239" d="M0,63.711H104.86v-143.3H0Z" transform="translate(0 79.589)" fill="#8b7a00"/>
    </clipPath>
  </defs>
  <g id="Сгруппировать_341" data-name="Сгруппировать 341" transform="translate(0 79.589)">
    <g id="Сгруппировать_317" data-name="Сгруппировать 317" transform="translate(0 -79.589)">
      <path id="Контур_224" data-name="Контур 224" d="M47.336,0l-93.1.008V123.877H27.465l1.654-4.449H-41.317V4.453l84.25,0,.5,71.73,4.449-.045Z" transform="translate(45.766)" fill="#8b7a00"/>
    </g>
    <g id="Сгруппировать_332" data-name="Сгруппировать 332" transform="translate(0 -79.589)" clip-path="url(#clip-path)">
      <g id="Сгруппировать_318" data-name="Сгруппировать 318" transform="translate(49.87 37.028)">
        <path id="Контур_225" data-name="Контур 225" d="M6.759,1.51h-13.5a1.7,1.7,0,0,1-1.7-1.7,1.694,1.694,0,0,1,1.7-1.7h13.5a1.683,1.683,0,0,1,1.7,1.7,1.686,1.686,0,0,1-1.7,1.7" transform="translate(8.443 1.886)" fill="#8b7a00"/>
      </g>
      <g id="Сгруппировать_319" data-name="Сгруппировать 319" transform="translate(49.058 36.218)">
        <path id="Контур_226" data-name="Контур 226" d="M7.12,1.87V1.06h-13.5A.89.89,0,0,1-7.274.17a.885.885,0,0,1,.889-.886H7.12A.87.87,0,0,1,8.007.17a.873.873,0,0,1-.888.889V2.68A2.5,2.5,0,0,0,8.9,1.946,2.5,2.5,0,0,0,9.628.17,2.5,2.5,0,0,0,8.9-1.6,2.5,2.5,0,0,0,7.12-2.336h-13.5A2.51,2.51,0,0,0-8.894.17a2.511,2.511,0,0,0,2.51,2.51H7.12Z" transform="translate(8.894 2.336)" fill="#8b7a00"/>
      </g>
      <g id="Сгруппировать_320" data-name="Сгруппировать 320" transform="translate(49.87 23.434)">
        <path id="Контур_227" data-name="Контур 227" d="M6.759,1.512h-13.5a1.7,1.7,0,0,1-1.7-1.7,1.7,1.7,0,0,1,1.7-1.7h13.5a1.694,1.694,0,0,1,1.7,1.7,1.688,1.688,0,0,1-1.7,1.7" transform="translate(8.443 1.889)" fill="#8b7a00"/>
      </g>
      <g id="Сгруппировать_321" data-name="Сгруппировать 321" transform="translate(49.058 22.624)">
        <path id="Контур_228" data-name="Контур 228" d="M7.12,1.872v-.81h-13.5A.89.89,0,0,1-7.274.173a.9.9,0,0,1,.889-.891H7.12a.883.883,0,0,1,.888.891.875.875,0,0,1-.888.889v1.62A2.494,2.494,0,0,0,8.9,1.948,2.5,2.5,0,0,0,9.628.173,2.512,2.512,0,0,0,7.12-2.339h-13.5A2.515,2.515,0,0,0-8.894.173a2.512,2.512,0,0,0,2.51,2.51H7.12Z" transform="translate(8.894 2.339)" fill="#8b7a00"/>
      </g>
      <g id="Сгруппировать_322" data-name="Сгруппировать 322" transform="translate(16.117 50.617)">
        <path id="Контур_229" data-name="Контур 229" d="M11.262,1.51H-12.371a1.7,1.7,0,0,1-1.7-1.7,1.7,1.7,0,0,1,1.7-1.7H11.262a1.7,1.7,0,0,1,1.7,1.7,1.7,1.7,0,0,1-1.7,1.7" transform="translate(14.069 1.886)" fill="#8b7a00"/>
      </g>
      <g id="Сгруппировать_323" data-name="Сгруппировать 323" transform="translate(16.117 64.206)">
        <path id="Контур_230" data-name="Контур 230" d="M11.262,1.51H-12.371a1.7,1.7,0,0,1-1.7-1.7,1.7,1.7,0,0,1,1.7-1.7H11.262a1.7,1.7,0,0,1,1.7,1.7,1.7,1.7,0,0,1-1.7,1.7" transform="translate(14.069 1.886)" fill="#8b7a00"/>
      </g>
      <g id="Сгруппировать_324" data-name="Сгруппировать 324" transform="translate(16.117 77.795)">
        <path id="Контур_231" data-name="Контур 231" d="M11.262,1.51H-12.371a1.7,1.7,0,0,1-1.7-1.7,1.7,1.7,0,0,1,1.7-1.7H11.262a1.7,1.7,0,0,1,1.7,1.7,1.7,1.7,0,0,1-1.7,1.7" transform="translate(14.069 1.886)" fill="#8b7a00"/>
      </g>
      <g id="Сгруппировать_325" data-name="Сгруппировать 325" transform="translate(15.305 49.806)">
        <path id="Контур_232" data-name="Контур 232" d="M11.623,1.87V1.06H-12.01A.9.9,0,0,1-12.9.174a.9.9,0,0,1,.889-.889H11.623a.9.9,0,0,1,.888.889.9.9,0,0,1-.888.886V2.68A2.512,2.512,0,0,0,14.131.174a2.512,2.512,0,0,0-2.508-2.51H-12.01A2.513,2.513,0,0,0-14.52.174,2.512,2.512,0,0,0-12.01,2.68H11.623Z" transform="translate(14.52 2.336)" fill="#8b7a00"/>
      </g>
      <g id="Сгруппировать_326" data-name="Сгруппировать 326" transform="translate(15.305 63.395)">
        <path id="Контур_233" data-name="Контур 233" d="M11.623,1.87V1.06H-12.01A.9.9,0,0,1-12.9.174a.9.9,0,0,1,.889-.889H11.623a.9.9,0,0,1,.888.889.9.9,0,0,1-.888.886V2.68A2.512,2.512,0,0,0,14.131.174a2.512,2.512,0,0,0-2.508-2.51H-12.01A2.513,2.513,0,0,0-14.52.174,2.512,2.512,0,0,0-12.01,2.68H11.623Z" transform="translate(14.52 2.336)" fill="#8b7a00"/>
      </g>
      <g id="Сгруппировать_327" data-name="Сгруппировать 327" transform="translate(15.305 76.985)">
        <path id="Контур_234" data-name="Контур 234" d="M11.623,1.87V1.06H-12.01A.9.9,0,0,1-12.9.174a.9.9,0,0,1,.889-.889H11.623a.9.9,0,0,1,.888.889.9.9,0,0,1-.888.886V2.68A2.512,2.512,0,0,0,14.131.174a2.512,2.512,0,0,0-2.508-2.51H-12.01A2.513,2.513,0,0,0-14.52.174,2.512,2.512,0,0,0-12.01,2.68H11.623Z" transform="translate(14.52 2.336)" fill="#8b7a00"/>
      </g>
      <g id="Сгруппировать_328" data-name="Сгруппировать 328" transform="translate(16.117 37.028)">
        <path id="Контур_235" data-name="Контур 235" d="M11.262,1.51H-12.371a1.7,1.7,0,0,1-1.7-1.7,1.694,1.694,0,0,1,1.7-1.7H11.262a1.694,1.694,0,0,1,1.7,1.7,1.7,1.7,0,0,1-1.7,1.7" transform="translate(14.069 1.886)" fill="#8b7a00"/>
      </g>
      <g id="Сгруппировать_329" data-name="Сгруппировать 329" transform="translate(15.305 36.218)">
        <path id="Контур_236" data-name="Контур 236" d="M11.623,1.87V1.06H-12.01A.89.89,0,0,1-12.9.17a.885.885,0,0,1,.889-.886H11.623a.884.884,0,0,1,.888.886.888.888,0,0,1-.888.889V2.68a2.508,2.508,0,1,0,0-5.016H-12.01A2.51,2.51,0,0,0-14.52.17a2.511,2.511,0,0,0,2.51,2.51H11.623Z" transform="translate(14.52 2.336)" fill="#8b7a00"/>
      </g>
      <g id="Сгруппировать_330" data-name="Сгруппировать 330" transform="translate(16.117 23.434)">
        <path id="Контур_237" data-name="Контур 237" d="M11.262,1.512H-12.371a1.7,1.7,0,0,1-1.7-1.7,1.7,1.7,0,0,1,1.7-1.7H11.262a1.7,1.7,0,0,1,1.7,1.7,1.7,1.7,0,0,1-1.7,1.7" transform="translate(14.069 1.889)" fill="#8b7a00"/>
      </g>
      <g id="Сгруппировать_331" data-name="Сгруппировать 331" transform="translate(15.305 22.624)">
        <path id="Контур_238" data-name="Контур 238" d="M11.623,1.872v-.81H-12.01A.89.89,0,0,1-12.9.173a.9.9,0,0,1,.889-.891H11.623a.9.9,0,0,1,.888.891.888.888,0,0,1-.888.889v1.62A2.51,2.51,0,0,0,14.131.173a2.513,2.513,0,0,0-2.508-2.512H-12.01A2.515,2.515,0,0,0-14.52.173a2.512,2.512,0,0,0,2.51,2.51H11.623Z" transform="translate(14.52 2.339)" fill="#8b7a00"/>
      </g>
    </g>
    <g id="Сгруппировать_333" data-name="Сгруппировать 333" transform="translate(54.162 29.664)">
      <path id="Контур_240" data-name="Контур 240" d="M19.5,11.153,13.428-13.19,7.15-13.93l-2.782.385-6.865,2.2-8.441-2.2-1.2-.385-6.14.727-6.075,24.357,11.064-5.731,5.639,9.9L-2.43-5.635,2.795,15.317,8.423,6.443Z" transform="translate(24.357 13.932)" fill="#fff"/>
    </g>
    <g id="Сгруппировать_334" data-name="Сгруппировать 334" transform="translate(51.448 27.832)">
      <path id="Контур_241" data-name="Контур 241" d="M3.264.408-4.077,29.838,8.991,23.071,16,35.369l4.564-18.306,4.494,18.023,7.062-11.134,12.994,5.528-.873-3.509L37.868.423,30.124-.49l-3.162.438L20.446,2.036,12.56-.022,11.4-.393,11.026-.51Zm24.5,3.064,2.4-.333,4.815.567,4.9,19.629-9.157-3.894-4.2,6.617L22.311,9.182H18.816L14.679,25.776l-4.271-7.494-9.06,4.692L6.155,3.691l4.519-.535.832.268.043.013,9,2.346ZM43.2,24.751m0,0-.706,1.656Z" transform="translate(4.077 0.51)" fill="#8b7a00"/>
    </g>
    <g id="Сгруппировать_340" data-name="Сгруппировать 340" transform="translate(0 -79.589)" clip-path="url(#clip-path)">
      <g id="Сгруппировать_335" data-name="Сгруппировать 335" transform="translate(48.983 62.962)">
        <path id="Контур_242" data-name="Контур 242" d="M12.021,24.041A27.039,27.039,0,0,0,39.059-3,27.037,27.037,0,0,0,12.021-30.032,27.035,27.035,0,0,0-15.017-3,27.037,27.037,0,0,0,12.021,24.041" transform="translate(15.017 30.032)" fill="#fff"/>
      </g>
      <g id="Сгруппировать_336" data-name="Сгруппировать 336" transform="translate(47.183 61.161)">
        <path id="Контур_243" data-name="Контур 243" d="M12.822,24.841v1.8A28.838,28.838,0,0,0,41.659-2.2,28.836,28.836,0,0,0,12.822-31.032,28.837,28.837,0,0,0-16.017-2.2,28.839,28.839,0,0,0,12.822,26.642v-3.6A25.146,25.146,0,0,1-5.025,15.65,25.157,25.157,0,0,1-12.416-2.2,25.149,25.149,0,0,1-5.025-20.04a25.147,25.147,0,0,1,17.847-7.391A25.149,25.149,0,0,1,30.666-20.04,25.15,25.15,0,0,1,38.059-2.2,25.159,25.159,0,0,1,30.666,15.65a25.149,25.149,0,0,1-17.845,7.391Z" transform="translate(16.017 31.032)" fill="#8b7a00"/>
      </g>
      <g id="Сгруппировать_337" data-name="Сгруппировать 337" transform="translate(49.87 50.617)">
        <path id="Контур_244" data-name="Контур 244" d="M6.759,1.51h-13.5a1.7,1.7,0,0,1-1.7-1.7,1.694,1.694,0,0,1,1.7-1.7h13.5a1.683,1.683,0,0,1,1.7,1.7,1.686,1.686,0,0,1-1.7,1.7" transform="translate(8.443 1.886)" fill="#8b7a00"/>
      </g>
      <g id="Сгруппировать_338" data-name="Сгруппировать 338" transform="translate(49.058 49.806)">
        <path id="Контур_245" data-name="Контур 245" d="M7.12,1.87V1.06h-13.5A.89.89,0,0,1-7.274.17a.885.885,0,0,1,.889-.886H7.12A.87.87,0,0,1,8.007.17a.873.873,0,0,1-.888.889V2.68A2.5,2.5,0,0,0,8.9,1.946,2.5,2.5,0,0,0,9.628.17,2.5,2.5,0,0,0,8.9-1.6,2.5,2.5,0,0,0,7.12-2.336h-13.5A2.508,2.508,0,0,0-8.894.17a2.511,2.511,0,0,0,2.51,2.51H7.12Z" transform="translate(8.894 2.336)" fill="#8b7a00"/>
      </g>
      <g id="Сгруппировать_339" data-name="Сгруппировать 339" transform="translate(54.113 68.088)">
        <path id="Контур_246" data-name="Контур 246" d="M9.741,19.482A21.909,21.909,0,0,0,31.649-2.427,21.909,21.909,0,0,0,9.741-24.337,21.909,21.909,0,0,0-12.168-2.427,21.909,21.909,0,0,0,9.741,19.482" transform="translate(12.168 24.337)" fill="#8b7a00"/>
      </g>
    </g>
  </g>
</svg>
