<svg xmlns="http://www.w3.org/2000/svg" xmlns:xlink="http://www.w3.org/1999/xlink" width="100px" height="93px" viewBox="0 0 141.07 125.214">
  <defs>
    <clipPath id="clip-path">
      <path id="Контур_205" data-name="Контур 205" d="M0,63.475H141.07V-61.739H0Z" transform="translate(0 61.739)" fill="none"/>
    </clipPath>
  </defs>
  <g id="Сгруппировать_294" data-name="Сгруппировать 294" transform="translate(0 61.739)">
    <g id="Сгруппировать_293" data-name="Сгруппировать 293" transform="translate(0 -61.739)" clip-path="url(#clip-path)">
      <g id="Сгруппировать_289" data-name="Сгруппировать 289" transform="translate(35.223 3.043)">
        <path id="Контур_201" data-name="Контур 201" d="M16.568,34.656a26.542,26.542,0,0,0,5.4,7.709L24.1,43.949l-4.6,6.912a11.79,11.79,0,0,1-5.713,5.026,13.33,13.33,0,0,1-7.628.827l-17.553-3.095a5.513,5.513,0,0,1-3.691-2.34,5.511,5.511,0,0,1-.937-4.267,5.509,5.509,0,0,1,2.34-3.691,5.5,5.5,0,0,1,4.269-.937L8.144,45.478a1.686,1.686,0,0,0,1.846-.88Zm43.294-45.7a10.992,10.992,0,0,1-7.38-4.681,11,11,0,0,1-1.874-8.534,11,11,0,0,1,4.679-7.38,11.009,11.009,0,0,1,8.536-1.874,10.992,10.992,0,0,1,7.38,4.681A11,11,0,0,1,73.078-20.3,11,11,0,0,1,68.4-12.92,11,11,0,0,1,59.863-11.046Zm22.1,38.891a5.715,5.715,0,0,1,2.286,10.3,5.509,5.509,0,0,1-4.267.937L68.791,36.865A12.8,12.8,0,0,1,61.4,32.908a14.055,14.055,0,0,1-3.643-7.4L56.382,14.164a12.064,12.064,0,0,0-.909-3.056L41.35,33.717,52.2,43.353a13.37,13.37,0,0,1,4.249,7.386,12.864,12.864,0,0,1-1,8.39L43.161,82.3a5.829,5.829,0,0,1-6.084,3.03,4.556,4.556,0,0,1-1.365-.481,5.963,5.963,0,0,1-3.036-3.312,5.318,5.318,0,0,1,.3-4.413L44.988,54.148a1.634,1.634,0,0,0-.331-2.231L27.1,36.514A12.167,12.167,0,0,1,22.584,28.6a13.262,13.262,0,0,1,1.981-9.183L36.349.494,32.962-.826a9.294,9.294,0,0,0-8.013.276L12.186,6.13a5.088,5.088,0,0,1-4.44.544A5.616,5.616,0,0,1,4.394,3.79,5.3,5.3,0,0,1,4.063-.491,6.953,6.953,0,0,1,6.732-4l13-6.638a20.222,20.222,0,0,1,8.757-2.44,18.821,18.821,0,0,1,8.991,1.708L54.989-3.941A20.742,20.742,0,0,1,67.728,12.785L69.1,24.13a1.851,1.851,0,0,0,1.667,1.5Z" transform="translate(16.115 33.708)" fill="none" stroke="#8b7a00" stroke-width="4"/>
      </g>
      <g id="Сгруппировать_290" data-name="Сгруппировать 290" transform="translate(3.042 48.043)">
        <path id="Контур_202" data-name="Контур 202" d="M0,0H43.759" fill="none" stroke="#8b7a00" stroke-linecap="round" stroke-width="4"/>
      </g>
      <g id="Сгруппировать_291" data-name="Сгруппировать 291" transform="translate(3.042 58.295)">
        <path id="Контур_203" data-name="Контур 203" d="M0,0H27.534" fill="none" stroke="#8b7a00" stroke-linecap="round" stroke-width="4"/>
      </g>
      <g id="Сгруппировать_292" data-name="Сгруппировать 292" transform="translate(3.042 68.548)">
        <path id="Контур_204" data-name="Контур 204" d="M0,0H43.759" fill="none" stroke="#8b7a00" stroke-linecap="round" stroke-width="4"/>
      </g>
    </g>
  </g>
</svg>
