<svg xmlns="http://www.w3.org/2000/svg" xmlns:xlink="http://www.w3.org/1999/xlink" width="135" height="135" viewBox="0 0 135 135">
  <defs>
    <clipPath id="clip-path">
      <path id="Контур_182" data-name="Контур 182" d="M0-52.514H135v-135H0Z" transform="translate(0 187.514)" fill="#fff"/>
    </clipPath>
  </defs>
  <g id="Сгруппировать_262" data-name="Сгруппировать 262" transform="translate(0 187.514)">
    <g id="Сгруппировать_261" data-name="Сгруппировать 261" transform="translate(0 -187.514)" clip-path="url(#clip-path)">
      <g id="Сгруппировать_260" data-name="Сгруппировать 260" transform="translate(0 0)">
        <path id="Контур_181" data-name="Контур 181" d="M-52.514-26.257V-37.595q-8.7,6.328-25.313,9.228v16.611q11.6-2.109,18.457-6.064t6.855-8.438m0-25.313V-62.907q-6.855,4.746-18.457,7.647a106.516,106.516,0,0,1-23.994,3.428q12.656,6.064,15.82,15.029,12.129-2.109,19.38-6.064t7.251-8.7m0-25.313q0-4.482-6.855-8.437t-18.457-6.2a133.635,133.635,0,0,0-25.313-2.241,133.64,133.64,0,0,0-25.313,2.241q-11.6,2.241-18.457,6.2t-6.855,8.437q0,4.483,6.855,8.438t18.457,6.2a133.579,133.579,0,0,0,25.313,2.241,133.575,133.575,0,0,0,25.313-2.241q11.6-2.241,18.457-6.2t6.855-8.438M-95.922-87.247l-.635,2.57a8.087,8.087,0,0,0-4.778-1.21c-4.657,0-6.622,3.418-7.227,6.774h10.8l-.423,1.754H-108.8a7.1,7.1,0,0,0-.03.786,7.839,7.839,0,0,0,.121,1.451h9.767l-.423,1.755h-9.042c.665,3.054,2.752,6.048,7.015,6.048a7.292,7.292,0,0,0,4.839-1.512v3.054a9.837,9.837,0,0,1-4.748,1.058c-5.08,0-9.163-2.873-10.1-8.648h-2.328l.423-1.755h1.693c-.03-.544-.06-.786-.06-1.361a8.208,8.208,0,0,1,.03-.877H-113.7l.423-1.754h1.814c1.028-6.32,5.292-9.374,10.4-9.374a11.38,11.38,0,0,1,5.141,1.24M-136.889-51.57a104.232,104.232,0,0,0-25.313,2.9q-11.6,2.9-18.457,7.647t-6.855,10.546q0,5.8,6.855,10.547t18.457,7.647a104.268,104.268,0,0,0,25.313,2.9,104.268,104.268,0,0,0,25.313-2.9q11.6-2.9,18.457-7.647t6.855-10.547q0-5.8-6.855-10.546t-18.457-7.647a104.231,104.231,0,0,0-25.313-2.9m2.981,6.3a14.224,14.224,0,0,1,6.426,1.549l-.794,3.213a10.105,10.105,0,0,0-5.972-1.512c-5.821,0-8.279,4.271-9.035,8.467h13.495l-.529,2.192h-13.268a8.962,8.962,0,0,0-.037.983,9.761,9.761,0,0,0,.151,1.814h12.209l-.529,2.192h-11.3c.832,3.818,3.44,7.56,8.77,7.56a9.112,9.112,0,0,0,6.048-1.89v3.818a12.29,12.29,0,0,1-5.935,1.323c-6.351,0-11.454-3.591-12.625-10.811h-2.911l.529-2.192h2.117c-.037-.68-.076-.983-.076-1.7a10.172,10.172,0,0,1,.038-1.1h-2.57l.529-2.192h2.268c1.285-7.9,6.615-11.718,13-11.718m-31.722,40.9Q-179.6-8.063-187.514-14.656V-.944q0,4.483,6.855,8.438t18.457,6.2a133.64,133.64,0,0,0,25.313,2.241,133.639,133.639,0,0,0,25.313-2.241q11.6-2.241,18.457-6.2t6.855-8.438V-14.656q-7.909,6.592-21.884,10.284a116.027,116.027,0,0,1-28.74,3.428,116.027,116.027,0,0,1-28.74-3.428m0,26.1q-13.975-3.164-21.885-8.7V24.368q0,4.482,6.855,8.437T-162.2,39a133.64,133.64,0,0,0,25.313,2.241A133.639,133.639,0,0,0-111.576,39q11.6-2.241,18.457-6.2t6.855-8.437V13.03q-7.909,5.538-21.884,8.7a146.655,146.655,0,0,1-28.74,2.637,146.649,146.649,0,0,1-28.74-2.637" transform="translate(187.514 93.757)" fill="#fff"/>
      </g>
    </g>
  </g>
</svg>
