<svg xmlns="http://www.w3.org/2000/svg" width="560.031" height="346.974" viewBox="0 0 560.031 346.974">
  <path id="Контур_314" data-name="Контур 314" d="M433.7,0a16.529,16.529,0,0,1,17.166,17.166V143.777a25.8,25.8,0,0,1-43.989,18.245l-34.337-34.337L199.053,301.17a36.365,36.365,0,0,1-49.36,0l-78.326-79.4L-55.517,341.608a16.98,16.98,0,0,1-12.342,5.366A16.961,16.961,0,0,1-80.2,341.608L-103.8,318a16.961,16.961,0,0,1-5.366-12.337,16.972,16.972,0,0,1,5.366-12.342L46.688,148.81a36.358,36.358,0,0,1,49.355,0l78.331,79.4,148.8-149.884L288.846,43.994a24.838,24.838,0,0,1-7.514-18.24,24.841,24.841,0,0,1,7.514-18.245A24.826,24.826,0,0,1,307.086,0Z" transform="translate(109.168)" fill="#fff" opacity="0.6"/>
</svg>
