<svg xmlns="http://www.w3.org/2000/svg" width="377.101" height="335.201" viewBox="0 0 377.101 335.201">
  <path id="Контур_316" data-name="Контур 316" d="M170.829,70.725,132.406,36.792V-52.534a10.475,10.475,0,0,0-10.476-10.474h-41.9A10.474,10.474,0,0,0,69.556-52.534v33.828L3.287-77.214c-4.11-3.725-11.948-6.745-17.532-6.745s-13.394,3.02-17.506,6.745l-167.6,147.959a11.963,11.963,0,0,0-3.443,7.79,12.2,12.2,0,0,0,2.679,7.012l14.017,15.575a13.827,13.827,0,0,0,7.856,3.469,14.2,14.2,0,0,0,7-2.69l10.409-9.166V230.291a20.95,20.95,0,0,0,20.95,20.951h251.34a20.952,20.952,0,0,0,20.951-20.951V92.728l10.415,9.166a14.352,14.352,0,0,0,7.018,2.7,13.668,13.668,0,0,0,7.771-3.477l14.019-15.588a14.177,14.177,0,0,0,2.677-7A13.744,13.744,0,0,0,170.829,70.725ZM-14.245,31.267a41.9,41.9,0,0,1,41.9,41.9,41.9,41.9,0,0,1-41.9,41.9,41.9,41.9,0,0,1-41.9-41.9A41.9,41.9,0,0,1-14.245,31.267ZM59.08,209.341H-87.569a10.475,10.475,0,0,1-10.476-10.474,62.851,62.851,0,0,1,62.851-62.851H6.7a62.85,62.85,0,0,1,62.851,62.851A10.475,10.475,0,0,1,59.08,209.341Z" transform="translate(202.795 83.959)" fill="#fff" opacity="0.6"/>
</svg>
