<svg xmlns="http://www.w3.org/2000/svg" xmlns:xlink="http://www.w3.org/1999/xlink" width="135" height="135" viewBox="0 0 135 135">
  <defs>
    <clipPath id="clip-path">
      <path id="Контур_195" data-name="Контур 195" d="M0,76.875H135v-135H0Z" transform="translate(0 58.125)" fill="#fff"/>
    </clipPath>
  </defs>
  <g id="Сгруппировать_281" data-name="Сгруппировать 281" clip-path="url(#clip-path)">
    <g id="Сгруппировать_280" data-name="Сгруппировать 280" transform="translate(0.001)">
      <path id="Контур_194" data-name="Контур 194" d="M38.437,0A65.436,65.436,0,0,1,72.186,9.118,68.2,68.2,0,0,1,96.82,33.749,65.434,65.434,0,0,1,105.936,67.5a65.436,65.436,0,0,1-9.116,33.752,68.2,68.2,0,0,1-24.633,24.631A65.436,65.436,0,0,1,38.437,135a65.436,65.436,0,0,1-33.749-9.118,68.2,68.2,0,0,1-24.633-24.631A65.436,65.436,0,0,1-29.062,67.5a65.434,65.434,0,0,1,9.116-33.749A68.2,68.2,0,0,1,4.687,9.118,65.436,65.436,0,0,1,38.437,0m52.53,41.37A57.964,57.964,0,0,0,76.95,23,55.133,55.133,0,0,0,56.674,11.7Q64.836,22.862,68.649,41.37ZM62.39,67.5A140.532,140.532,0,0,0,61.3,50.079H15.573a139.844,139.844,0,0,0,0,34.841H61.3A140.569,140.569,0,0,0,62.39,67.5M38.437,8.71q-5.717,0-11.7,8.71Q20.473,26.4,17.206,41.37H59.668Q56.4,26.4,50.14,17.419q-5.989-8.71-11.7-8.71M20.2,11.7A55.133,55.133,0,0,0-.076,23,57.964,57.964,0,0,0-14.093,41.37H8.225Q12.036,23.135,20.2,11.7M-20.352,67.5a56.412,56.412,0,0,0,2.72,17.422h24.5A139.474,139.474,0,0,1,5.774,67.636,146.134,146.134,0,0,1,6.864,50.079h-24.5A56.409,56.409,0,0,0-20.352,67.5m6.259,26.131A57.964,57.964,0,0,0-.076,112,55.133,55.133,0,0,0,20.2,123.3Q12.037,112.138,8.225,93.63Zm52.53,32.66q5.717,0,11.7-8.71Q56.4,108.6,59.668,93.63H17.206q3.268,14.967,9.527,23.95,5.989,8.71,11.7,8.71M56.945,123.3A55.481,55.481,0,0,0,76.95,112,57.964,57.964,0,0,0,90.967,93.63H68.649q-3.811,18.235-11.7,29.666M70.01,84.921h24.5a57.151,57.151,0,0,0,0-34.841H70.01A139.474,139.474,0,0,1,71.1,67.364,146.134,146.134,0,0,1,70.01,84.921" transform="translate(29.062)" fill="#fff"/>
    </g>
  </g>
</svg>
