<svg xmlns="http://www.w3.org/2000/svg" xmlns:xlink="http://www.w3.org/1999/xlink" width="100" height="68" viewBox="0 0 136.971 75.566">
  <defs>
    <clipPath id="clip-path">
      <path id="Контур_223" data-name="Контур 223" d="M0,26.263H136.971V-49.3H0Z" transform="translate(0 49.303)" fill="none"/>
    </clipPath>
  </defs>
  <g id="Сгруппировать_316" data-name="Сгруппировать 316" transform="translate(-2 181.303)">
    <g id="Сгруппировать_315" data-name="Сгруппировать 315" transform="translate(2 -181.303)" clip-path="url(#clip-path)">
      <g id="Сгруппировать_313" data-name="Сгруппировать 313" transform="translate(1.532 6.493)">
        <path id="Контур_221" data-name="Контур 221" d="M10.355,5.177a14.9,14.9,0,0,0-14.9-14.9,14.9,14.9,0,0,0-14.9,14.9,14.9,14.9,0,0,0,14.9,14.9A14.9,14.9,0,0,0,10.355,5.177Z" transform="translate(19.439 9.719)" fill="none" stroke="#8b7a00" stroke-width="4"/>
      </g>
      <g id="Сгруппировать_314" data-name="Сгруппировать 314" transform="translate(18.074 1.532)">
        <path id="Контур_222" data-name="Контур 222" d="M38.409,20.385q-.8-.014-1.609-.029L17.86,20.022l-20.349-.36Q.469,16.82,3.427,13.976L11.72,6a6.877,6.877,0,0,0,2-4.82Q13.6.26,13.486-.66a6.909,6.909,0,0,0-1.816-3.13Q4.715-12.685-2.24-21.581q-5.738-7.343-11.478-14.685a6.614,6.614,0,0,0-4.822-2,6.969,6.969,0,0,0-4.972,2.055,6.963,6.963,0,0,0-2,4.82q.12.922.238,1.841c.018.067.046.129.066.195l-8.862,6.027-25.584,17.4Q-62.244-4.17-64.83-2.413A12.653,12.653,0,0,0-70.337,2.66c-1.54,2.668-2.363,6.578-1.26,9.57a27.81,27.81,0,0,0,1.7,3.928,32.149,32.149,0,0,0,3.5,4.693,22.286,22.286,0,0,0,3.2,3.078A50.159,50.159,0,0,0-55.5,29.2a38.827,38.827,0,0,0,7.814,3.226A56.674,56.674,0,0,0-39.577,33.8a66.484,66.484,0,0,0,10.289.389c2.373-.069,4.761-.205,7.121-.5q1.676-.214,3.354-.432l.129-.038h.037q9.47.166,18.939.334,12.656.225,25.311.448l12.663.225a6.924,6.924,0,1,0,.144-13.846ZM-38.33,8.694a27.5,27.5,0,0,1-4.045-1.016c-.544-.254-1.091-.523-1.632-.8A20.866,20.866,0,0,1-47.275,4.43a17.115,17.115,0,0,1-2.236-2.9L-45.59-1.14l25.584-17.4q.883-.6,1.767-1.2Q-13.9-14.187-9.554-8.63-6.009-4.1-2.466.436-8.23,5.977-13.992,11.517q-.892-.678-1.781-1.356a12.6,12.6,0,0,0-6.214-1.692A72.566,72.566,0,0,1-38.33,8.694Z" transform="translate(72.104 38.269)" fill="none" stroke="#8b7a00" stroke-width="4"/>
      </g>
    </g>
  </g>
</svg>
