<svg xmlns="http://www.w3.org/2000/svg" width="451.29" height="413.849" viewBox="0 0 451.29 413.849">
  <path id="Вычитание_1" data-name="Вычитание 1" d="M-1922.355,9915.848c-20.273,0-40.044-.84-58.762-2.5a535.248,535.248,0,0,1-54.061-7.494,364.159,364.159,0,0,1-46.425-11.9c-6.818-2.29-13.292-4.774-19.243-7.385a169.885,169.885,0,0,1-16.6-8.342,109.751,109.751,0,0,1-13.368-8.965,62.046,62.046,0,0,1-9.55-9.259,36.538,36.538,0,0,1-5.73-9.553,26.781,26.781,0,0,1-1.91-9.846v-50.556a177.939,177.939,0,0,0,19.319,11.686,239.665,239.665,0,0,0,22.7,10.361c8.089,3.218,16.863,6.258,26.076,9.038s19.131,5.375,29.456,7.713a589.74,589.74,0,0,0,61.406,8.816c21.255,1.952,43.694,2.941,66.692,2.941s45.435-.989,66.69-2.941a589.74,589.74,0,0,0,61.406-8.816c10.325-2.338,20.235-4.933,29.456-7.713s17.986-5.82,26.076-9.038a239.821,239.821,0,0,0,22.7-10.361,177.888,177.888,0,0,0,19.319-11.686V9840.6a26.782,26.782,0,0,1-1.91,9.846,36.536,36.536,0,0,1-5.73,9.553,62.045,62.045,0,0,1-9.55,9.259,109.81,109.81,0,0,1-13.368,8.965,169.707,169.707,0,0,1-16.6,8.342c-5.95,2.609-12.424,5.095-19.243,7.385a364.143,364.143,0,0,1-46.424,11.9,535.605,535.605,0,0,1-54.063,7.494C-1882.317,9915.008-1902.086,9915.848-1922.355,9915.848Zm0-112.867c-20.274,0-40.044-.841-58.762-2.5a535.561,535.561,0,0,1-54.061-7.5,363.885,363.885,0,0,1-46.425-11.9c-6.819-2.289-13.293-4.774-19.243-7.385a169.885,169.885,0,0,1-16.6-8.341,109.87,109.87,0,0,1-13.368-8.967,62,62,0,0,1-9.55-9.259,36.536,36.536,0,0,1-5.73-9.554,26.772,26.772,0,0,1-1.91-9.845V9666.6a173.205,173.205,0,0,0,19.319,13.888,221.081,221.081,0,0,0,22.7,12.274c8.093,3.8,16.866,7.391,26.076,10.657s19.125,6.309,29.456,9.039c9.944,2.535,20.2,4.783,30.481,6.685s20.891,3.508,31.51,4.774,21.571,2.232,32.539,2.865,22.253.956,33.567.956,22.606-.322,33.566-.956,21.915-1.6,32.538-2.865,21.221-2.873,31.51-4.774,20.537-4.149,30.481-6.685c10.331-2.729,20.241-5.771,29.456-9.039s17.983-6.853,26.076-10.657a221.1,221.1,0,0,0,22.7-12.274,173.262,173.262,0,0,0,19.319-13.888v61.139a26.773,26.773,0,0,1-1.91,9.845,36.519,36.519,0,0,1-5.73,9.554,62.023,62.023,0,0,1-9.55,9.259,109.874,109.874,0,0,1-13.368,8.967,169.845,169.845,0,0,1-16.6,8.341c-5.95,2.61-12.425,5.1-19.243,7.385a364.184,364.184,0,0,1-46.424,11.9,535.456,535.456,0,0,1-54.063,7.5C-1882.316,9802.14-1902.085,9802.98-1922.355,9802.98Zm0-112.869a518.474,518.474,0,0,1-58.762-3.233,422.1,422.1,0,0,1-54.061-9.7,333.089,333.089,0,0,1-46.425-14.987c-6.824-2.829-13.3-5.869-19.242-9.038a168.06,168.06,0,0,1-16.6-10.064,104.36,104.36,0,0,1-13.368-10.879,67.786,67.786,0,0,1-9.55-11.464,48.573,48.573,0,0,1-5.73-12.052,42.713,42.713,0,0,1-1.91-12.64,42.7,42.7,0,0,1,1.91-12.64,48.527,48.527,0,0,1,5.73-12.05,67.693,67.693,0,0,1,9.55-11.46,104.154,104.154,0,0,1,13.368-10.873,167.957,167.957,0,0,1,16.6-10.07c5.94-3.167,12.414-6.209,19.242-9.038a333.715,333.715,0,0,1,46.425-14.994,422.1,422.1,0,0,1,54.061-9.7,518.458,518.458,0,0,1,58.762-3.233,518.441,518.441,0,0,1,58.758,3.233,422.228,422.228,0,0,1,54.063,9.7,333.71,333.71,0,0,1,46.424,14.994c6.828,2.829,13.3,5.87,19.243,9.038a167.8,167.8,0,0,1,16.6,10.07,104.152,104.152,0,0,1,13.368,10.873,67.7,67.7,0,0,1,9.55,11.46,48.545,48.545,0,0,1,5.73,12.05,42.711,42.711,0,0,1,1.91,12.64,42.721,42.721,0,0,1-1.91,12.64,48.557,48.557,0,0,1-5.73,12.052,67.8,67.8,0,0,1-9.55,11.464,104.377,104.377,0,0,1-13.368,10.879,168.125,168.125,0,0,1-16.6,10.064c-5.945,3.169-12.419,6.209-19.243,9.038a333.179,333.179,0,0,1-46.424,14.987,422.228,422.228,0,0,1-54.063,9.7A518.45,518.45,0,0,1-1922.355,9690.111Zm-45.243-84.2a55.5,55.5,0,0,0,5.939,17.878,42.931,42.931,0,0,0,10.553,12.755,43.776,43.776,0,0,0,14.218,7.644,54.918,54.918,0,0,0,16.935,2.546,55.3,55.3,0,0,0,13.124-1.481,38.893,38.893,0,0,0,9.272-3.513v-14.417a37.927,37.927,0,0,1-11.251,5.759,39.675,39.675,0,0,1-11.575,1.373,34.86,34.86,0,0,1-13.212-2.432,29.525,29.525,0,0,1-9.7-6.434c-6.223-6.184-8.972-14.113-10.184-19.678h42.651l2-8.277H-1954.9a36.7,36.7,0,0,1-.57-6.852c0-1.6,0-1.6.059-2.463.018-.263.045-.658.081-1.239h50.074l2-8.278h-50.925a53.326,53.326,0,0,1,3.438-11.678,37.25,37.25,0,0,1,6.438-10.249c6.01-6.666,14.159-10.046,24.221-10.046a48.854,48.854,0,0,1,12.5,1.3,36.8,36.8,0,0,1,10.038,4.4l3-12.128a41.664,41.664,0,0,0-12.072-4.424,59.466,59.466,0,0,0-12.177-1.427c-12.338,0-23.321,3.782-31.761,10.937a46.639,46.639,0,0,0-10.993,13.811,63.079,63.079,0,0,0-6.326,19.5h-8.554l-2,8.278h9.7c-.027.435-.048.766-.065,1.033-.074,1.135-.074,1.135-.074,3.1s.074,3.124.168,4.579v.021c.034.53.073,1.13.111,1.82h-7.984l-2,8.277Z" transform="translate(2148.001 -9501.999)" fill="#fff" opacity="0.601"/>
</svg>
