<svg xmlns="http://www.w3.org/2000/svg" xmlns:xlink="http://www.w3.org/1999/xlink" width="135" height="135" viewBox="0 0 135 135">
  <defs>
    <clipPath id="clip-path">
      <path id="Контур_184" data-name="Контур 184" d="M0-33.082H135v-135H0Z" transform="translate(0 168.082)" fill="#fff"/>
    </clipPath>
  </defs>
  <g id="Сгруппировать_264" data-name="Сгруппировать 264" clip-path="url(#clip-path)">
    <g id="Сгруппировать_263" data-name="Сгруппировать 263" transform="translate(0 -0.004)">
      <path id="Контур_183" data-name="Контур 183" d="M-32.807-7.056a37.1,37.1,0,0,1-.263,19.107,39.02,39.02,0,0,1-9.751,17A38.126,38.126,0,0,1-61.138,39.064a37.731,37.731,0,0,1-20.688-1.055l-56.135,56.135a16.36,16.36,0,0,1-11.991,5.007,16.142,16.142,0,0,1-11.859-4.875,16.143,16.143,0,0,1-4.875-11.86,16.36,16.36,0,0,1,5.007-11.991l56.134-56.4A37.146,37.146,0,0,1-106.6-6.53,36.57,36.57,0,0,1-96.585-24.714a37.159,37.159,0,0,1,16.867-9.751,37.611,37.611,0,0,1,19.239-.263,2.923,2.923,0,0,1,2.24,2.24,3.078,3.078,0,0,1-.923,3.03l-19.5,19.766,2.9,17.921,17.921,2.9,19.766-19.5a3.08,3.08,0,0,1,3.03-.922,2.923,2.923,0,0,1,2.24,2.24M-149.82,88.609a6.1,6.1,0,0,0,4.48-1.844,6.1,6.1,0,0,0,1.845-4.481,6.1,6.1,0,0,0-1.845-4.48,6.1,6.1,0,0,0-4.48-1.845A6.1,6.1,0,0,0-154.3,77.8a6.1,6.1,0,0,0-1.844,4.48,6.1,6.1,0,0,0,1.844,4.481,6.1,6.1,0,0,0,4.481,1.844" transform="translate(166.687 35.852)" fill="#fff"/>
    </g>
  </g>
</svg>
