<svg xmlns="http://www.w3.org/2000/svg" xmlns:xlink="http://www.w3.org/1999/xlink" width="185.74" height="196.906" viewBox="0 0 185.74 196.906">
  <defs>
    <clipPath id="clip-path">
      <path id="Контур_47" data-name="Контур 47" d="M0,134.687H185.74V-62.219H0Z" transform="translate(0 62.219)" fill="none"/>
    </clipPath>
  </defs>
  <g id="Сгруппировать_49" data-name="Сгруппировать 49" clip-path="url(#clip-path)">
    <g id="Сгруппировать_48" data-name="Сгруппировать 48" transform="translate(28.483 22.153)">
      <path id="Контур_46" data-name="Контур 46" d="M44.041,22.007A31.024,31.024,0,0,1,66.831,31.39,31.024,31.024,0,0,1,76.214,54.18a31.024,31.024,0,0,1-9.383,22.789,31.024,31.024,0,0,1-22.789,9.383,31.024,31.024,0,0,1-22.789-9.383A31.024,31.024,0,0,1,11.869,54.18,31.024,31.024,0,0,1,21.252,31.39a31.024,31.024,0,0,1,22.789-9.383m0,53.62a20.6,20.6,0,0,0,15.08-6.367,20.791,20.791,0,0,0,6.367-15.248,20.246,20.246,0,0,0-6.367-15.08,20.884,20.884,0,0,0-15.08-6.2,20.884,20.884,0,0,0-15.08,6.2,20.246,20.246,0,0,0-6.367,15.08,20.791,20.791,0,0,0,6.367,15.248,20.6,20.6,0,0,0,15.08,6.367m58.984,5.364-1.006,1a34.859,34.859,0,0,0-4.19,4.693,22.1,22.1,0,0,0-1.842,5.7l-.335,1.677a20.057,20.057,0,0,1-3.687,6.7l16.086,39.543a5.508,5.508,0,0,1-5.026,7.374l-17.764-.671-12.4,12.735a4.464,4.464,0,0,1-3.687,1.677,4.972,4.972,0,0,1-5.026-3.351L46.722,114.838a7.424,7.424,0,0,0-5.361,0L23.933,158.071a4.972,4.972,0,0,1-5.026,3.351,4.464,4.464,0,0,1-3.687-1.677L2.821,147.01l-17.764.671a5.127,5.127,0,0,1-4.355-2.345,5.1,5.1,0,0,1-.671-5.029l16.086-39.543a20.058,20.058,0,0,1-3.687-6.7L-7.9,92.049a21.549,21.549,0,0,0-1.842-5.361,34.859,34.859,0,0,0-4.19-4.693l-1.006-1a18.22,18.22,0,0,1-4.69-8.38,19.148,19.148,0,0,1,0-10.054l.335-1.339a30.223,30.223,0,0,0,1.339-6.032,25.814,25.814,0,0,0-1.339-5.7l-.335-1.677a18.524,18.524,0,0,1,0-9.887,20.672,20.672,0,0,1,4.69-8.545l1.006-1.006a34.66,34.66,0,0,0,4.19-4.693A21.549,21.549,0,0,0-7.9,18.32l.335-2.01A19.19,19.19,0,0,1-2.543,7.93,19.19,19.19,0,0,1,5.837,2.9l1.674-.335A35.145,35.145,0,0,0,13.043.56a30.607,30.607,0,0,0,4.522-4.022l1.006-1.006a16.965,16.965,0,0,1,8.377-5.026,17.908,17.908,0,0,1,9.719,0l1.677.335a25.893,25.893,0,0,0,5.7,1.339,30.223,30.223,0,0,0,6.032-1.339l1.342-.335a17.908,17.908,0,0,1,9.719,0,16.965,16.965,0,0,1,8.377,5.026l1.006.671A27.493,27.493,0,0,0,75.04.56a35.145,35.145,0,0,0,5.532,2.01l1.674.335A18,18,0,0,1,90.794,7.93a19.927,19.927,0,0,1,4.858,8.38l.335,2.01a18.825,18.825,0,0,0,1.842,5.529,48.351,48.351,0,0,0,4.19,4.526l1.006,1.006a20.672,20.672,0,0,1,4.69,8.545,18.525,18.525,0,0,1,0,9.887l-.335,1.677a25.253,25.253,0,0,0-1.339,5.864,25.321,25.321,0,0,0,1.339,5.864l.335,1.339a19.148,19.148,0,0,1,0,10.054,18.22,18.22,0,0,1-4.69,8.38m-85.8,65.351,11.4-27.818a18.141,18.141,0,0,1-12.067-5.7h-.332a15.321,15.321,0,0,0-3.351-3.184,32.9,32.9,0,0,0-5.029-1.51l-2.681-1L-6.9,136.624l14.409-.671,5.7,6.032q2.008,2.345,4.019,4.358m77.751-9.719L82.917,107.132l-2.681,1a32.9,32.9,0,0,0-5.029,1.51,15.321,15.321,0,0,0-3.351,3.184h-.332a18.141,18.141,0,0,1-12.067,5.7l11.4,27.818,9.719-10.39,4.69.335q3.351,0,9.719.335M85.262,91.381V90.71q2.013-7.372,3.184-9.383a58.339,58.339,0,0,1,6.535-7.709h.335a7.657,7.657,0,0,0,2.013-8.042V65.24q-2.013-7.377-2.013-10.054t2.013-10.054a8.344,8.344,0,0,0-2.013-8.38q-5.7-5.359-6.871-7.538A56.428,56.428,0,0,1,85.262,20V18.991a8.134,8.134,0,0,0-5.7-5.7l-.671-.335q-7.372-1.676-9.383-3.016A69.54,69.54,0,0,1,61.805,2.9,7.214,7.214,0,0,0,54.1.9H53.76Q46.388,2.9,44.041,2.9T34.323.9h-.335A7.009,7.009,0,0,0,26.278,2.9l-.668.671A50,50,0,0,1,18.4,9.943q-2.179,1.339-9.216,3.016l-.671.335a8.134,8.134,0,0,0-5.7,5.7v.671A56.1,56.1,0,0,1-.363,29.213Q-1.535,31.392-6.9,36.751h-.335a8.344,8.344,0,0,0-2.013,8.38Q-7.233,52.5-7.233,55.186T-9.246,65.24v.335a7.657,7.657,0,0,0,2.013,8.042q5.7,5.364,6.871,7.542A56.1,56.1,0,0,1,2.821,90.71v.671a7.434,7.434,0,0,0,5.7,5.7l1.674.671a40.89,40.89,0,0,1,7.374,2.345,24.259,24.259,0,0,1,6.367,5.361,8.017,8.017,0,0,0,4.861,2.348,7.208,7.208,0,0,0,5.193-1.342,20.2,20.2,0,0,1,20.109,0,7.208,7.208,0,0,0,5.193,1.342,8.017,8.017,0,0,0,4.861-2.348,24.259,24.259,0,0,1,6.367-5.361,40.89,40.89,0,0,1,7.374-2.345l1.674-.671a7.434,7.434,0,0,0,5.7-5.7" transform="translate(20.345 10.166)" fill="#fff"/>
    </g>
  </g>
</svg>
