<svg xmlns="http://www.w3.org/2000/svg" xmlns:xlink="http://www.w3.org/1999/xlink" width="501.417" height="499.21" viewBox="0 0 501.417 499.21">
  <defs>
    <clipPath id="clip-path">
      <path id="Контур_265" data-name="Контур 265" d="M385.336,0H0V389.174H385.336Z" fill="#fff"/>
    </clipPath>
  </defs>
  <g id="Сгруппировать_402" data-name="Сгруппировать 402" transform="translate(138.092 499.21) rotate(-111)" opacity="0.6">
    <g id="Сгруппировать_380" data-name="Сгруппировать 380" clip-path="url(#clip-path)">
      <g id="Сгруппировать_379" data-name="Сгруппировать 379" transform="translate(10.843 10.843)">
        <path id="Контур_264" data-name="Контур 264" d="M0,255.691a111.254,111.254,0,0,0,111.8,111.8,111.254,111.254,0,0,0,111.8-111.8,109.792,109.792,0,0,0-5.719-34.936L359.2,79.434a14.7,14.7,0,0,0,4.45-10.8V19.086a14.7,14.7,0,0,0-4.45-10.8,14.7,14.7,0,0,0-10.8-4.45L292.627,0a14.69,14.69,0,0,0-10.8,4.445,14.7,14.7,0,0,0-4.45,10.8V40.655H251.972A15.186,15.186,0,0,0,236.724,55.9V81.309h-23.5a14.5,14.5,0,0,0-11.432,5.079l-53.659,55.567c-6.776-1.268-29.13,1.935-36.329,1.935A111.254,111.254,0,0,0,0,255.691Zm111.8,30.491a30.371,30.371,0,0,1-30.491,30.491,30.491,30.491,0,1,1,0-60.982A30.371,30.371,0,0,1,111.8,286.182Z" fill="#fff"/>
      </g>
    </g>
  </g>
</svg>
