<svg xmlns="http://www.w3.org/2000/svg" xmlns:xlink="http://www.w3.org/1999/xlink" width="146.032" height="135" viewBox="0 0 146.032 135">
  <defs>
    <clipPath id="clip-path">
      <path id="Контур_189" data-name="Контур 189" d="M0,56.95H146.032v-135H0Z" transform="translate(0 78.05)" fill="#fff"/>
    </clipPath>
  </defs>
  <g id="Сгруппировать_272" data-name="Сгруппировать 272" transform="translate(0 78.05)">
    <g id="Сгруппировать_271" data-name="Сгруппировать 271" transform="translate(0 -78.05)" clip-path="url(#clip-path)">
      <g id="Сгруппировать_269" data-name="Сгруппировать 269" transform="translate(67.456 67.456)">
        <path id="Контур_187" data-name="Контур 187" d="M3.078,0H6.322A4.69,4.69,0,0,1,9.767,1.418L72.938,52.333a4.894,4.894,0,0,1,0,6.891l-5.675,6.9a4.9,4.9,0,0,1-6.893,0L-2.8,13.986a4.692,4.692,0,0,1-1.42-3.445V7.3" transform="translate(4.219)" fill="#fff"/>
      </g>
      <g id="Сгруппировать_270" data-name="Сгруппировать 270" transform="translate(-0.001 0)">
        <path id="Контур_188" data-name="Контур 188" d="M29.415,32.407V29.569a43.557,43.557,0,0,1-12.77,7.6,40.752,40.752,0,0,1-14.8,2.736,40.956,40.956,0,0,1-21.181-5.675,42.593,42.593,0,0,1-15.3-15.3A40.941,40.941,0,0,1-40.313-2.254a40.941,40.941,0,0,1,5.677-21.181,42.593,42.593,0,0,1,15.3-15.3A40.956,40.956,0,0,1,1.847-44.414a40.958,40.958,0,0,1,21.183,5.675,42.593,42.593,0,0,1,15.3,15.3A40.941,40.941,0,0,1,44.01-2.254a40.76,40.76,0,0,1-2.738,14.8,43.505,43.505,0,0,1-7.6,12.768H36.51M1.847,30.178a31.724,31.724,0,0,0,16.217-4.359A32.2,32.2,0,0,0,29.922,13.962,31.723,31.723,0,0,0,34.28-2.254a31.723,31.723,0,0,0-4.359-16.216A32.212,32.212,0,0,0,18.065-30.328,31.74,31.74,0,0,0,1.847-34.685a31.727,31.727,0,0,0-16.214,4.357A32.2,32.2,0,0,0-26.225-18.469,31.723,31.723,0,0,0-30.584-2.254a31.723,31.723,0,0,0,4.359,16.216A32.186,32.186,0,0,0-14.366,25.819,31.712,31.712,0,0,0,1.847,30.178" transform="translate(40.313 44.414)" fill="#fff"/>
      </g>
    </g>
  </g>
</svg>
