<svg xmlns="http://www.w3.org/2000/svg" xmlns:xlink="http://www.w3.org/1999/xlink" width="92" height="86" viewBox="0 0 129.773 111.453">
  <defs>
    <clipPath id="clip-path">
      <path id="Контур_207" data-name="Контур 207" d="M0,14.02H78.647V-60H0Z" transform="translate(0 60)" fill="#8b7a00"/>
    </clipPath>
    <clipPath id="clip-path-2">
      <path id="Контур_210" data-name="Контур 210" d="M0,23.275H129.773V-88.178H0Z" transform="translate(0 88.178)" fill="#8b7a00"/>
    </clipPath>
  </defs>
  <g id="Сгруппировать_312" data-name="Сгруппировать 312" transform="translate(-207 -1969)">
    <g id="Сгруппировать_297" data-name="Сгруппировать 297" transform="translate(232.976 1988.297)">
      <g id="Сгруппировать_296" data-name="Сгруппировать 296" transform="translate(0 0)" clip-path="url(#clip-path)">
        <g id="Сгруппировать_295" data-name="Сгруппировать 295" transform="translate(0 0)">
          <path id="Контур_206" data-name="Контур 206" d="M13.966,6.3a13.3,13.3,0,0,1,3.615,4.553,13.126,13.126,0,0,1-.434,12.217,13.706,13.706,0,0,1-4.771,4.915,11.971,11.971,0,0,1-3.47,8.964A11.3,11.3,0,0,1,.087,40.561,11.875,11.875,0,0,1-4.4,45.333a11.878,11.878,0,0,1-6.216,1.735,11.485,11.485,0,0,1-5.566-1.373,13.086,13.086,0,0,1-4.265-3.687,13.061,13.061,0,0,1-4.265,3.687,11.477,11.477,0,0,1-5.565,1.373,11.878,11.878,0,0,1-6.216-1.735,11.875,11.875,0,0,1-4.482-4.772,11.3,11.3,0,0,1-8.82-3.613,11.975,11.975,0,0,1-3.469-8.964,13.706,13.706,0,0,1-4.771-4.915,12.9,12.9,0,0,1-1.736-6.506,12.891,12.891,0,0,1,1.3-5.711A13.3,13.3,0,0,1-54.85,6.3a12.434,12.434,0,0,1,.867-9.831,15.055,15.055,0,0,1,5.059-5.349,10.4,10.4,0,0,1,2.53-7.59A10.31,10.31,0,0,1-39.236-20.3a10.733,10.733,0,0,1,4.048-4.843,10.813,10.813,0,0,1,6.072-1.807A10.407,10.407,0,0,1-24.273-25.8a11.574,11.574,0,0,1,3.831,3.182A11.591,11.591,0,0,1-16.611-25.8a10.4,10.4,0,0,1,4.843-1.156A10.806,10.806,0,0,1-5.7-25.146,10.728,10.728,0,0,1-1.648-20.3a10.313,10.313,0,0,1,7.157,3.831,10.4,10.4,0,0,1,2.529,7.59A15.048,15.048,0,0,1,13.1-3.533,12.439,12.439,0,0,1,13.966,6.3M-22.756-7v-8.964a6.118,6.118,0,0,0-1.879-4.482,6.123,6.123,0,0,0-4.482-1.879A5.529,5.529,0,0,0-33.743-20.3a13.051,13.051,0,0,0-2.024,4.481h-1.879a6.532,6.532,0,0,0-4.7,1.88A6.009,6.009,0,0,0-44.3-9.46,11.916,11.916,0,0,0-43.863-7l.289.867A15.8,15.8,0,0,0-48.633-3.1,7.626,7.626,0,0,0-50.8,2.539a7.115,7.115,0,0,0,.289,2.1,29.361,29.361,0,0,0,1.59,3.542,21.322,21.322,0,0,0-4.192,2.892,8.264,8.264,0,0,0-2.024,5.639A7.446,7.446,0,0,0-52.971,22.2a16.066,16.066,0,0,0,4.916,3.036l-.146.867a10.119,10.119,0,0,0-.433,2.457,6.987,6.987,0,0,0,2.24,5.2,7.344,7.344,0,0,0,5.278,2.168,22.825,22.825,0,0,0,2.313-.289l.867-.144a14.4,14.4,0,0,0,2.6,4.915,6.572,6.572,0,0,0,5.061,2.024,7.27,7.27,0,0,0,5.349-2.169,7.271,7.271,0,0,0,2.168-5.349V2.684a13.417,13.417,0,0,1-5.638,2.747.873.873,0,0,1-.867-.217,1.167,1.167,0,0,1-.434-.94V1.961A1.134,1.134,0,0,1-28.828.8,8.275,8.275,0,0,0-24.49-2.087,7.655,7.655,0,0,0-22.756-7M7.171,25.238A16.066,16.066,0,0,0,12.087,22.2a7.45,7.45,0,0,0,2.168-5.494,8.263,8.263,0,0,0-2.023-5.639A21.3,21.3,0,0,0,8.038,8.177a29.158,29.158,0,0,0,1.59-3.542,7.628,7.628,0,0,0,.29-2.24A7.444,7.444,0,0,0,7.749-3.1,15.808,15.808,0,0,0,2.689-6.135L2.979-7A11.889,11.889,0,0,0,3.412-9.46,6,6,0,0,0,1.46-13.941a6.527,6.527,0,0,0-4.7-1.88h-1.88A13.053,13.053,0,0,0-7.141-20.3a5.532,5.532,0,0,0-4.626-2.024,6.119,6.119,0,0,0-4.482,1.879,6.119,6.119,0,0,0-1.88,4.482V-7a7.656,7.656,0,0,0,1.736,4.915A8.276,8.276,0,0,0-12.057.8a1.133,1.133,0,0,1,.867,1.156V4.274a1.166,1.166,0,0,1-.433.94.874.874,0,0,1-.867.217A13.428,13.428,0,0,1-18.13,2.684v32.24a7.268,7.268,0,0,0,2.169,5.349,7.268,7.268,0,0,0,5.349,2.169,6.572,6.572,0,0,0,5.061-2.024,14.4,14.4,0,0,0,2.6-4.915l.867.144a22.825,22.825,0,0,0,2.313.289,7.344,7.344,0,0,0,5.278-2.168,6.992,6.992,0,0,0,2.24-5.2A10.073,10.073,0,0,0,7.315,26.1a2.013,2.013,0,0,0-.144-.867" transform="translate(59.766 26.953)" fill="#8b7a00"/>
        </g>
      </g>
    </g>
    <g id="Сгруппировать_311" data-name="Сгруппировать 311" transform="translate(207 1969)">
      <g id="Сгруппировать_300" data-name="Сгруппировать 300" transform="translate(0 0)" clip-path="url(#clip-path-2)">
        <g id="Сгруппировать_298" data-name="Сгруппировать 298" transform="translate(92.375 1.896)">
          <path id="Контур_208" data-name="Контур 208" d="M0,2.632,7.278-9.973" transform="translate(0 9.973)" fill="#8b7a00" stroke="#8b7a00" stroke-linecap="round" stroke-width="5"/>
        </g>
        <g id="Сгруппировать_299" data-name="Сгруппировать 299" transform="translate(113.818 42.196)">
          <path id="Контур_209" data-name="Контур 209" d="M0,.787,14.059-2.981" transform="translate(0 2.981)" fill="#8b7a00" stroke="#8b7a00" stroke-linecap="round" stroke-width="5"/>
        </g>
      </g>
      <g id="Сгруппировать_301" data-name="Сгруппировать 301" transform="translate(109.339 80.824)">
        <path id="Контур_211" data-name="Контур 211" d="M0,0,11.151,9.356" fill="#8b7a00" stroke="#8b7a00" stroke-linecap="round" stroke-width="5"/>
      </g>
      <g id="Сгруппировать_304" data-name="Сгруппировать 304" transform="translate(0 0)" clip-path="url(#clip-path-2)">
        <g id="Сгруппировать_302" data-name="Сгруппировать 302" transform="translate(30.12 1.896)">
          <path id="Контур_212" data-name="Контур 212" d="M1.52,2.632-5.758-9.973" transform="translate(5.758 9.973)" fill="#8b7a00" stroke="#8b7a00" stroke-linecap="round" stroke-width="5"/>
        </g>
        <g id="Сгруппировать_303" data-name="Сгруппировать 303" transform="translate(1.896 42.196)">
          <path id="Контур_213" data-name="Контур 213" d="M2.936.787-11.123-2.981" transform="translate(11.123 2.981)" fill="#8b7a00" stroke="#8b7a00" stroke-linecap="round" stroke-width="5"/>
        </g>
      </g>
      <g id="Сгруппировать_305" data-name="Сгруппировать 305" transform="translate(9.283 80.824)">
        <path id="Контур_215" data-name="Контур 215" d="M2.329,0-8.822,9.356" transform="translate(8.822)" fill="#8b7a00" stroke="#8b7a00" stroke-linecap="round" stroke-width="5"/>
      </g>
      <g id="Сгруппировать_306" data-name="Сгруппировать 306" transform="translate(54.847 96.818)">
        <path id="Контур_216" data-name="Контур 216" d="M0,0H21.487" fill="#8b7a00" stroke="#8b7a00" stroke-linecap="round" stroke-width="5"/>
      </g>
      <g id="Сгруппировать_307" data-name="Сгруппировать 307" transform="translate(56.743 102.192)">
        <path id="Контур_217" data-name="Контур 217" d="M0,0H17.7" fill="#8b7a00" stroke="#8b7a00" stroke-linecap="round" stroke-width="5"/>
      </g>
      <g id="Сгруппировать_310" data-name="Сгруппировать 310" transform="translate(0 0)" clip-path="url(#clip-path-2)">
        <g id="Сгруппировать_308" data-name="Сгруппировать 308" transform="translate(58.569 107.566)">
          <path id="Контур_218" data-name="Контур 218" d="M0,0H13.9" fill="#8b7a00" stroke="#8b7a00" stroke-linecap="round" stroke-width="5"/>
        </g>
        <g id="Сгруппировать_309" data-name="Сгруппировать 309" transform="translate(56.673 107.662)">
          <path id="Контур_219" data-name="Контур 219" d="M0,0C0,2.094,3.961,3.792,8.848,3.792S17.7,2.094,17.7,0" fill="#8b7a00"/>
        </g>
      </g>
    </g>
  </g>
</svg>
