<svg xmlns="http://www.w3.org/2000/svg" width="381" height="381.002" viewBox="0 0 381 381.002">
  <g id="Сгруппировать_404" data-name="Сгруппировать 404" opacity="0.6">
    <path id="Контур_263" data-name="Контур 263" d="M-163.516,45.414a104.715,104.715,0,0,0,.743,53.923,110.122,110.122,0,0,0,27.52,47.973,107.6,107.6,0,0,0,51.69,28.264A106.484,106.484,0,0,0-25.177,172.6L133.245,331.019a46.17,46.17,0,0,0,33.842,14.131,46.978,46.978,0,0,0,47.227-47.229,46.169,46.169,0,0,0-14.131-33.84L41.763,104.915A104.831,104.831,0,0,0,44.737,46.9,103.206,103.206,0,0,0,16.473-4.417a104.87,104.87,0,0,0-47.6-27.52,106.145,106.145,0,0,0-54.294-.743q-5.205,1.486-6.322,6.322a8.688,8.688,0,0,0,2.6,8.552L-34.1,37.977l-8.183,50.575-50.575,8.183-55.783-55.04a8.691,8.691,0,0,0-8.552-2.6Q-162.029,40.207-163.516,45.414ZM166.712,315.4a17.769,17.769,0,1,1,12.646-5.2A17.219,17.219,0,0,1,166.712,315.4Z" transform="translate(166.687 35.852)" fill="#fff"/>
  </g>
</svg>
