<svg id="Сгруппировать_577" data-name="Сгруппировать 577" xmlns="http://www.w3.org/2000/svg" width="67.614" height="30.938" viewBox="0 0 67.614 30.938">
  <path id="Контур_28" data-name="Контур 28" d="M87.282,86.269a2.586,2.586,0,0,1,2.636,2.853c0,.157-.036.446-.036.446H85.428a2.05,2.05,0,0,0,2.107,2.071,2.965,2.965,0,0,0,1.818-.686l.482.855a3.732,3.732,0,0,1-2.372.843,3.1,3.1,0,0,1-3.226-3.19A2.986,2.986,0,0,1,87.282,86.269Zm1.433,2.552A1.486,1.486,0,0,0,87.258,87.2a1.79,1.79,0,0,0-1.782,1.625Z" transform="translate(-62.92 -63.973)"/>
  <path id="Контур_29" data-name="Контур 29" d="M108.515,86.269c.9,0,2.384.337,2.384,1.385V88.4h-1.035v-.421c0-.469-.771-.7-1.312-.7a2.011,2.011,0,0,0-2.071,2.167,2.072,2.072,0,0,0,2.143,2.191,3.091,3.091,0,0,0,1.95-.783l.445.855a3.713,3.713,0,0,1-2.444.939,3.191,3.191,0,1,1-.06-6.38Z" transform="translate(-77.302 -63.973)"/>
  <path id="Контур_30" data-name="Контур 30" d="M126.49,84.019h-1.023v-.9h1.047V81.443h1.144v1.674h1.457v.9h-1.457v2.853c0,1.24.843,1.4,1.3,1.4a2.766,2.766,0,0,0,.277-.012v.975a3.3,3.3,0,0,1-.421.024,2.1,2.1,0,0,1-2.324-2.275Z" transform="translate(-91.087 -60.676)"/>
  <path id="Контур_31" data-name="Контур 31" d="M143.268,88.761h.386v-.229a1.157,1.157,0,0,0-1.3-1.3,3.243,3.243,0,0,0-1.746.59l-.469-.83a3.91,3.91,0,0,1,2.311-.722,2.107,2.107,0,0,1,2.371,2.347v2.721a.235.235,0,0,0,.265.265h.614v.9h-1.216c-.542,0-.758-.265-.758-.662v-.084a1.5,1.5,0,0,1,.048-.4h-.024a2.212,2.212,0,0,1-2.01,1.288,1.853,1.853,0,0,1-2.022-1.842C139.717,88.893,142.257,88.761,143.268,88.761Zm-1.276,2.986a1.875,1.875,0,0,0,1.674-1.975v-.253h-.3c-.554,0-2.468.024-2.468,1.192A1.028,1.028,0,0,0,141.992,91.747Z" transform="translate(-100.822 -63.973)"/>
  <path id="Контур_32" data-name="Контур 32" d="M161.713,91.387h.89V87.8a.241.241,0,0,0-.265-.265h-.686V86.391h1.6c.542,0,.818.229.818.746V87.5a2.8,2.8,0,0,1-.024.385h.024a2.113,2.113,0,0,1,1.951-1.577,1.75,1.75,0,0,1,.277.024v1.505a2.716,2.716,0,0,0-.373-.024c-1.24,0-1.794,1.083-1.794,2.239v1.336h.879v1.143h-3.3Z" transform="translate(-115.807 -63.999)"/>
  <path id="Контур_33" data-name="Контур 33" d="M181.58,86.117a2.664,2.664,0,0,1,2.733,2.913c0,.181-.037.517-.037.517h-4.249a1.768,1.768,0,0,0,1.842,1.71,3.1,3.1,0,0,0,1.782-.65l.59,1.084a3.907,3.907,0,0,1-2.48.855,3.146,3.146,0,0,1-3.3-3.214A3.028,3.028,0,0,1,181.58,86.117Zm1.155,2.528a1.237,1.237,0,0,0-1.191-1.348,1.494,1.494,0,0,0-1.481,1.348Z" transform="translate(-127.291 -63.869)"/>
  <path id="Контур_34" data-name="Контур 34" d="M203.035,88.609h.385v-.2c0-.783-.493-1.06-1.131-1.06a3.382,3.382,0,0,0-1.733.59l-.566-1.06a4.173,4.173,0,0,1,2.432-.759,2.222,2.222,0,0,1,2.528,2.42v2.456a.236.236,0,0,0,.265.265h.554V92.4h-1.445c-.566,0-.782-.3-.782-.65v-.072a1.2,1.2,0,0,1,.036-.313h-.024a2.136,2.136,0,0,1-1.938,1.18,1.863,1.863,0,0,1-2.035-1.866C199.58,88.8,202.048,88.609,203.035,88.609ZM202.011,91.4a1.619,1.619,0,0,0,1.421-1.661v-.205h-.253c-.6,0-2.058.1-2.058,1.023A.829.829,0,0,0,202.011,91.4Z" transform="translate(-141.718 -63.869)"/>
  <path id="Контур_35" data-name="Контур 35" d="M220.633,80.119h-.951V78.975h2.468v6.5c0,.554.12.842.625.842.169,0,.289-.012.289-.012v1.228a4.376,4.376,0,0,1-.554.036c-.975,0-1.877-.325-1.877-2Z" transform="translate(-155.451 -58.99)"/>
  <path id="Контур_36" data-name="Контур 36" d="M46.31,31.449c-2.6.5-3.033,2.408-3.682,2.911a1.5,1.5,0,0,1-1.577.192c-1.543-.613-.91-4.019-.772-4.776.735-4.019,2.877-4.174,4.611-6.288,2.024-2.467,1.621-6.1-1.013-7.142a4.652,4.652,0,0,0-6.059,1.813c-.811,1.258-.682,3.967-.682,3.967s.364,4.283-.209,5.764c-.718,1.853-2.042,3.025-4.506,4.034-2.834.956-4.986.684-6.445-.419-.958-.725-2.874-2.514-5.816-1.257-2.34,1.009-3.832,3.367-2.934,5.449a4.535,4.535,0,0,0,5.764,2.515c1.545-.453,2.649-2.088,4.411-3.022,1.941-1.03,3.525.356,1.624,1.663a5.453,5.453,0,1,0,7.506,7.622,2.994,2.994,0,0,1-3.183-3.289V36.9H31.865V35.593h1.516V33.171h1.655v2.422h2.108V36.9H35.037v4.129c0,1.8,1.22,2.022,1.882,2.022.125,0,.226,0,.3-.009a5.326,5.326,0,0,0,.087-2.787s-1.129-4.843,6.858-2.931c2.565.614,3.607.216,4.556-.212C51.964,35.645,50.66,30.619,46.31,31.449Z" transform="translate(-16.96 -15.899)" fill="#b19900"/>
</svg>
