<svg xmlns="http://www.w3.org/2000/svg" width="307.384" height="140.648" viewBox="0 0 307.384 140.648">
  <g id="Сгруппировать_565" data-name="Сгруппировать 565" transform="translate(-123.999 -58)">
    <g id="Сгруппировать_38" data-name="Сгруппировать 38" transform="translate(107.039 42.101)">
      <path id="Контур_28" data-name="Контур 28" d="M98.083,86.269c7.881,0,11.986,5.8,11.986,12.97,0,.712-.164,2.027-.164,2.027H89.655c.328,6.129,4.651,9.413,9.577,9.413a13.479,13.479,0,0,0,8.264-3.12l2.189,3.885A16.968,16.968,0,0,1,98.9,115.275c-8.7,0-14.668-6.293-14.668-14.5C84.236,91.962,90.2,86.269,98.083,86.269Zm6.514,11.6c-.166-4.872-3.12-7.389-6.623-7.389-4.05,0-7.333,2.738-8.1,7.389Z" transform="translate(29.63 30.993)" fill="#fff"/>
      <path id="Контур_29" data-name="Контур 29" d="M119.955,86.269c4.1,0,10.836,1.533,10.836,6.295v3.392h-4.707V94.04c0-2.133-3.5-3.173-5.965-3.173-5.583,0-9.413,3.94-9.413,9.851,0,6.293,4.432,9.961,9.742,9.961a14.054,14.054,0,0,0,8.866-3.558l2.024,3.885a16.881,16.881,0,0,1-11.109,4.269c-7.99,0-14.94-5.528-14.94-14.448A14.24,14.24,0,0,1,119.955,86.269Z" transform="translate(38.903 30.993)" fill="#fff"/>
      <path id="Контур_30" data-name="Контур 30" d="M130.117,93.155h-4.65v-4.1h4.759V81.443h5.2v7.608h6.622v4.1h-6.622v12.971c0,5.638,3.832,6.348,5.91,6.348a12.585,12.585,0,0,0,1.26-.055v4.434a15,15,0,0,1-1.916.109c-3.5,0-10.564-1.093-10.564-10.344Z" transform="translate(47.79 28.868)" fill="#fff"/>
      <path id="Контур_31" data-name="Контур 31" d="M155.86,97.6h1.753v-1.04c0-4.379-2.518-5.91-5.912-5.91a14.743,14.743,0,0,0-7.937,2.681l-2.132-3.775a17.777,17.777,0,0,1,10.508-3.284c7.058,0,10.78,3.666,10.78,10.672V109.31a1.07,1.07,0,0,0,1.2,1.2h2.792v4.105h-5.528c-2.462,0-3.447-1.2-3.447-3.01v-.382a6.817,6.817,0,0,1,.216-1.806h-.109a10.058,10.058,0,0,1-9.137,5.855c-4.6,0-9.194-2.682-9.194-8.373C139.717,98.2,151.262,97.6,155.86,97.6Zm-5.8,13.573c4.707,0,7.608-4.817,7.608-8.977v-1.149H156.3c-2.518,0-11.22.111-11.22,5.419A4.675,4.675,0,0,0,150.058,111.171Z" transform="translate(54.066 30.993)" fill="#fff"/>
      <path id="Контур_32" data-name="Контур 32" d="M161.929,109.4h4.048V93.093a1.094,1.094,0,0,0-1.2-1.2h-3.12v-5.2h7.281c2.462,0,3.719,1.04,3.719,3.394v1.641a12.727,12.727,0,0,1-.109,1.752h.109c1.26-3.994,4.6-7.169,8.867-7.169a7.952,7.952,0,0,1,1.257.109v6.842a12.342,12.342,0,0,0-1.7-.109c-5.636,0-8.154,4.923-8.154,10.178V109.4h4v5.2H161.929Z" transform="translate(63.727 31.01)" fill="#fff"/>
      <path id="Контур_33" data-name="Контур 33" d="M192.636,86.117c8.046,0,12.424,5.857,12.424,13.245,0,.821-.167,2.352-.167,2.352H185.576a8.039,8.039,0,0,0,8.373,7.773,14.112,14.112,0,0,0,8.1-2.956l2.681,4.926a17.763,17.763,0,0,1-11.273,3.885c-9.25,0-14.995-6.678-14.995-14.612C178.462,92.138,184.263,86.117,192.636,86.117Zm5.252,11.493c-.107-3.83-2.462-6.129-5.416-6.129-3.558,0-6.076,2.463-6.731,6.129Z" transform="translate(71.131 30.926)" fill="#fff"/>
      <path id="Контур_34" data-name="Контур 34" d="M215.286,97.446h1.75v-.931c0-3.558-2.241-4.817-5.142-4.817a15.376,15.376,0,0,0-7.881,2.684l-2.574-4.817A18.972,18.972,0,0,1,212.5,86.117c7.5,0,11.492,3.885,11.492,11v11.165a1.072,1.072,0,0,0,1.2,1.2h2.518v5.2h-6.568c-2.571,0-3.556-1.368-3.556-2.956V111.4a5.462,5.462,0,0,1,.163-1.423h-.109a9.712,9.712,0,0,1-8.808,5.363c-4.763,0-9.25-2.79-9.25-8.483C199.58,98.322,210.8,97.446,215.286,97.446Zm-4.653,12.7c3.778,0,6.459-4.05,6.459-7.552v-.932h-1.151c-2.734,0-9.357.439-9.357,4.653A3.767,3.767,0,0,0,210.634,110.143Z" transform="translate(80.432 30.926)" fill="#fff"/>
      <path id="Контур_35" data-name="Контур 35" d="M224.006,84.174h-4.324v-5.2H230.9v29.552c0,2.518.546,3.83,2.843,3.83.768,0,1.314-.055,1.314-.055v5.583a19.9,19.9,0,0,1-2.518.164c-4.431,0-8.535-1.478-8.535-9.085Z" transform="translate(89.285 27.781)" fill="#fff"/>
      <path id="Контур_36" data-name="Контур 36" d="M150.387,86.59c-11.829,2.254-13.791,10.947-16.738,13.235a6.818,6.818,0,0,1-7.169.871c-7.016-2.789-4.137-18.269-3.507-21.712,3.342-18.269,13.081-18.978,20.961-28.585,9.2-11.217,7.368-27.715-4.605-32.47-10.9-4.33-21.068-1.8-27.547,8.244-3.689,5.717-3.1,18.034-3.1,18.034s1.657,19.473-.952,26.2c-3.263,8.422-9.284,13.752-20.487,18.341-12.882,4.344-22.665,3.11-29.3-1.906-4.354-3.3-13.065-11.43-26.441-5.716C20.863,85.715,14.08,96.436,18.161,105.9S32,120.965,44.364,117.336c7.024-2.06,12.045-9.491,20.055-13.74,8.823-4.681,16.025,1.62,7.382,7.562-15.8,10.865-9.863,27.288-8.352,30.7a24.4,24.4,0,0,0,31.956,12.7,24.151,24.151,0,0,0,10.519-8.754c-5.271-.177-14.472-2.246-14.472-14.953V111.368H84.721v-5.939h6.892V94.417h7.525v11.012h9.585v5.939H99.138v18.773c0,8.161,5.544,9.191,8.555,9.191.568,0,1.027-.022,1.344-.042a24.213,24.213,0,0,0,.4-12.669S104.3,104.6,140.612,113.3c11.66,2.793,16.4.984,20.711-.964C176.092,105.664,170.166,82.817,150.387,86.59Z" transform="translate(0 0)" fill="#fff"/>
    </g>
  </g>
</svg>
