<svg xmlns="http://www.w3.org/2000/svg" xmlns:xlink="http://www.w3.org/1999/xlink" width="217.095" height="217.095" viewBox="0 0 217.095 217.095">
  <defs>
    <clipPath id="clip-path">
      <path id="Контур_52" data-name="Контур 52" d="M0-90H217.1V-307.09H0Z" transform="translate(0 307.09)" fill="#b19900"/>
    </clipPath>
  </defs>
  <g id="Сгруппировать_188" data-name="Сгруппировать 188" transform="translate(0 307.09)">
    <g id="Сгруппировать_63" data-name="Сгруппировать 63" transform="translate(0 -307.09)" clip-path="url(#clip-path)">
      <g id="Сгруппировать_62" data-name="Сгруппировать 62" transform="translate(0 0)">
        <path id="Контур_51" data-name="Контур 51" d="M-45-29.887A41.616,41.616,0,0,1-15.536-17.38,40.678,40.678,0,0,1-3.029,11.238a368.438,368.438,0,0,1-5.088,66.14,7.593,7.593,0,0,1-2.119,4.24,5.755,5.755,0,0,1-4.24,1.7l-1.272-.424A6.216,6.216,0,0,1-20.2,80.346a6.862,6.862,0,0,1-1.06-5.088,366.537,366.537,0,0,0,4.664-63.6A26.915,26.915,0,0,0-24.864-8.052,27.4,27.4,0,0,0-45-16.32q-12.72,0-20.563,7.844A25.725,25.725,0,0,0-73.409,10.39a288.155,288.155,0,0,1-5.935,66.139,7.478,7.478,0,0,1-3.18,4.452,6.423,6.423,0,0,1-5.087.848,6.588,6.588,0,0,1-4.24-2.968,6.756,6.756,0,0,1-1.06-4.876,264.5,264.5,0,0,0,5.935-63.172A38.909,38.909,0,0,1-75.316-17.8Q-63.657-29.463-45-29.887m0,36.461a6.825,6.825,0,0,1,4.664,1.908,6.267,6.267,0,0,1,2.12,4.876,327.14,327.14,0,0,1-12.3,94.97l-.424,1.7a7.6,7.6,0,0,1-2.544,3.815,6.2,6.2,0,0,1-3.815,1.272q-4.24,0-5.935-2.968a6.622,6.622,0,0,1-.848-5.511l.424-2.12A309.475,309.475,0,0,0-51.786,13.358a6.825,6.825,0,0,1,1.908-4.664A6.267,6.267,0,0,1-45,6.574M-105.63-38.367a6.827,6.827,0,0,1,4.452-2.544A5.677,5.677,0,0,1-96.3-39.427a7.68,7.68,0,0,1,2.544,4.664,5.425,5.425,0,0,1-1.7,4.876A57.053,57.053,0,0,0-108.174,7.847a250.956,250.956,0,0,1-4.664,52.572,6.191,6.191,0,0,1-2.332,4.027A6.461,6.461,0,0,1-119.2,65.93h-1.272a6,6,0,0,1-4.452-2.756,6.753,6.753,0,0,1-1.06-4.876,249.3,249.3,0,0,0,4.24-50.029,67.493,67.493,0,0,1,3.815-24.8,70.824,70.824,0,0,1,12.3-21.835M63.534,5.3V15.478a6.1,6.1,0,0,1-1.908,4.452,6.785,6.785,0,0,1-11.659-4.876V5.3A76.644,76.644,0,0,0,47.847-12.5a5.836,5.836,0,0,1,.848-5.3,7.409,7.409,0,0,1,4.452-2.968,6.423,6.423,0,0,1,5.087.848,6,6,0,0,1,2.756,4.452A85.359,85.359,0,0,1,63.534,5.3M-46.274-101.962A110.345,110.345,0,0,1,4.39-88.819,113.089,113.089,0,0,1,44.032-54.053,6.015,6.015,0,0,1,45.3-49.178a6.562,6.562,0,0,1-2.756,4.452,6.636,6.636,0,0,1-5.087,1.272,6.375,6.375,0,0,1-4.452-2.968A98.719,98.719,0,0,0-1.757-76.736,98.458,98.458,0,0,0-46.7-88.395a92.688,92.688,0,0,0-36.673,6.572A87.8,87.8,0,0,0-113.9-61.685a92.226,92.226,0,0,0-19.714,29.466,83.947,83.947,0,0,0-6.36,34.553V12.51a5.824,5.824,0,0,1-2.119,4.452,6.825,6.825,0,0,1-4.664,1.908,6.267,6.267,0,0,1-4.876-2.12,6.825,6.825,0,0,1-1.908-4.664V2.335a96.993,96.993,0,0,1,7.419-39.641,105.873,105.873,0,0,1,22.683-33.918A101.881,101.881,0,0,1-88.672-94.33a106.568,106.568,0,0,1,42.4-7.631m.424,36.037A78.529,78.529,0,0,1-7.269-55.114,80.442,80.442,0,0,1,21.137-27.555,73.068,73.068,0,0,1,32.16,9.966a400.258,400.258,0,0,1-2.544,52.149,7.061,7.061,0,0,1-2.332,4.24,6.492,6.492,0,0,1-4.452,1.7h-.848a5.452,5.452,0,0,1-4.664-2.332,6.286,6.286,0,0,1-1.272-4.876A374.8,374.8,0,0,0,18.593,10.39,61.614,61.614,0,0,0,9.478-20.772,64.717,64.717,0,0,0-14.052-43.454a67.231,67.231,0,0,0-32.222-8.9,76.064,76.064,0,0,0-15.687,1.7,5.966,5.966,0,0,1-5.088-.636,6.422,6.422,0,0,1-3.18-4.24,7.038,7.038,0,0,1,.848-5.3A5.855,5.855,0,0,1-64.929-63.8a85.82,85.82,0,0,1,19.079-2.12" transform="translate(153.561 101.983)" fill="#b19900"/>
      </g>
    </g>
  </g>
</svg>
