<svg id="Сгруппировать_272" data-name="Сгруппировать 272" xmlns="http://www.w3.org/2000/svg" xmlns:xlink="http://www.w3.org/1999/xlink" width="66.846" height="61.796" viewBox="0 0 66.846 61.796">
  <defs>
    <clipPath id="clip-path">
      <path id="Контур_189" data-name="Контур 189" d="M0-16.254H66.846v-61.8H0Z" transform="translate(0 78.05)" fill="#8b7a00"/>
    </clipPath>
  </defs>
  <g id="Сгруппировать_271" data-name="Сгруппировать 271" clip-path="url(#clip-path)">
    <g id="Сгруппировать_269" data-name="Сгруппировать 269" transform="translate(30.878 30.878)">
      <path id="Контур_187" data-name="Контур 187" d="M-.879,0H.606A2.147,2.147,0,0,1,2.183.649L31.1,23.955a2.24,2.24,0,0,1,0,3.154l-2.6,3.159a2.241,2.241,0,0,1-3.155,0L-3.569,6.4a2.148,2.148,0,0,1-.65-1.577V3.34" transform="translate(4.219)" fill="#8b7a00"/>
    </g>
    <g id="Сгруппировать_270" data-name="Сгруппировать 270" transform="translate(0 0)">
      <path id="Контур_188" data-name="Контур 188" d="M-8.4-9.249v-1.3a19.938,19.938,0,0,1-5.845,3.48,18.654,18.654,0,0,1-6.773,1.253,18.748,18.748,0,0,1-9.7-2.6,19.5,19.5,0,0,1-7-7.005,18.741,18.741,0,0,1-2.6-9.7,18.741,18.741,0,0,1,2.6-9.7,19.5,19.5,0,0,1,7-7.005,18.748,18.748,0,0,1,9.7-2.6,18.748,18.748,0,0,1,9.7,2.6,19.5,19.5,0,0,1,7,7.005,18.741,18.741,0,0,1,2.6,9.7,18.658,18.658,0,0,1-1.253,6.773A19.914,19.914,0,0,1-6.447-12.5h1.3M-21.014-10.27a14.522,14.522,0,0,0,7.423-2,14.737,14.737,0,0,0,5.427-5.427,14.521,14.521,0,0,0,2-7.423,14.521,14.521,0,0,0-2-7.423,14.745,14.745,0,0,0-5.427-5.428,14.529,14.529,0,0,0-7.423-1.994,14.523,14.523,0,0,0-7.422,1.994,14.741,14.741,0,0,0-5.428,5.428,14.521,14.521,0,0,0-2,7.423,14.521,14.521,0,0,0,2,7.423,14.733,14.733,0,0,0,5.428,5.427,14.516,14.516,0,0,0,7.422,2" transform="translate(40.313 44.414)" fill="#8b7a00"/>
    </g>
  </g>
</svg>
