<svg xmlns="http://www.w3.org/2000/svg" xmlns:xlink="http://www.w3.org/1999/xlink" width="87" height="87" viewBox="0 0 87 87">
  <defs>
    <clipPath id="clip-path">
      <path id="Контур_24" data-name="Контур 24" d="M0,26.25H48v-56H0Z" transform="translate(0 29.75)" fill="#8b7a00"/>
    </clipPath>
  </defs>
  <g id="Сгруппировать_55" data-name="Сгруппировать 55" transform="translate(-428 -7441)">
    <circle id="Эллипс_12" data-name="Эллипс 12" cx="43.5" cy="43.5" r="43.5" transform="translate(428 7441)" fill="#fff"/>
    <g id="Сгруппировать_17" data-name="Сгруппировать 17" transform="translate(203 -24)">
      <g id="Сгруппировать_16" data-name="Сгруппировать 16" transform="translate(245 7510.75)">
        <g id="Сгруппировать_15" data-name="Сгруппировать 15" transform="translate(0 -29.75)" clip-path="url(#clip-path)">
          <g id="Сгруппировать_14" data-name="Сгруппировать 14" transform="translate(0 0.001)">
            <path id="Контур_23" data-name="Контур 23" d="M9.183,10.179l-5-9a4.182,4.182,0,0,0-3-2h-8c-.5,0-.75.626-1,1a.765.765,0,0,0,0,1l6,9h0l-9,15a3.654,3.654,0,0,0,0,2c.209.376.5,0,1,0h8c.832,0,2.333,0,3-1l5-10a53.452,53.452,0,0,0,3-6m28-20a.957.957,0,0,0,0-1c-.209-.376-.5-1-1-1h-9a1.839,1.839,0,0,0-2,1l-18,32,12,21c.582,1,1,2,2,2h8c.5,0,.791-.626,1-1a.813.813,0,0,0,0-1l-11-21Z" transform="translate(10.817 11.82)" fill="#8b7a00"/>
          </g>
        </g>
      </g>
    </g>
  </g>
</svg>
