<svg xmlns="http://www.w3.org/2000/svg" width="312.003" height="166.422" viewBox="0 0 312.003 166.422">
  <g id="Сгруппировать_622" data-name="Сгруппировать 622" transform="translate(-5.256 -4.859)">
    <g id="Сгруппировать_622-2" data-name="Сгруппировать 622" transform="translate(101.64 151.315)">
      <path id="Контур_388" data-name="Контур 388" d="M168.069,270.536V258.093a.429.429,0,0,0-.481-.481H166.1v-1.224h2.077c.941,0,1.312.394,1.312,1.16v.089a4.4,4.4,0,0,1-.065.765h.044a4.024,4.024,0,0,1,3.848-2.274c2.952,0,4.789,2.36,4.789,5.772,0,3.475-2.078,5.749-4.942,5.749a4.024,4.024,0,0,1-3.629-2.185h-.045a6.38,6.38,0,0,1,.067.961v4.112h1.858v1.225h-5.2v-1.225Zm4.942-4.222c1.947,0,3.564-1.616,3.564-4.415,0-2.689-1.442-4.418-3.5-4.418-1.837,0-3.541,1.31-3.541,4.439C169.535,264.129,170.759,266.314,173.011,266.314Z" transform="translate(-166.101 -252.014)" fill="#1d1d1b"/>
      <path id="Контур_389" data-name="Контур 389" d="M189.752,266.264h1.7v-8.071a.428.428,0,0,0-.48-.481H189.49v-1.224h2.076c.919,0,1.334.374,1.334,1.248v.741a7.9,7.9,0,0,1-.044.834h.044a3.791,3.791,0,0,1,3.476-2.933,3.4,3.4,0,0,1,.612.065v1.468a4.236,4.236,0,0,0-.569-.044c-2.47,0-3.477,2.774-3.477,4.963v3.434h1.706v1.225h-4.9Z" transform="translate(-175.474 -252.115)" fill="#1d1d1b"/>
      <path id="Контур_390" data-name="Контур 390" d="M209.952,256.127a5.761,5.761,0,1,1-5.795,5.708A5.694,5.694,0,0,1,209.952,256.127Zm0,10.187a4.338,4.338,0,0,0,4.286-4.479,4.276,4.276,0,1,0-8.551,0A4.335,4.335,0,0,0,209.952,266.314Z" transform="translate(-181.352 -252.014)" fill="#1d1d1b"/>
      <path id="Контур_391" data-name="Контур 391" d="M228.126,270.536V258.093a.429.429,0,0,0-.481-.481h-1.487v-1.224h2.077c.941,0,1.312.394,1.312,1.16v.089a4.364,4.364,0,0,1-.065.765h.044a4.025,4.025,0,0,1,3.849-2.274c2.952,0,4.789,2.36,4.789,5.772,0,3.475-2.078,5.749-4.943,5.749a4.024,4.024,0,0,1-3.629-2.185h-.045a6.436,6.436,0,0,1,.066.961v4.112h1.858v1.225h-5.2v-1.225Zm4.942-4.222c1.946,0,3.564-1.616,3.564-4.415,0-2.689-1.442-4.418-3.5-4.418-1.837,0-3.541,1.31-3.541,4.439C229.592,264.129,230.816,266.314,233.068,266.314Z" transform="translate(-190.17 -252.014)" fill="#1d1d1b"/>
      <path id="Контур_392" data-name="Контур 392" d="M255.261,256.127c3.04,0,4.614,2.339,4.614,5.073a6.212,6.212,0,0,1-.066.7h-8.44a4.2,4.2,0,0,0,4.264,4.415,5.158,5.158,0,0,0,3.346-1.31l.677,1.115a6.234,6.234,0,0,1-4.067,1.53,5.558,5.558,0,0,1-5.751-5.749C249.838,258.291,252.287,256.127,255.261,256.127Zm3.062,4.678c-.087-2.318-1.487-3.433-3.1-3.433a3.771,3.771,0,0,0-3.783,3.433Z" transform="translate(-199.66 -252.014)" fill="#1d1d1b"/>
      <path id="Контур_393" data-name="Контур 393" d="M270.132,266.264h1.7v-8.071a.428.428,0,0,0-.48-.481H269.87v-1.224h2.076c.919,0,1.335.374,1.335,1.248v.741a7.9,7.9,0,0,1-.044.834h.044a3.791,3.791,0,0,1,3.476-2.933,3.4,3.4,0,0,1,.612.065v1.468a4.236,4.236,0,0,0-.569-.044c-2.47,0-3.477,2.774-3.477,4.963v3.434h1.706v1.225h-4.9Z" transform="translate(-207.688 -252.115)" fill="#1d1d1b"/>
      <path id="Контур_394" data-name="Контур 394" d="M285.811,255.754h-1.968v-1.224h1.991V251.49H287.3v3.039h2.777v1.224H287.3V261.4c0,2.58,1.639,2.93,2.493,2.93a2.488,2.488,0,0,0,.5-.045v1.293a4.506,4.506,0,0,1-.635.041c-1.269,0-3.848-.415-3.848-4.089Z" transform="translate(-213.288 -250.156)" fill="#1d1d1b"/>
      <path id="Контур_395" data-name="Контур 395" d="M298.7,270.841a2.455,2.455,0,0,0,2.1-1.749l.614-1.465-3.938-9.841h-1.442v-1.224h4.614v1.224h-1.6l2.888,7.5a4.885,4.885,0,0,1,.174.786h.065a5.111,5.111,0,0,1,.218-.786l2.886-7.5h-1.595v-1.224h4.548v1.224h-1.444l-4.679,11.81a3.652,3.652,0,0,1-3.368,2.559,3.6,3.6,0,0,1-2.078-.659l.568-1.18A2.542,2.542,0,0,0,298.7,270.841Z" transform="translate(-218.172 -252.189)" fill="#1d1d1b"/>
      <path id="Контур_396" data-name="Контур 396" d="M333.6,256.127c1.378,0,4.066.566,4.066,2.384v1.2h-1.377v-.81c0-.984-1.662-1.441-2.667-1.441a4.159,4.159,0,0,0-4.243,4.415,4.215,4.215,0,0,0,4.308,4.439,5.306,5.306,0,0,0,3.609-1.506l.633,1.136a6.232,6.232,0,0,1-4.286,1.7,5.761,5.761,0,1,1-.043-11.521Z" transform="translate(-230.923 -252.014)" fill="#1d1d1b"/>
      <path id="Контур_397" data-name="Контур 397" d="M353.852,256.127a5.761,5.761,0,1,1-5.8,5.708A5.694,5.694,0,0,1,353.852,256.127Zm0,10.187a4.339,4.339,0,0,0,4.286-4.479,4.276,4.276,0,1,0-8.55,0A4.334,4.334,0,0,0,353.852,266.314Z" transform="translate(-239.023 -252.014)" fill="#1d1d1b"/>
      <path id="Контур_398" data-name="Контур 398" d="M370.715,266.163h1.859v-8.07a.428.428,0,0,0-.48-.481h-1.487v-1.224h2.1c.917,0,1.332.394,1.332,1.224v.635a3.687,3.687,0,0,1-.086.789H374a4.866,4.866,0,0,1,4.483-2.909c2.712,0,3.651,1.55,3.651,4.264v5.772h1.859v1.225h-3.346v-6.6c0-1.729-.285-3.259-2.406-3.259a4.366,4.366,0,0,0-4.176,4.569v4.068h1.859v1.225h-5.2Z" transform="translate(-248.06 -252.014)" fill="#1d1d1b"/>
      <path id="Контур_399" data-name="Контур 399" d="M396.292,255.754h-1.967v-1.224h1.989V251.49h1.465v3.039h2.777v1.224h-2.777V261.4c0,2.58,1.639,2.93,2.494,2.93a2.485,2.485,0,0,0,.5-.045v1.293a4.506,4.506,0,0,1-.635.041c-1.267,0-3.848-.415-3.848-4.089Z" transform="translate(-257.565 -250.156)" fill="#1d1d1b"/>
      <path id="Контур_400" data-name="Контур 400" d="M407.9,266.264h1.707v-8.071a.429.429,0,0,0-.482-.481h-1.487v-1.224h2.079c.917,0,1.333.374,1.333,1.248v.741a8.122,8.122,0,0,1-.043.834h.043a3.792,3.792,0,0,1,3.476-2.933,3.42,3.42,0,0,1,.614.065v1.468a4.238,4.238,0,0,0-.569-.044c-2.472,0-3.477,2.774-3.477,4.963v3.434h1.7v1.225h-4.9Z" transform="translate(-262.901 -252.115)" fill="#1d1d1b"/>
      <path id="Контур_401" data-name="Контур 401" d="M428.1,256.127a5.761,5.761,0,1,1-5.793,5.708A5.695,5.695,0,0,1,428.1,256.127Zm0,10.187a4.339,4.339,0,0,0,4.288-4.479,4.277,4.277,0,1,0-8.551,0A4.334,4.334,0,0,0,428.1,266.314Z" transform="translate(-268.78 -252.014)" fill="#1d1d1b"/>
      <path id="Контур_402" data-name="Контур 402" d="M445.453,250.488h-1.947v-1.224h3.434v12.509c0,.9.24,1.639,1.247,1.639a3.428,3.428,0,0,0,.612-.044v1.269a6.235,6.235,0,0,1-.853.065c-1.444,0-2.493-.721-2.493-2.82Z" transform="translate(-277.275 -249.264)" fill="#1d1d1b"/>
      <path id="Контур_403" data-name="Контур 403" d="M455.342,250.488H453.4v-1.224h3.432v12.509c0,.9.242,1.639,1.247,1.639a3.4,3.4,0,0,0,.612-.044v1.269a6.235,6.235,0,0,1-.853.065c-1.444,0-2.493-.721-2.493-2.82Z" transform="translate(-281.239 -249.264)" fill="#1d1d1b"/>
      <path id="Контур_404" data-name="Контур 404" d="M465.071,263.413h1.859v-8.551h-1.967v-1.224h3.454v9.775h1.859v1.225h-5.2Zm1.772-14.149h1.684v1.859h-1.684Z" transform="translate(-285.874 -249.264)" fill="#1d1d1b"/>
      <path id="Контур_405" data-name="Контур 405" d="M476.713,266.163h1.858v-8.07a.428.428,0,0,0-.481-.481H476.6v-1.224h2.1c.917,0,1.334.394,1.334,1.224v.635a3.571,3.571,0,0,1-.089.789h.044a4.864,4.864,0,0,1,4.483-2.909c2.712,0,3.652,1.55,3.652,4.264v5.772h1.859v1.225h-3.346v-6.6c0-1.729-.285-3.259-2.4-3.259a4.366,4.366,0,0,0-4.178,4.569v4.068h1.859v1.225h-5.2Z" transform="translate(-290.539 -252.014)" fill="#1d1d1b"/>
      <path id="Контур_406" data-name="Контур 406" d="M506.194,270.667c2.142,0,3.849-1,3.849-3.478V266.1a5.174,5.174,0,0,1,.065-.789h-.043a3.717,3.717,0,0,1-3.5,2.013c-2.953,0-4.9-2.339-4.9-5.642s1.815-5.553,4.766-5.553a3.835,3.835,0,0,1,3.7,1.945h.044a1.932,1.932,0,0,1-.044-.48c0-.81.327-1.2,1.269-1.2h1.967v1.224H512.01a.422.422,0,0,0-.481.46v9.052c0,3.5-2.579,4.857-5.292,4.857a8.05,8.05,0,0,1-3.585-.874l.568-1.2A6.763,6.763,0,0,0,506.194,270.667Zm3.871-8.987c0-3.214-1.532-4.219-3.478-4.219-2.142,0-3.389,1.575-3.389,4.2,0,2.644,1.422,4.328,3.586,4.328C508.534,265.988,510.065,264.915,510.065,261.68Z" transform="translate(-300.584 -252.014)" fill="#1d1d1b"/>
    </g>
    <g id="Сгруппировать_623" data-name="Сгруппировать 623" transform="translate(5.256 4.859)">
      <path id="Контур_407" data-name="Контур 407" d="M183.458,176.554c8,0,12.166,5.889,12.166,13.165,0,.723-.168,2.058-.168,2.058H174.9c.333,6.222,4.721,9.553,9.721,9.553a13.691,13.691,0,0,0,8.39-3.166l2.221,3.945A17.224,17.224,0,0,1,184.292,206c-8.832,0-14.888-6.39-14.888-14.722C169.4,182.33,175.46,176.554,183.458,176.554Zm6.611,11.779c-.17-4.946-3.168-7.5-6.721-7.5-4.113,0-7.447,2.779-8.222,7.5Z" transform="translate(-71.041 -73.669)" fill="#1d1d1b"/>
      <path id="Контур_408" data-name="Контур 408" d="M235.655,176.554c4.168,0,11,1.557,11,6.39v3.444h-4.778v-1.945c0-2.164-3.554-3.221-6.054-3.221-5.667,0-9.557,4-9.557,10,0,6.387,4.5,10.109,9.889,10.109a14.291,14.291,0,0,0,9-3.609l2.053,3.944A17.151,17.151,0,0,1,235.933,206c-8.111,0-15.164-5.612-15.164-14.663A14.456,14.456,0,0,1,235.655,176.554Z" transform="translate(-91.626 -73.669)" fill="#1d1d1b"/>
      <path id="Контур_409" data-name="Контур 409" d="M274.721,176.668H270V172.5h4.833v-7.721h5.276V172.5h6.723v4.168h-6.723v13.168c0,5.721,3.89,6.441,6,6.441.782,0,1.279-.055,1.279-.055v4.5a14.923,14.923,0,0,1-1.945.113c-3.553,0-10.722-1.112-10.722-10.5Z" transform="translate(-111.356 -68.95)" fill="#1d1d1b"/>
      <path id="Контур_410" data-name="Контур 410" d="M321.155,188.055h1.78V187c0-4.446-2.556-6-6-6a14.964,14.964,0,0,0-8.057,2.72l-2.164-3.831a18.046,18.046,0,0,1,10.666-3.334c7.165,0,10.943,3.721,10.943,10.832v12.558a1.086,1.086,0,0,0,1.221,1.221h2.833v4.167h-5.611c-2.5,0-3.5-1.224-3.5-3.056v-.387a6.889,6.889,0,0,1,.221-1.835h-.111A10.21,10.21,0,0,1,314.1,206c-4.666,0-9.333-2.724-9.333-8.5C304.769,188.665,316.489,188.055,321.155,188.055Zm-5.887,13.775c4.776,0,7.722-4.887,7.722-9.11v-1.166H321.6c-2.555,0-11.388.11-11.388,5.5A4.745,4.745,0,0,0,315.267,201.83Z" transform="translate(-125.29 -73.669)" fill="#1d1d1b"/>
      <path id="Контур_411" data-name="Контур 411" d="M358.571,200.089h4.109V183.536a1.111,1.111,0,0,0-1.223-1.221h-3.168v-5.279h7.392c2.5,0,3.775,1.053,3.775,3.444v1.663a12.926,12.926,0,0,1-.111,1.78h.111c1.279-4.054,4.667-7.279,9-7.279a8.158,8.158,0,0,1,1.278.11V183.7a12.658,12.658,0,0,0-1.722-.11c-5.722,0-8.277,5-8.277,10.331v6.167h4.054v5.279H358.571Z" transform="translate(-146.739 -73.705)" fill="#1d1d1b"/>
      <path id="Контур_412" data-name="Контур 412" d="M413.693,176.181c8.166,0,12.608,5.948,12.608,13.446,0,.834-.168,2.387-.168,2.387H406.527a8.159,8.159,0,0,0,8.5,7.889,14.316,14.316,0,0,0,8.22-3l2.724,5a18.026,18.026,0,0,1-11.442,3.945c-9.39,0-15.221-6.778-15.221-14.835C399.3,182.294,405.193,176.181,413.693,176.181Zm5.33,11.666c-.108-3.886-2.5-6.219-5.5-6.219-3.613,0-6.169,2.5-6.834,6.219Z" transform="translate(-163.177 -73.519)" fill="#1d1d1b"/>
      <path id="Контур_413" data-name="Контур 413" d="M466.773,187.682h1.777v-.947c0-3.608-2.276-4.887-5.22-4.887a15.614,15.614,0,0,0-8,2.724l-2.612-4.888a19.247,19.247,0,0,1,11.222-3.5c7.611,0,11.665,3.945,11.665,11.166v11.336a1.087,1.087,0,0,0,1.223,1.221h2.555v5.279h-6.667c-2.61,0-3.612-1.392-3.612-3v-.333a5.483,5.483,0,0,1,.167-1.444h-.112a9.858,9.858,0,0,1-8.94,5.443c-4.835,0-9.39-2.833-9.39-8.613C450.83,188.571,462.218,187.682,466.773,187.682Zm-4.723,12.887c3.835,0,6.558-4.11,6.558-7.663v-.947h-1.17c-2.775,0-9.5.446-9.5,4.72A3.823,3.823,0,0,0,462.05,200.569Z" transform="translate(-183.826 -73.519)" fill="#1d1d1b"/>
      <path id="Контур_414" data-name="Контур 414" d="M504.266,164.033h-4.389v-5.276h11.389v30c0,2.559.552,3.887,2.885,3.887.781,0,1.334-.052,1.334-.052v5.663a19.565,19.565,0,0,1-2.555.172c-4.5,0-8.664-1.5-8.664-9.227Z" transform="translate(-203.483 -66.536)" fill="#1d1d1b"/>
      <path id="Контур_415" data-name="Контур 415" d="M140.688,76.61c-12.007,2.291-14,11.113-16.988,13.436a6.932,6.932,0,0,1-7.278.884c-7.121-2.833-4.2-18.543-3.561-22.038,3.392-18.546,13.278-19.263,21.277-29.015,9.34-11.388,7.477-28.134-4.675-32.959C118.4,2.524,108.08,5.1,101.5,15.287c-3.744,5.8-3.151,18.3-3.151,18.3s1.683,19.768-.965,26.6c-3.311,8.552-9.422,13.96-20.795,18.619-13.075,4.411-23.005,3.156-29.739-1.935-4.421-3.347-13.26-11.6-26.839-5.8C9.219,75.725,2.333,86.605,6.475,96.213s14.044,15.291,26.6,11.608C40.2,105.728,45.3,98.188,53.429,93.874c8.956-4.754,16.266,1.642,7.493,7.676-16.045,11.028-10.011,27.694-8.478,31.166a24.761,24.761,0,0,0,32.435,12.89,24.512,24.512,0,0,0,10.678-8.884c-5.348-.182-14.687-2.281-14.687-15.179V101.763H74.035V95.736h7V84.558h7.638V95.736H98.4v6.027H88.669V120.82c0,8.283,5.627,9.327,8.684,9.327.574,0,1.041-.021,1.363-.041a24.587,24.587,0,0,0,.4-12.86S93.909,94.9,130.767,103.721c11.834,2.837,16.643,1,21.021-.977C166.779,95.973,160.762,72.786,140.688,76.61Z" transform="translate(-5.256 -4.859)" fill="#b19a10"/>
    </g>
  </g>
</svg>
