<svg id="Сгруппировать_564" data-name="Сгруппировать 564" xmlns="http://www.w3.org/2000/svg" width="409.982" height="197.025" viewBox="0 0 409.982 197.025">
  <text id="Tectareal_Controlling" data-name="Tectareal Controlling" transform="translate(96.982 150.025)" font-size="28" font-family="Montserrat-Regular, Montserrat"><tspan x="0" y="27">Tectareal Controlling</tspan></text>
  <g id="Сгруппировать_556" data-name="Сгруппировать 556">
    <path id="Контур_277" data-name="Контур 277" d="M75.82,63.382c8,0,12.166,5.888,12.166,13.164,0,.724-.167,2.056-.167,2.056H67.266c.334,6.222,4.722,9.555,9.72,9.555a13.679,13.679,0,0,0,8.389-3.168L87.6,88.933a17.225,17.225,0,0,1-10.944,3.89c-8.833,0-14.886-6.389-14.886-14.721C61.768,69.158,67.821,63.382,75.82,63.382Zm6.612,11.776c-.169-4.943-3.166-7.5-6.722-7.5-4.111,0-7.444,2.778-8.22,7.5Z" transform="translate(36.59 39.497)" fill="#1d1d1b"/>
    <path id="Контур_278" data-name="Контур 278" d="M94.18,63.382c4.165,0,11,1.556,11,6.389v3.444H100.4V71.269c0-2.164-3.554-3.219-6.055-3.219-5.667,0-9.555,4-9.555,10,0,6.387,4.5,10.108,9.887,10.108a14.287,14.287,0,0,0,9-3.611l2.053,3.944a17.144,17.144,0,0,1-11.276,4.332c-8.11,0-15.164-5.611-15.164-14.663A14.454,14.454,0,0,1,94.18,63.382Z" transform="translate(49.841 39.497)" fill="#1d1d1b"/>
    <path id="Контур_279" data-name="Контур 279" d="M100.813,71.251h-4.72V67.086h4.831V59.364H106.2v7.722h6.722v4.165H106.2V84.418c0,5.721,3.89,6.441,6,6.441.78,0,1.28-.054,1.28-.054v4.5a15.307,15.307,0,0,1-1.946.111c-3.554,0-10.721-1.112-10.721-10.5Z" transform="translate(62.543 36.459)" fill="#1d1d1b"/>
    <path id="Контур_280" data-name="Контур 280" d="M124.341,74.881h1.779V73.825c0-4.445-2.557-6-6-6a14.969,14.969,0,0,0-8.055,2.718l-2.163-3.83a18.045,18.045,0,0,1,10.663-3.333c7.165,0,10.944,3.719,10.944,10.83V86.77a1.087,1.087,0,0,0,1.222,1.22h2.833v4.167h-5.611c-2.5,0-3.5-1.222-3.5-3.056v-.388a6.908,6.908,0,0,1,.22-1.833h-.111a10.209,10.209,0,0,1-9.276,5.943c-4.666,0-9.33-2.722-9.33-8.5C107.957,75.492,119.674,74.881,124.341,74.881Zm-5.89,13.775c4.778,0,7.723-4.887,7.723-9.109V78.379h-1.389c-2.555,0-11.386.112-11.386,5.5A4.742,4.742,0,0,0,118.451,88.656Z" transform="translate(71.513 39.497)" fill="#1d1d1b"/>
    <path id="Контур_281" data-name="Контур 281" d="M126.5,86.857h4.109V70.3a1.112,1.112,0,0,0-1.224-1.22h-3.166V63.8h7.39c2.5,0,3.776,1.054,3.776,3.444v1.663a13.014,13.014,0,0,1-.111,1.781h.111c1.278-4.057,4.666-7.279,9-7.279a8.1,8.1,0,0,1,1.277.111v6.945a12.572,12.572,0,0,0-1.721-.111c-5.72,0-8.275,5-8.275,10.329v6.169h4.053v5.277H126.5Z" transform="translate(85.32 39.521)" fill="#1d1d1b"/>
    <path id="Контур_282" data-name="Контур 282" d="M154.6,63.255c8.166,0,12.609,5.946,12.609,13.445,0,.832-.167,2.387-.167,2.387H147.437a8.157,8.157,0,0,0,8.5,7.89,14.312,14.312,0,0,0,8.22-3l2.722,5a18.029,18.029,0,0,1-11.443,3.944c-9.388,0-15.22-6.777-15.22-14.832C140.212,69.366,146.1,63.255,154.6,63.255Zm5.331,11.666c-.111-3.886-2.5-6.22-5.5-6.22-3.612,0-6.167,2.5-6.833,6.22Z" transform="translate(95.901 39.401)" fill="#1d1d1b"/>
    <path id="Контур_283" data-name="Контур 283" d="M173.738,74.754h1.775v-.945c0-3.611-2.278-4.889-5.219-4.889a15.6,15.6,0,0,0-8,2.725l-2.613-4.891a19.26,19.26,0,0,1,11.221-3.5c7.611,0,11.666,3.942,11.666,11.165V85.754a1.088,1.088,0,0,0,1.221,1.222h2.555v5.277h-6.666c-2.61,0-3.609-1.391-3.609-3V88.92a5.613,5.613,0,0,1,.163-1.445h-.109a9.857,9.857,0,0,1-8.942,5.444c-4.833,0-9.388-2.833-9.388-8.61C157.794,75.642,169.182,74.754,173.738,74.754Zm-4.724,12.888c3.835,0,6.555-4.109,6.555-7.664v-.947H174.4c-2.776,0-9.5.446-9.5,4.72A3.823,3.823,0,0,0,169.014,87.642Z" transform="translate(109.194 39.401)" fill="#1d1d1b"/>
    <path id="Контур_284" data-name="Контур 284" d="M178.919,62.586h-4.39V57.309h11.388v30c0,2.557.555,3.886,2.887,3.886.778,0,1.333-.053,1.333-.053V96.8a19.783,19.783,0,0,1-2.555.17c-4.5,0-8.663-1.5-8.663-9.225Z" transform="translate(121.848 34.905)" fill="#1d1d1b"/>
    <path id="Контур_285" data-name="Контур 285" d="M141.182,76.545c-12.006,2.29-14,11.113-16.987,13.434a6.928,6.928,0,0,1-7.277.885c-7.123-2.833-4.2-18.544-3.561-22.039,3.393-18.543,13.276-19.259,21.275-29.011,9.341-11.388,7.477-28.133-4.673-32.958C118.9,2.463,108.575,5.035,102,15.224c-3.744,5.8-3.15,18.3-3.15,18.3s1.682,19.765-.966,26.594C94.572,68.671,88.461,74.079,77.09,78.74c-13.074,4.408-23,3.156-29.738-1.937-4.42-3.345-13.258-11.6-26.837-5.8C9.72,75.66,2.836,86.537,6.977,96.146s14.043,15.289,26.594,11.6c7.131-2.09,12.228-9.63,20.357-13.945,8.956-4.752,16.265,1.644,7.493,7.676-16.042,11.026-10.01,27.694-8.478,31.164a24.761,24.761,0,0,0,32.435,12.89,24.514,24.514,0,0,0,10.677-8.884c-5.349-.179-14.688-2.278-14.688-15.176V101.7H74.533V95.667h6.995V84.491h7.637V95.667h9.729V101.7H89.165v19.055c0,8.282,5.628,9.327,8.684,9.327.576,0,1.041-.023,1.364-.042a24.619,24.619,0,0,0,.4-12.86s-5.21-22.344,31.645-13.522c11.834,2.836,16.644,1,21.02-.978C167.272,95.9,161.256,72.718,141.182,76.545Z" transform="translate(-5.758 -4.798)" fill="#b19a10"/>
  </g>
</svg>
