<svg xmlns="http://www.w3.org/2000/svg" width="315.464" height="177.371" viewBox="0 0 315.464 177.371">
  <g id="Сгруппировать_400" data-name="Сгруппировать 400" transform="translate(0 0)">
    <g id="Сгруппировать_398" data-name="Сгруппировать 398" transform="translate(161.23 146.448)">
      <path id="Контур_295" data-name="Контур 295" d="M100.652,114.426V94.94a.671.671,0,0,0-.753-.753H97.57V92.269h3.252c1.473,0,2.056.616,2.056,1.814v.139a6.721,6.721,0,0,1-.1,1.2h.068a6.3,6.3,0,0,1,6.027-3.561c4.624,0,7.5,3.7,7.5,9.04,0,5.446-3.254,9.007-7.739,9.007a6.3,6.3,0,0,1-5.684-3.424h-.068a10.2,10.2,0,0,1,.1,1.5v6.44h2.912v1.918H97.74v-1.918Zm7.739-6.608c3.049,0,5.583-2.536,5.583-6.919,0-4.211-2.26-6.917-5.481-6.917-2.875,0-5.546,2.055-5.546,6.952C102.947,104.393,104.865,107.817,108.391,107.817Z" transform="translate(-97.57 -85.42)" fill="#1d1d1b"/>
      <path id="Контур_296" data-name="Контур 296" d="M110.481,107.473h2.671V94.836a.671.671,0,0,0-.753-.753H110.07V92.165h3.252c1.44,0,2.09.581,2.09,1.953v1.164a12.449,12.449,0,0,1-.068,1.3h.068c.855-2.6,2.773-4.589,5.444-4.589a5.266,5.266,0,0,1,.959.1v2.3a6.685,6.685,0,0,0-.889-.068c-3.87,0-5.446,4.348-5.446,7.772v5.377h2.669v1.918h-7.669Z" transform="translate(-88.119 -85.317)" fill="#1d1d1b"/>
      <path id="Контур_297" data-name="Контур 297" d="M126.48,91.858c4.759,0,7.225,3.665,7.225,7.945a9.639,9.639,0,0,1-.1,1.1H120.383c.1,4.418,3.119,6.919,6.678,6.919a8.062,8.062,0,0,0,5.24-2.056l1.061,1.747a9.762,9.762,0,0,1-6.369,2.4,8.707,8.707,0,0,1-9.007-9.007C117.986,95.249,121.821,91.858,126.48,91.858Zm4.792,7.328c-.137-3.63-2.329-5.377-4.861-5.377a5.906,5.906,0,0,0-5.925,5.377Z" transform="translate(-82.134 -85.42)" fill="#1d1d1b"/>
      <path id="Контур_298" data-name="Контур 298" d="M128.9,107.577h2.912V94.94a.671.671,0,0,0-.755-.753H128.73V92.269h3.289c1.436,0,2.088.616,2.088,1.918v.992a5.678,5.678,0,0,1-.137,1.235h.068a7.484,7.484,0,0,1,6.4-4.555c3.115,0,4.761,1.473,5.238,4.383h.068a7.207,7.207,0,0,1,6.371-4.383c4.144,0,5.684,2.432,5.684,6.678v9.04h2.912v1.918h-5.242V99.118c0-2.808-.581-5.137-3.7-5.137-3.493,0-5.788,3.7-5.788,7.261v6.334h2.91v1.918h-5.238V99.118c0-2.6-.341-5.137-3.632-5.137-3.524,0-5.888,3.733-5.888,7.328v6.267h2.91v1.918H128.9Z" transform="translate(-74.01 -85.42)" fill="#1d1d1b"/>
      <path id="Контур_299" data-name="Контур 299" d="M148.421,110.349h2.912V96.958h-3.084V95.041h5.414v15.308h2.91v1.918h-8.152ZM151.2,88.192h2.638V91.1H151.2Z" transform="translate(-59.252 -88.192)" fill="#1d1d1b"/>
      <path id="Контур_300" data-name="Контур 300" d="M157.006,94.01h-3.082V92.092h5.411v10.375c0,2.706.413,5.1,3.767,5.1,3.87,0,6.336-3.563,6.336-7.3V94.01h-3.082V92.092h5.409V106.68a.673.673,0,0,0,.755.755h1.951v1.883h-2.91c-1.438,0-2.055-.616-2.055-1.918v-.855c0-.687.033-1.233.033-1.233h-.067a7.25,7.25,0,0,1-6.815,4.417c-3.974,0-5.651-2.192-5.651-6.677Z" transform="translate(-54.961 -85.243)" fill="#1d1d1b"/>
      <path id="Контур_301" data-name="Контур 301" d="M167.356,107.577h2.91V94.94a.671.671,0,0,0-.753-.753h-2.329V92.269h3.287c1.44,0,2.09.616,2.09,1.918v.992a5.611,5.611,0,0,1-.139,1.235h.07a7.484,7.484,0,0,1,6.4-4.555c3.117,0,4.761,1.473,5.24,4.383h.07a7.2,7.2,0,0,1,6.368-4.383c4.144,0,5.684,2.432,5.684,6.678v9.04h2.912v1.918h-5.238V99.118c0-2.808-.583-5.137-3.7-5.137-3.491,0-5.786,3.7-5.786,7.261v6.334h2.91v1.918h-5.238V99.118c0-2.6-.342-5.137-3.63-5.137-3.528,0-5.892,3.733-5.892,7.328v6.267h2.912v1.918h-8.15Z" transform="translate(-44.936 -85.42)" fill="#1d1d1b"/>
    </g>
    <g id="Сгруппировать_399" data-name="Сгруппировать 399" transform="translate(0 0)">
      <path id="Контур_302" data-name="Контур 302" d="M75.82,63.382c8,0,12.166,5.888,12.166,13.164,0,.724-.167,2.056-.167,2.056H67.266c.334,6.222,4.722,9.555,9.72,9.555a13.679,13.679,0,0,0,8.389-3.168L87.6,88.933a17.225,17.225,0,0,1-10.944,3.89c-8.833,0-14.886-6.389-14.886-14.721C61.768,69.158,67.821,63.382,75.82,63.382Zm6.612,11.776c-.169-4.943-3.166-7.5-6.722-7.5-4.111,0-7.444,2.778-8.22,7.5Z" transform="translate(36.59 39.497)" fill="#1d1d1b"/>
      <path id="Контур_303" data-name="Контур 303" d="M94.18,63.382c4.165,0,11,1.556,11,6.389v3.444H100.4V71.269c0-2.164-3.554-3.219-6.055-3.219-5.667,0-9.555,4-9.555,10,0,6.387,4.5,10.108,9.887,10.108a14.287,14.287,0,0,0,9-3.611l2.053,3.944a17.144,17.144,0,0,1-11.276,4.332c-8.11,0-15.164-5.611-15.164-14.663A14.454,14.454,0,0,1,94.18,63.382Z" transform="translate(49.841 39.497)" fill="#1d1d1b"/>
      <path id="Контур_304" data-name="Контур 304" d="M100.813,71.251h-4.72V67.086h4.831V59.364H106.2v7.722h6.722v4.165H106.2V84.418c0,5.721,3.89,6.441,6,6.441.78,0,1.28-.054,1.28-.054v4.5a15.307,15.307,0,0,1-1.946.111c-3.554,0-10.721-1.112-10.721-10.5Z" transform="translate(62.543 36.459)" fill="#1d1d1b"/>
      <path id="Контур_305" data-name="Контур 305" d="M124.341,74.881h1.779V73.825c0-4.445-2.557-6-6-6a14.969,14.969,0,0,0-8.055,2.718l-2.163-3.83a18.045,18.045,0,0,1,10.663-3.333c7.165,0,10.944,3.719,10.944,10.83V86.77a1.087,1.087,0,0,0,1.222,1.22h2.833v4.167h-5.611c-2.5,0-3.5-1.222-3.5-3.056v-.388a6.908,6.908,0,0,1,.22-1.833h-.111a10.209,10.209,0,0,1-9.276,5.943c-4.666,0-9.33-2.722-9.33-8.5C107.957,75.492,119.674,74.881,124.341,74.881Zm-5.89,13.775c4.778,0,7.723-4.887,7.723-9.109V78.379h-1.389c-2.555,0-11.386.112-11.386,5.5A4.742,4.742,0,0,0,118.451,88.656Z" transform="translate(71.513 39.497)" fill="#1d1d1b"/>
      <path id="Контур_306" data-name="Контур 306" d="M126.5,86.857h4.109V70.3a1.112,1.112,0,0,0-1.224-1.22h-3.166V63.8h7.39c2.5,0,3.776,1.054,3.776,3.444v1.663a13.014,13.014,0,0,1-.111,1.781h.111c1.278-4.057,4.666-7.279,9-7.279a8.1,8.1,0,0,1,1.277.111v6.945a12.572,12.572,0,0,0-1.721-.111c-5.72,0-8.275,5-8.275,10.329v6.169h4.053v5.277H126.5Z" transform="translate(85.32 39.521)" fill="#1d1d1b"/>
      <path id="Контур_307" data-name="Контур 307" d="M154.6,63.255c8.166,0,12.609,5.946,12.609,13.445,0,.832-.167,2.387-.167,2.387H147.437a8.157,8.157,0,0,0,8.5,7.89,14.312,14.312,0,0,0,8.22-3l2.722,5a18.029,18.029,0,0,1-11.443,3.944c-9.388,0-15.22-6.777-15.22-14.832C140.212,69.366,146.1,63.255,154.6,63.255Zm5.331,11.666c-.111-3.886-2.5-6.22-5.5-6.22-3.612,0-6.167,2.5-6.833,6.22Z" transform="translate(95.901 39.401)" fill="#1d1d1b"/>
      <path id="Контур_308" data-name="Контур 308" d="M173.738,74.754h1.775v-.945c0-3.611-2.278-4.889-5.219-4.889a15.6,15.6,0,0,0-8,2.725l-2.613-4.891a19.26,19.26,0,0,1,11.221-3.5c7.611,0,11.666,3.942,11.666,11.165V85.754a1.088,1.088,0,0,0,1.221,1.222h2.555v5.277h-6.666c-2.61,0-3.609-1.391-3.609-3V88.92a5.613,5.613,0,0,1,.163-1.445h-.109a9.857,9.857,0,0,1-8.942,5.444c-4.833,0-9.388-2.833-9.388-8.61C157.794,75.642,169.182,74.754,173.738,74.754Zm-4.724,12.888c3.835,0,6.555-4.109,6.555-7.664v-.947H174.4c-2.776,0-9.5.446-9.5,4.72A3.823,3.823,0,0,0,169.014,87.642Z" transform="translate(109.194 39.401)" fill="#1d1d1b"/>
      <path id="Контур_309" data-name="Контур 309" d="M178.919,62.586h-4.39V57.309h11.388v30c0,2.557.555,3.886,2.887,3.886.778,0,1.333-.053,1.333-.053V96.8a19.783,19.783,0,0,1-2.555.17c-4.5,0-8.663-1.5-8.663-9.225Z" transform="translate(121.848 34.905)" fill="#1d1d1b"/>
      <path id="Контур_310" data-name="Контур 310" d="M141.182,76.545c-12.006,2.29-14,11.113-16.987,13.434a6.928,6.928,0,0,1-7.277.885c-7.123-2.833-4.2-18.544-3.561-22.039,3.393-18.543,13.276-19.259,21.275-29.011,9.341-11.388,7.477-28.133-4.673-32.958C118.9,2.463,108.575,5.035,102,15.224c-3.744,5.8-3.15,18.3-3.15,18.3s1.682,19.765-.966,26.594C94.572,68.671,88.461,74.079,77.09,78.74c-13.074,4.408-23,3.156-29.738-1.937-4.42-3.345-13.258-11.6-26.837-5.8C9.72,75.66,2.836,86.537,6.977,96.146s14.043,15.289,26.594,11.6c7.131-2.09,12.228-9.63,20.357-13.945,8.956-4.752,16.265,1.644,7.493,7.676-16.042,11.026-10.01,27.694-8.478,31.164a24.761,24.761,0,0,0,32.435,12.89,24.514,24.514,0,0,0,10.677-8.884c-5.349-.179-14.688-2.278-14.688-15.176V101.7H74.533V95.667h6.995V84.491h7.637V95.667h9.729V101.7H89.165v19.055c0,8.282,5.628,9.327,8.684,9.327.576,0,1.041-.023,1.364-.042a24.619,24.619,0,0,0,.4-12.86s-5.21-22.344,31.645-13.522c11.834,2.836,16.644,1,21.02-.978C167.272,95.9,161.256,72.718,141.182,76.545Z" transform="translate(-5.758 -4.798)" fill="#b19a10"/>
    </g>
  </g>
</svg>
