<svg xmlns="http://www.w3.org/2000/svg" width="432" height="256" viewBox="0 0 432 256">
  <g id="Сгруппировать_557" data-name="Сгруппировать 557" transform="translate(-1271 -6213)">
    <text id="Tectareal_Controlling" data-name="Tectareal Controlling" transform="translate(1397 6408)" font-size="28" font-family="Montserrat-Regular, Montserrat"><tspan x="0" y="27">Tectareal Controlling</tspan></text>
    <g id="Сгруппировать_556" data-name="Сгруппировать 556" transform="translate(1271 6213)">
      <path id="Контур_277" data-name="Контур 277" d="M80.117,63.382C90.562,63.382,96,71.071,96,80.571c0,.945-.218,2.685-.218,2.685H68.948c.436,8.124,6.166,12.477,12.692,12.477A17.862,17.862,0,0,0,92.594,91.6l2.9,5.15a22.492,22.492,0,0,1-14.291,5.079c-11.534,0-19.439-8.342-19.439-19.223C61.768,70.924,69.672,63.382,80.117,63.382Zm8.634,15.378c-.22-6.455-4.134-9.792-8.778-9.792-5.368,0-9.72,3.628-10.734,9.792Z" transform="translate(66.668 70.957)" fill="#1d1d1b"/>
      <path id="Контур_278" data-name="Контур 278" d="M98.733,63.382c5.439,0,14.362,2.032,14.362,8.342v4.5h-6.237V73.68c0-2.825-4.641-4.2-7.907-4.2-7.4,0-12.477,5.221-12.477,13.057,0,8.34,5.875,13.2,12.91,13.2,6.24,0,10.445-3.7,11.754-4.715l2.681,5.15a22.387,22.387,0,0,1-14.724,5.657c-10.59,0-19.8-7.326-19.8-19.147C79.294,71.433,87.781,63.382,98.733,63.382Z" transform="translate(89.331 70.957)" fill="#1d1d1b"/>
      <path id="Контур_279" data-name="Контур 279" d="M102.257,74.886H96.093V69.447H102.4V59.364h6.891V69.447h8.778v5.439h-8.778V92.08c0,7.471,5.079,8.411,7.833,8.411,1.018,0,1.672-.071,1.672-.071v5.88a19.99,19.99,0,0,1-2.541.144c-4.641,0-14-1.452-14-13.71Z" transform="translate(111.053 65.762)" fill="#1d1d1b"/>
      <path id="Контур_280" data-name="Контур 280" d="M129.352,78.4h2.323V77.019c0-5.8-3.339-7.833-7.836-7.833a19.547,19.547,0,0,0-10.518,3.55l-2.825-5a23.563,23.563,0,0,1,13.924-4.352c9.356,0,14.291,4.857,14.291,14.142v16.4a1.419,1.419,0,0,0,1.6,1.594H144v5.442h-7.326c-3.263,0-4.568-1.6-4.568-3.99V96.46a9.021,9.021,0,0,1,.287-2.394h-.144a13.331,13.331,0,0,1-12.112,7.76c-6.093,0-12.183-3.554-12.183-11.1C107.957,79.2,123.257,78.4,129.352,78.4Zm-7.691,17.987c6.24,0,10.085-6.382,10.085-11.894V82.965h-1.814c-3.336,0-14.868.147-14.868,7.182A6.192,6.192,0,0,0,121.661,96.384Z" transform="translate(126.395 70.957)" fill="#1d1d1b"/>
      <path id="Контур_281" data-name="Контур 281" d="M126.585,94.026h5.366V72.409a1.451,1.451,0,0,0-1.6-1.594h-4.134V63.924h9.649c3.263,0,4.93,1.376,4.93,4.5v2.172a16.994,16.994,0,0,1-.145,2.325h.145c1.669-5.3,6.093-9.5,11.752-9.5a10.583,10.583,0,0,1,1.667.144v9.069a16.416,16.416,0,0,0-2.247-.144c-7.469,0-10.805,6.526-10.805,13.488v8.056h5.292v6.891H126.585Z" transform="translate(150.008 70.997)" fill="#1d1d1b"/>
      <path id="Контур_282" data-name="Контур 282" d="M159,63.255c10.663,0,16.464,7.764,16.464,17.556,0,1.087-.218,3.116-.218,3.116h-25.6c.578,6.82,5.508,10.3,11.094,10.3a18.688,18.688,0,0,0,10.734-3.919l3.554,6.528a23.542,23.542,0,0,1-14.942,5.15c-12.259,0-19.874-8.849-19.874-19.368C140.212,71.235,147.9,63.255,159,63.255Zm6.962,15.233c-.144-5.075-3.265-8.122-7.18-8.122-4.717,0-8.053,3.263-8.922,8.122Z" transform="translate(168.103 70.793)" fill="#1d1d1b"/>
      <path id="Контур_283" data-name="Контур 283" d="M178.613,78.27h2.318V77.037c0-4.715-2.974-6.384-6.815-6.384-5.517,0-10.445,3.559-10.445,3.559l-3.412-6.386a25.15,25.15,0,0,1,14.653-4.57c9.938,0,15.233,5.148,15.233,14.58v14.8a1.421,1.421,0,0,0,1.594,1.6h3.336v6.891h-8.7c-3.408,0-4.712-1.816-4.712-3.919v-.433a7.331,7.331,0,0,1,.213-1.887h-.142a12.872,12.872,0,0,1-11.676,7.109c-6.311,0-12.259-3.7-12.259-11.243C157.794,79.43,172.665,78.27,178.613,78.27ZM172.445,95.1c5.008,0,8.56-5.366,8.56-10.007V83.856h-1.523c-3.625,0-12.4.582-12.4,6.164A4.992,4.992,0,0,0,172.445,95.1Z" transform="translate(190.839 70.793)" fill="#1d1d1b"/>
      <path id="Контур_284" data-name="Контур 284" d="M180.262,64.2h-5.733V57.309H189.4V96.477c0,3.339.725,5.075,3.77,5.075,1.016,0,1.74-.069,1.74-.069v7.4a25.832,25.832,0,0,1-3.336.222c-5.873,0-11.312-1.961-11.312-12.046Z" transform="translate(212.479 63.104)" fill="#1d1d1b"/>
      <path id="Контур_285" data-name="Контур 285" d="M182.594,98.485c-15.678,2.99-18.278,14.511-22.181,17.542a9.047,9.047,0,0,1-9.5,1.156c-9.3-3.7-5.485-24.215-4.65-28.778,4.43-24.213,17.336-25.148,27.781-37.882,12.2-14.871,9.764-36.735-6.1-43.037-14.447-5.737-27.923-2.378-36.508,10.927-4.889,7.574-4.114,23.9-4.114,23.9s2.2,25.809-1.261,34.727c-4.325,11.163-12.3,18.226-27.153,24.311-17.072,5.756-30.04,4.121-38.831-2.529C54.3,94.454,42.759,83.674,25.029,91.248c-14.1,6.081-23.087,20.285-17.68,32.833s18.338,19.964,34.727,15.153c9.312-2.729,15.967-12.575,26.582-18.209,11.695-6.205,21.239,2.146,9.785,10.023-20.947,14.4-13.071,36.162-11.071,40.693a32.333,32.333,0,0,0,42.353,16.831,32.01,32.01,0,0,0,13.942-11.6c-6.985-.234-19.179-2.974-19.179-19.817V131.327H95.565v-7.872H104.7V108.861h9.973v14.593h12.7v7.872h-12.7v24.882c0,10.814,7.349,12.179,11.339,12.179.752,0,1.36-.03,1.782-.055a32.147,32.147,0,0,0,.525-16.792s-6.8-29.177,41.322-17.657c15.453,3.7,21.734,1.307,27.448-1.277C216.663,123.764,208.807,93.488,182.594,98.485Z" transform="translate(-5.758 -4.798)" fill="#b19a10"/>
    </g>
  </g>
</svg>
