<svg xmlns="http://www.w3.org/2000/svg" width="408.754" height="218.029" viewBox="0 0 408.754 218.029">
  <g id="Сгруппировать_625" data-name="Сгруппировать 625" transform="translate(-5.256 -4.859)">
    <g id="Сгруппировать_622" data-name="Сгруппировать 622" transform="translate(131.529 196.731)">
      <path id="Контур_388" data-name="Контур 388" d="M168.679,275V258.7a.562.562,0,0,0-.63-.63H166.1v-1.6h2.721c1.233,0,1.718.517,1.718,1.519v.116a5.769,5.769,0,0,1-.085,1h.057a5.272,5.272,0,0,1,5.042-2.979c3.868,0,6.274,3.091,6.274,7.562,0,4.553-2.722,7.532-6.475,7.532a5.272,5.272,0,0,1-4.754-2.862h-.059a8.359,8.359,0,0,1,.087,1.258V275h2.434v1.6h-6.817V275Zm6.474-5.531c2.551,0,4.669-2.117,4.669-5.784,0-3.522-1.89-5.787-4.583-5.787-2.406,0-4.64,1.716-4.64,5.815C170.6,266.611,172.2,269.473,175.154,269.473Z" transform="translate(-166.101 -250.739)" fill="#1d1d1b"/>
      <path id="Контур_389" data-name="Контур 389" d="M189.833,269.329h2.233V258.756a.561.561,0,0,0-.629-.63H189.49v-1.6h2.72c1.2,0,1.748.49,1.748,1.635v.971a10.349,10.349,0,0,1-.058,1.092h.058c.716-2.179,2.32-3.842,4.554-3.842a4.451,4.451,0,0,1,.8.085v1.923a5.548,5.548,0,0,0-.745-.058c-3.236,0-4.555,3.635-4.555,6.5v4.5h2.235v1.6h-6.417Z" transform="translate(-171.128 -250.793)" fill="#1d1d1b"/>
      <path id="Контур_390" data-name="Контур 390" d="M211.748,256.127a7.547,7.547,0,1,1-7.592,7.478A7.46,7.46,0,0,1,211.748,256.127Zm0,13.346a5.684,5.684,0,0,0,5.615-5.868,5.6,5.6,0,1,0-11.2,0A5.679,5.679,0,0,0,211.748,269.473Z" transform="translate(-174.281 -250.739)" fill="#1d1d1b"/>
      <path id="Контур_391" data-name="Контур 391" d="M228.736,275V258.7a.562.562,0,0,0-.63-.63h-1.948v-1.6h2.721c1.233,0,1.718.517,1.718,1.519v.116a5.718,5.718,0,0,1-.086,1h.057a5.273,5.273,0,0,1,5.042-2.979c3.868,0,6.274,3.091,6.274,7.562,0,4.553-2.722,7.532-6.475,7.532a5.272,5.272,0,0,1-4.754-2.862H230.6a8.434,8.434,0,0,1,.086,1.258V275h2.434v1.6H226.3V275Zm6.474-5.531c2.55,0,4.669-2.117,4.669-5.784,0-3.522-1.89-5.787-4.583-5.787-2.406,0-4.64,1.716-4.64,5.815C230.656,266.611,232.26,269.473,235.21,269.473Z" transform="translate(-179.01 -250.739)" fill="#1d1d1b"/>
      <path id="Контур_392" data-name="Контур 392" d="M256.943,256.127c3.983,0,6.045,3.065,6.045,6.646a8.137,8.137,0,0,1-.086.916H251.845c.086,3.694,2.606,5.784,5.586,5.784a6.757,6.757,0,0,0,4.384-1.716l.887,1.46a8.167,8.167,0,0,1-5.328,2,7.282,7.282,0,0,1-7.535-7.532C249.838,258.963,253.047,256.127,256.943,256.127Zm4.011,6.129c-.115-3.037-1.949-4.5-4.067-4.5a4.941,4.941,0,0,0-4.956,4.5Z" transform="translate(-184.1 -250.739)" fill="#1d1d1b"/>
      <path id="Контур_393" data-name="Контур 393" d="M270.213,269.329h2.234V258.756a.561.561,0,0,0-.629-.63H269.87v-1.6h2.72c1.2,0,1.748.49,1.748,1.635v.971a10.349,10.349,0,0,1-.058,1.092h.058c.716-2.179,2.32-3.842,4.554-3.842a4.451,4.451,0,0,1,.8.085v1.923a5.548,5.548,0,0,0-.745-.058c-3.236,0-4.555,3.635-4.555,6.5v4.5h2.235v1.6h-6.417Z" transform="translate(-188.405 -250.793)" fill="#1d1d1b"/>
      <path id="Контур_394" data-name="Контур 394" d="M286.422,257.076h-2.579v-1.6h2.608V251.49h1.919v3.982h3.638v1.6H288.37v7.392c0,3.38,2.148,3.838,3.267,3.838a3.256,3.256,0,0,0,.659-.059v1.694a5.908,5.908,0,0,1-.831.054c-1.662,0-5.042-.544-5.042-5.356Z" transform="translate(-191.409 -249.742)" fill="#1d1d1b"/>
      <path id="Контур_395" data-name="Контур 395" d="M299.522,275.269a3.216,3.216,0,0,0,2.75-2.292l.8-1.919-5.159-12.893h-1.89v-1.6h6.044v1.6h-2.092l3.784,9.828a6.4,6.4,0,0,1,.229,1.029h.086a6.7,6.7,0,0,1,.286-1.029l3.781-9.828h-2.089v-1.6h5.959v1.6h-1.892l-6.13,15.472a4.785,4.785,0,0,1-4.412,3.352,4.712,4.712,0,0,1-2.722-.863l.744-1.546A3.33,3.33,0,0,0,299.522,275.269Z" transform="translate(-194.028 -250.833)" fill="#1d1d1b"/>
      <path id="Контур_396" data-name="Контур 396" d="M335.379,256.127c1.8,0,5.327.741,5.327,3.123v1.573h-1.8v-1.061c0-1.289-2.178-1.887-3.494-1.887a5.448,5.448,0,0,0-5.558,5.784,5.522,5.522,0,0,0,5.644,5.815,6.952,6.952,0,0,0,4.728-1.973l.829,1.488a8.165,8.165,0,0,1-5.615,2.233,7.547,7.547,0,1,1-.057-15.094Z" transform="translate(-200.867 -250.739)" fill="#1d1d1b"/>
      <path id="Контур_397" data-name="Контур 397" d="M355.649,256.127a7.547,7.547,0,1,1-7.592,7.478A7.459,7.459,0,0,1,355.649,256.127Zm0,13.346a5.684,5.684,0,0,0,5.616-5.868,5.6,5.6,0,1,0-11.2,0A5.678,5.678,0,0,0,355.649,269.473Z" transform="translate(-205.211 -250.739)" fill="#1d1d1b"/>
      <path id="Контур_398" data-name="Контур 398" d="M370.749,269.275h2.435V258.7a.561.561,0,0,0-.629-.63h-1.948v-1.6h2.751c1.2,0,1.745.517,1.745,1.6v.831a4.832,4.832,0,0,1-.112,1.034h.057a6.374,6.374,0,0,1,5.873-3.811c3.552,0,4.783,2.031,4.783,5.586v7.563h2.436v1.6h-4.384v-8.651c0-2.265-.373-4.269-3.152-4.269a5.72,5.72,0,0,0-5.471,5.986v5.329h2.435v1.6h-6.819Z" transform="translate(-210.058 -250.739)" fill="#1d1d1b"/>
      <path id="Контур_399" data-name="Контур 399" d="M396.9,257.076h-2.577v-1.6h2.606V251.49h1.919v3.982h3.638v1.6H398.85v7.392c0,3.38,2.148,3.838,3.267,3.838a3.253,3.253,0,0,0,.658-.059v1.694a5.908,5.908,0,0,1-.831.054c-1.66,0-5.042-.544-5.042-5.356Z" transform="translate(-215.156 -249.742)" fill="#1d1d1b"/>
      <path id="Контур_400" data-name="Контур 400" d="M407.983,269.329h2.236V258.756a.562.562,0,0,0-.631-.63h-1.949v-1.6h2.723c1.2,0,1.746.49,1.746,1.635v.971a10.642,10.642,0,0,1-.056,1.092h.056c.717-2.179,2.321-3.842,4.554-3.842a4.482,4.482,0,0,1,.8.085v1.923a5.551,5.551,0,0,0-.746-.058c-3.238,0-4.555,3.635-4.555,6.5v4.5H414.4v1.6h-6.417Z" transform="translate(-218.018 -250.793)" fill="#1d1d1b"/>
      <path id="Контур_401" data-name="Контур 401" d="M429.9,256.127a7.547,7.547,0,1,1-7.59,7.478A7.46,7.46,0,0,1,429.9,256.127Zm0,13.346a5.684,5.684,0,0,0,5.617-5.868,5.6,5.6,0,1,0-11.2,0A5.678,5.678,0,0,0,429.9,269.473Z" transform="translate(-221.171 -250.739)" fill="#1d1d1b"/>
      <path id="Контур_402" data-name="Контур 402" d="M446.057,250.868h-2.551v-1.6H448v16.388c0,1.173.315,2.148,1.634,2.148a4.491,4.491,0,0,0,.8-.058V269.4a8.167,8.167,0,0,1-1.117.086c-1.892,0-3.267-.944-3.267-3.694Z" transform="translate(-225.727 -249.264)" fill="#1d1d1b"/>
      <path id="Контур_403" data-name="Контур 403" d="M455.945,250.868H453.4v-1.6h4.5v16.388c0,1.173.317,2.148,1.634,2.148a4.459,4.459,0,0,0,.8-.058V269.4a8.168,8.168,0,0,1-1.117.086c-1.891,0-3.267-.944-3.267-3.694Z" transform="translate(-227.853 -249.264)" fill="#1d1d1b"/>
      <path id="Контур_404" data-name="Контур 404" d="M465.1,267.8h2.436V256.6h-2.577v-1.6h4.525V267.8h2.435v1.6H465.1Zm2.321-18.536h2.206V251.7h-2.206Z" transform="translate(-230.339 -249.264)" fill="#1d1d1b"/>
      <path id="Контур_405" data-name="Контур 405" d="M476.747,269.275h2.434V258.7a.561.561,0,0,0-.63-.63H476.6v-1.6h2.75c1.2,0,1.748.517,1.748,1.6v.831a4.677,4.677,0,0,1-.116,1.034h.058a6.372,6.372,0,0,1,5.873-3.811c3.552,0,4.784,2.031,4.784,5.586v7.563h2.435v1.6h-4.384v-8.651c0-2.265-.373-4.269-3.15-4.269a5.72,5.72,0,0,0-5.473,5.986v5.329h2.435v1.6h-6.817Z" transform="translate(-232.841 -250.739)" fill="#1d1d1b"/>
      <path id="Контур_406" data-name="Контур 406" d="M507.6,275.176c2.807,0,5.042-1.317,5.042-4.556V269.19a6.778,6.778,0,0,1,.086-1.034h-.057a4.869,4.869,0,0,1-4.584,2.638c-3.869,0-6.417-3.065-6.417-7.392s2.377-7.275,6.244-7.275c2.033,0,4.069.773,4.842,2.547h.058a2.532,2.532,0,0,1-.058-.629c0-1.061.429-1.577,1.663-1.577h2.577v1.6h-1.777a.553.553,0,0,0-.63.6v11.859c0,4.584-3.379,6.363-6.934,6.363a10.547,10.547,0,0,1-4.7-1.145l.744-1.577A8.86,8.86,0,0,0,507.6,275.176Zm5.071-11.773c0-4.21-2.007-5.528-4.556-5.528-2.807,0-4.44,2.063-4.44,5.5,0,3.464,1.863,5.67,4.7,5.67C510.662,269.046,512.669,267.64,512.669,263.4Z" transform="translate(-238.228 -250.739)" fill="#1d1d1b"/>
    </g>
    <g id="Сгруппировать_623" data-name="Сгруппировать 623" transform="translate(5.256 4.859)">
      <path id="Контур_407" data-name="Контур 407" d="M187.817,176.554c10.48,0,15.939,7.716,15.939,17.247,0,.948-.22,2.7-.22,2.7H176.609c.436,8.151,6.185,12.515,12.735,12.515a17.936,17.936,0,0,0,10.992-4.148l2.909,5.168a22.566,22.566,0,0,1-14.337,5.1c-11.571,0-19.5-8.372-19.5-19.287C169.4,184.121,177.338,176.554,187.817,176.554Zm8.662,15.431c-.222-6.48-4.15-9.828-8.805-9.828-5.388,0-9.756,3.64-10.772,9.828Z" transform="translate(-40.538 -41.764)" fill="#1d1d1b"/>
      <path id="Контур_408" data-name="Контур 408" d="M240.271,176.554c5.46,0,14.411,2.04,14.411,8.372v4.512h-6.259v-2.548c0-2.836-4.656-4.22-7.931-4.22-7.424,0-12.52,5.239-12.52,13.1,0,8.367,5.9,13.243,12.956,13.243,6.259,0,10.479-3.713,11.792-4.728l2.69,5.167a22.47,22.47,0,0,1-14.773,5.676c-10.626,0-19.867-7.352-19.867-19.21C220.769,184.633,229.284,176.554,240.271,176.554Z" transform="translate(-51.579 -41.764)" fill="#1d1d1b"/>
      <path id="Контур_409" data-name="Контур 409" d="M276.185,180.355H270v-5.46h6.332V164.779h6.912v10.115h8.807v5.46h-8.807v17.252c0,7.495,5.1,8.439,7.859,8.439,1.024,0,1.676-.071,1.676-.071v5.9a19.549,19.549,0,0,1-2.547.148c-4.655,0-14.047-1.456-14.047-13.76Z" transform="translate(-62.161 -39.233)" fill="#1d1d1b"/>
      <path id="Контур_410" data-name="Контур 410" d="M326.236,191.621h2.332v-1.383c0-5.824-3.348-7.86-7.859-7.86a19.6,19.6,0,0,0-10.556,3.563l-2.836-5.02a23.642,23.642,0,0,1,13.973-4.367c9.387,0,14.337,4.875,14.337,14.191V207.2a1.423,1.423,0,0,0,1.6,1.6h3.712v5.459h-7.351c-3.272,0-4.584-1.6-4.584-4v-.507a9.025,9.025,0,0,1,.29-2.4h-.146A13.377,13.377,0,0,1,317,215.128c-6.113,0-12.227-3.568-12.227-11.135C304.769,192.421,320.124,191.621,326.236,191.621Zm-7.713,18.047c6.257,0,10.117-6.4,10.117-11.935V196.2h-1.82c-3.347,0-14.919.144-14.919,7.2A6.216,6.216,0,0,0,318.522,209.668Z" transform="translate(-69.634 -41.764)" fill="#1d1d1b"/>
      <path id="Контур_411" data-name="Контур 411" d="M358.658,207.36h5.383V185.673a1.456,1.456,0,0,0-1.6-1.6h-4.15v-6.916h9.684c3.272,0,4.946,1.379,4.946,4.512v2.179a16.94,16.94,0,0,1-.146,2.332h.146c1.676-5.312,6.114-9.536,11.792-9.536a10.689,10.689,0,0,1,1.674.144v9.1a16.584,16.584,0,0,0-2.255-.144c-7.5,0-10.844,6.547-10.844,13.535v8.08H378.6v6.916H358.658Z" transform="translate(-81.138 -41.783)" fill="#1d1d1b"/>
      <path id="Контур_412" data-name="Контур 412" d="M418.154,176.181c10.7,0,16.518,7.792,16.518,17.616,0,1.092-.22,3.128-.22,3.128H408.766c.579,6.839,5.529,10.335,11.133,10.335a18.756,18.756,0,0,0,10.769-3.932l3.568,6.551a23.615,23.615,0,0,1-14.991,5.168c-12.3,0-19.941-8.88-19.941-19.435C399.3,184.189,407.018,176.181,418.154,176.181Zm6.983,15.284c-.141-5.091-3.274-8.147-7.2-8.147-4.734,0-8.082,3.272-8.954,8.147Z" transform="translate(-89.954 -41.684)" fill="#1d1d1b"/>
      <path id="Контур_413" data-name="Контур 413" d="M471.716,191.249h2.328v-1.24c0-4.727-2.982-6.4-6.839-6.4-5.532,0-10.48,3.568-10.48,3.568l-3.422-6.4a25.215,25.215,0,0,1,14.7-4.589c9.971,0,15.283,5.168,15.283,14.628V205.66a1.425,1.425,0,0,0,1.6,1.6h3.348v6.916H479.5c-3.42,0-4.732-1.824-4.732-3.932v-.436a7.183,7.183,0,0,1,.218-1.892h-.147a12.915,12.915,0,0,1-11.712,7.131c-6.334,0-12.3-3.712-12.3-11.284C450.83,192.413,465.749,191.249,471.716,191.249Zm-6.187,16.883c5.024,0,8.592-5.384,8.592-10.039v-1.24h-1.532c-3.636,0-12.443.584-12.443,6.184A5.009,5.009,0,0,0,465.529,208.132Z" transform="translate(-101.028 -41.684)" fill="#1d1d1b"/>
      <path id="Контур_414" data-name="Контур 414" d="M505.627,165.669h-5.75v-6.912H514.8v39.3c0,3.352.724,5.092,3.779,5.092,1.023,0,1.748-.068,1.748-.068V210.5a25.632,25.632,0,0,1-3.347.225c-5.892,0-11.351-1.969-11.351-12.088Z" transform="translate(-111.571 -37.938)" fill="#1d1d1b"/>
      <path id="Контур_415" data-name="Контур 415" d="M182.685,98.86c-15.73,3-18.339,14.56-22.256,17.6a9.082,9.082,0,0,1-9.535,1.159c-9.329-3.712-5.5-24.293-4.665-28.872,4.444-24.3,17.4-25.236,27.875-38.013,12.236-14.919,9.8-36.858-6.125-43.18C153.485,1.8,139.966,5.17,131.349,18.521c-4.905,7.6-4.128,23.979-4.128,23.979s2.2,25.9-1.265,34.844c-4.338,11.2-12.344,18.289-27.243,24.393-17.13,5.779-30.139,4.134-38.961-2.535C53.96,94.816,42.38,84,24.591,91.6,10.448,97.7,1.427,111.954,6.853,124.541s18.4,20.033,34.844,15.207c9.342-2.741,16.02-12.619,26.67-18.271,11.733-6.229,21.31,2.152,9.817,10.057-21.02,14.447-13.115,36.282-11.107,40.83a32.439,32.439,0,0,0,42.493,16.887,32.113,32.113,0,0,0,13.989-11.638c-7.006-.239-19.242-2.989-19.242-19.886V131.812H95.363v-7.9h9.165V109.272h10.007v14.645H127.28v7.9H114.535V156.78c0,10.852,7.372,12.219,11.376,12.219.752,0,1.364-.027,1.786-.054a32.212,32.212,0,0,0,.526-16.847s-6.824-29.276,41.464-17.719c15.5,3.716,21.8,1.313,27.54-1.28C216.867,124.227,208.985,93.849,182.685,98.86Z" transform="translate(-5.256 -4.859)" fill="#b19a10"/>
    </g>
  </g>
</svg>
