<svg xmlns="http://www.w3.org/2000/svg" width="411.931" height="231.61" viewBox="0 0 411.931 231.61">
  <g id="Сгруппировать_558" data-name="Сгруппировать 558" transform="translate(-733 -6213)">
    <g id="Сгруппировать_400" data-name="Сгруппировать 400" transform="translate(733 6213)">
      <g id="Сгруппировать_398" data-name="Сгруппировать 398" transform="translate(210.533 191.231)">
        <path id="Контур_295" data-name="Контур 295" d="M101.594,121.327V95.882a.876.876,0,0,0-.984-.984H97.57v-2.5h4.247c1.924,0,2.685.8,2.685,2.369v.181a8.777,8.777,0,0,1-.135,1.564h.089a8.233,8.233,0,0,1,7.87-4.65c6.038,0,9.794,4.829,9.794,11.8,0,7.111-4.249,11.761-10.106,11.761a8.23,8.23,0,0,1-7.423-4.472H104.5a13.322,13.322,0,0,1,.133,1.965v8.409h3.8v2.5H97.792v-2.5ZM111.7,112.7c3.981,0,7.29-3.311,7.29-9.035,0-5.5-2.951-9.033-7.157-9.033-3.754,0-7.242,2.683-7.242,9.078C104.591,108.226,107.1,112.7,111.7,112.7Z" transform="translate(-97.57 -83.451)" fill="#1d1d1b"/>
        <path id="Контур_296" data-name="Контур 296" d="M110.607,112.206h3.488v-16.5a.877.877,0,0,0-.984-.984H110.07v-2.5h4.247c1.88,0,2.729.759,2.729,2.55v1.52a16.256,16.256,0,0,1-.089,1.7h.089c1.117-3.4,3.621-5.992,7.109-5.992a6.876,6.876,0,0,1,1.252.133v3a8.73,8.73,0,0,0-1.16-.089c-5.054,0-7.111,5.678-7.111,10.149v7.021h3.485v2.5H110.607Z" transform="translate(-81.406 -83.274)" fill="#1d1d1b"/>
        <path id="Контур_297" data-name="Контур 297" d="M129.078,91.858c6.214,0,9.434,4.786,9.434,10.374a12.585,12.585,0,0,1-.135,1.431h-17.26c.135,5.769,4.073,9.035,8.721,9.035a10.528,10.528,0,0,0,6.843-2.685l1.385,2.282a12.747,12.747,0,0,1-8.317,3.13,11.37,11.37,0,0,1-11.761-11.761C117.986,96.286,122.994,91.858,129.078,91.858Zm6.258,9.569c-.179-4.74-3.041-7.021-6.347-7.021-3.756,0-7.021,2.46-7.737,7.021Z" transform="translate(-71.17 -83.451)" fill="#1d1d1b"/>
        <path id="Контур_298" data-name="Контур 298" d="M128.955,112.383h3.8v-16.5a.877.877,0,0,0-.986-.984H128.73v-2.5h4.295c1.876,0,2.727.8,2.727,2.5v1.3a7.415,7.415,0,0,1-.179,1.612h.089c1.163-3.043,4.783-5.948,8.363-5.948,4.068,0,6.217,1.924,6.84,5.724h.089a9.411,9.411,0,0,1,8.319-5.724c5.412,0,7.423,3.176,7.423,8.721v11.8h3.8v2.5h-6.845v-13.55c0-3.667-.759-6.707-4.827-6.707-4.561,0-7.558,4.829-7.558,9.482v8.271h3.8v2.5h-6.84v-13.55c0-3.4-.445-6.707-4.742-6.707-4.6,0-7.689,4.875-7.689,9.569v8.184h3.8v2.5H128.955Z" transform="translate(-57.277 -83.451)" fill="#1d1d1b"/>
        <path id="Контур_299" data-name="Контур 299" d="M148.474,117.124h3.8V99.639h-4.027v-2.5h7.07v19.989h3.8v2.5H148.474ZM152.1,88.192h3.444v3.8H152.1Z" transform="translate(-32.037 -88.192)" fill="#1d1d1b"/>
        <path id="Контур_300" data-name="Контур 300" d="M157.948,94.6h-4.024v-2.5h7.065V105.64c0,3.534.539,6.666,4.919,6.666,5.054,0,8.273-4.653,8.273-9.528V94.6h-4.024v-2.5h7.063v19.049a.878.878,0,0,0,.986.986h2.548v2.458h-3.8c-1.878,0-2.683-.8-2.683-2.5v-1.117c0-.9.044-1.61.044-1.61h-.087a9.466,9.466,0,0,1-8.9,5.767c-5.189,0-7.379-2.862-7.379-8.718Z" transform="translate(-24.699 -83.149)" fill="#1d1d1b"/>
        <path id="Контур_301" data-name="Контур 301" d="M167.409,112.383h3.8v-16.5a.876.876,0,0,0-.984-.984h-3.041v-2.5h4.293c1.88,0,2.729.8,2.729,2.5v1.3a7.327,7.327,0,0,1-.181,1.612h.092c1.163-3.043,4.783-5.948,8.361-5.948,4.07,0,6.217,1.924,6.843,5.724h.092a9.4,9.4,0,0,1,8.315-5.724c5.412,0,7.423,3.176,7.423,8.721v11.8h3.8v2.5h-6.84v-13.55c0-3.667-.761-6.707-4.832-6.707-4.559,0-7.556,4.829-7.556,9.482v8.271h3.8v2.5h-6.84v-13.55c0-3.4-.447-6.707-4.74-6.707-4.607,0-7.693,4.875-7.693,9.569v8.184h3.8v2.5H167.409Z" transform="translate(-7.553 -83.451)" fill="#1d1d1b"/>
      </g>
      <g id="Сгруппировать_399" data-name="Сгруппировать 399" transform="translate(0 0)">
        <path id="Контур_302" data-name="Контур 302" d="M80.117,63.382C90.562,63.382,96,71.071,96,80.571c0,.945-.218,2.685-.218,2.685H68.948c.436,8.124,6.166,12.477,12.692,12.477A17.862,17.862,0,0,0,92.594,91.6l2.9,5.15a22.492,22.492,0,0,1-14.291,5.079c-11.534,0-19.439-8.342-19.439-19.223C61.768,70.924,69.672,63.382,80.117,63.382Zm8.634,15.378c-.22-6.455-4.134-9.792-8.778-9.792-5.368,0-9.72,3.628-10.734,9.792Z" transform="translate(66.668 70.957)" fill="#1d1d1b"/>
        <path id="Контур_303" data-name="Контур 303" d="M98.733,63.382c5.439,0,14.362,2.032,14.362,8.342v4.5h-6.237V73.68c0-2.825-4.641-4.2-7.907-4.2-7.4,0-12.477,5.221-12.477,13.057,0,8.34,5.875,13.2,12.91,13.2,6.24,0,10.445-3.7,11.754-4.715l2.681,5.15a22.387,22.387,0,0,1-14.724,5.657c-10.59,0-19.8-7.326-19.8-19.147C79.294,71.433,87.781,63.382,98.733,63.382Z" transform="translate(89.331 70.957)" fill="#1d1d1b"/>
        <path id="Контур_304" data-name="Контур 304" d="M102.257,74.886H96.093V69.447H102.4V59.364h6.891V69.447h8.778v5.439h-8.778V92.08c0,7.471,5.079,8.411,7.833,8.411,1.018,0,1.672-.071,1.672-.071v5.88a19.99,19.99,0,0,1-2.541.144c-4.641,0-14-1.452-14-13.71Z" transform="translate(111.053 65.762)" fill="#1d1d1b"/>
        <path id="Контур_305" data-name="Контур 305" d="M129.352,78.4h2.323V77.019c0-5.8-3.339-7.833-7.836-7.833a19.547,19.547,0,0,0-10.518,3.55l-2.825-5a23.563,23.563,0,0,1,13.924-4.352c9.356,0,14.291,4.857,14.291,14.142v16.4a1.419,1.419,0,0,0,1.6,1.594H144v5.442h-7.326c-3.263,0-4.568-1.6-4.568-3.99V96.46a9.021,9.021,0,0,1,.287-2.394h-.144a13.331,13.331,0,0,1-12.112,7.76c-6.093,0-12.183-3.554-12.183-11.1C107.957,79.2,123.257,78.4,129.352,78.4Zm-7.691,17.987c6.24,0,10.085-6.382,10.085-11.894V82.965h-1.814c-3.336,0-14.868.147-14.868,7.182A6.192,6.192,0,0,0,121.661,96.384Z" transform="translate(126.395 70.957)" fill="#1d1d1b"/>
        <path id="Контур_306" data-name="Контур 306" d="M126.585,94.026h5.366V72.409a1.451,1.451,0,0,0-1.6-1.594h-4.134V63.924h9.649c3.263,0,4.93,1.376,4.93,4.5v2.172a16.994,16.994,0,0,1-.145,2.325h.145c1.669-5.3,6.093-9.5,11.752-9.5a10.583,10.583,0,0,1,1.667.144v9.069a16.416,16.416,0,0,0-2.247-.144c-7.469,0-10.805,6.526-10.805,13.488v8.056h5.292v6.891H126.585Z" transform="translate(150.008 70.997)" fill="#1d1d1b"/>
        <path id="Контур_307" data-name="Контур 307" d="M159,63.255c10.663,0,16.464,7.764,16.464,17.556,0,1.087-.218,3.116-.218,3.116h-25.6c.578,6.82,5.508,10.3,11.094,10.3a18.688,18.688,0,0,0,10.734-3.919l3.554,6.528a23.542,23.542,0,0,1-14.942,5.15c-12.259,0-19.874-8.849-19.874-19.368C140.212,71.235,147.9,63.255,159,63.255Zm6.962,15.233c-.144-5.075-3.265-8.122-7.18-8.122-4.717,0-8.053,3.263-8.922,8.122Z" transform="translate(168.103 70.793)" fill="#1d1d1b"/>
        <path id="Контур_308" data-name="Контур 308" d="M178.613,78.27h2.318V77.037c0-4.715-2.974-6.384-6.815-6.384-5.517,0-10.445,3.559-10.445,3.559l-3.412-6.386a25.15,25.15,0,0,1,14.653-4.57c9.938,0,15.233,5.148,15.233,14.58v14.8a1.421,1.421,0,0,0,1.594,1.6h3.336v6.891h-8.7c-3.408,0-4.712-1.816-4.712-3.919v-.433a7.331,7.331,0,0,1,.213-1.887h-.142a12.872,12.872,0,0,1-11.676,7.109c-6.311,0-12.259-3.7-12.259-11.243C157.794,79.43,172.665,78.27,178.613,78.27ZM172.445,95.1c5.008,0,8.56-5.366,8.56-10.007V83.856h-1.523c-3.625,0-12.4.582-12.4,6.164A4.992,4.992,0,0,0,172.445,95.1Z" transform="translate(190.839 70.793)" fill="#1d1d1b"/>
        <path id="Контур_309" data-name="Контур 309" d="M180.262,64.2h-5.733V57.309H189.4V96.477c0,3.339.725,5.075,3.77,5.075,1.016,0,1.74-.069,1.74-.069v7.4a25.832,25.832,0,0,1-3.336.222c-5.873,0-11.312-1.961-11.312-12.046Z" transform="translate(212.479 63.104)" fill="#1d1d1b"/>
        <path id="Контур_310" data-name="Контур 310" d="M182.594,98.485c-15.678,2.99-18.278,14.511-22.181,17.542a9.047,9.047,0,0,1-9.5,1.156c-9.3-3.7-5.485-24.215-4.65-28.778,4.43-24.213,17.336-25.148,27.781-37.882,12.2-14.871,9.764-36.735-6.1-43.037-14.447-5.737-27.923-2.378-36.508,10.927-4.889,7.574-4.114,23.9-4.114,23.9s2.2,25.809-1.261,34.727c-4.325,11.163-12.3,18.226-27.153,24.311-17.072,5.756-30.04,4.121-38.831-2.529C54.3,94.454,42.759,83.674,25.029,91.248c-14.1,6.081-23.087,20.285-17.68,32.833s18.338,19.964,34.727,15.153c9.312-2.729,15.967-12.575,26.582-18.209,11.695-6.205,21.239,2.146,9.785,10.023-20.947,14.4-13.071,36.162-11.071,40.693a32.333,32.333,0,0,0,42.353,16.831,32.01,32.01,0,0,0,13.942-11.6c-6.985-.234-19.179-2.974-19.179-19.817V131.327H95.565v-7.872H104.7V108.861h9.973v14.593h12.7v7.872h-12.7v24.882c0,10.814,7.349,12.179,11.339,12.179.752,0,1.36-.03,1.782-.055a32.147,32.147,0,0,0,.525-16.792s-6.8-29.177,41.322-17.657c15.453,3.7,21.734,1.307,27.448-1.277C216.663,123.764,208.807,93.488,182.594,98.485Z" transform="translate(-5.758 -4.798)" fill="#b19a10"/>
      </g>
    </g>
  </g>
</svg>
