<svg xmlns="http://www.w3.org/2000/svg" width="410.999" height="100.209" viewBox="0 0 410.999 100.209">
  <g id="Сгруппировать_565" data-name="Сгруппировать 565" transform="translate(-1290.999 -5650)">
    <g id="Сгруппировать_502" data-name="Сгруппировать 502" transform="translate(1122.555 5239.053)">
      <path id="Контур_345" data-name="Контур 345" d="M169.736,441.316h4.134l4.6-23.518h-4.134l1.292-6.718h17.627a15.481,15.481,0,0,1,6.046.93c3.1,1.344,5.375,4.341,5.375,8.889,0,4.289-2.067,9.922-7.855,12.041v.155a8.454,8.454,0,0,1,1.964,2.95l1.034,2.842c.62,1.705.93,2.532,2.636,2.532.62,0,1.55-.1,1.55-.1l-1.24,6.718c-.982.1-2.894.155-3.669.155-5.534,0-7.08-2.946-7.963-5.581l-1.907-5.844a2.277,2.277,0,0,0-2.532-1.7h-2.279l-1.236,6.253H187l-1.292,6.718H168.444Zm19.9-13.493a5.381,5.381,0,0,0,5.736-5.685,3.676,3.676,0,0,0-1.085-2.946,5.15,5.15,0,0,0-3.1-.879h-3.571l-1.86,9.509Z" transform="translate(0 0.488)" fill="#fff"/>
      <path id="Контур_346" data-name="Контур 346" d="M192.142,413.147c7.545,0,11.374,4.289,11.374,10.439a17.54,17.54,0,0,1-.982,5.116H185.785a3.093,3.093,0,0,0-.052.517c0,2.692,2.067,4.393,5.224,4.393,3.871,0,7.907-2.682,7.907-2.682l2.274,6.615a20.051,20.051,0,0,1-10.754,3.462c-9.1,0-13.591-5.374-13.591-11.628C176.793,420.124,183.356,413.147,192.142,413.147Zm2.584,10.646s.1-.723.1-1.034a2.7,2.7,0,0,0-2.842-2.894c-2.584,0-4.289,1.809-5.116,3.927Z" transform="translate(30.875 8.136)" fill="#fff"/>
      <path id="Контур_347" data-name="Контур 347" d="M200.012,423.845h.362a10.08,10.08,0,0,0,.207-1.55c0-1.55-1.55-2.171-3.307-2.171-3.514,0-7.855,2.429-7.855,2.429l-1.809-6.46a27.729,27.729,0,0,1,11.421-2.945c4.449,0,10.392,1.705,10.392,8.217,0,3.1-1.813,8.377-1.813,10.754,0,1.189.568,1.86,2.02,1.86.409,0,.982-.052.982-.052l-1.245,6.46a19.54,19.54,0,0,1-3.354.155c-2.739,0-6.309-.1-7.24-3.927h-.1s-3.152,4.393-8.475,4.393c-3.928,0-7.493-2.222-7.493-7.028C182.7,426.222,193.191,423.845,200.012,423.845ZM193.5,434.594c2.481,0,5.116-2.993,5.685-5.116l.155-.615h-.827c-1.964,0-7.028.564-7.028,3.617C191.485,433.927,192.157,434.594,193.5,434.594Z" transform="translate(52.719 8.136)" fill="#fff"/>
      <path id="Контур_348" data-name="Контур 348" d="M189.937,438.215l4.031-20.676H190.35l1.24-6.46h12.558l-5.065,26.361a11.288,11.288,0,0,0-.258,2.015c0,1.24.568,1.7,2.015,1.7.568,0,1.09-.047,1.09-.047l-1.4,7.028a24.2,24.2,0,0,1-2.687.155c-4.083,0-8.269-.827-8.269-6.718A16.921,16.921,0,0,1,189.937,438.215Z" transform="translate(78.143 0.488)" fill="#fff"/>
      <path id="Контур_349" data-name="Контур 349" d="M217.773,410.947c10.547,0,17.416,6.77,17.416,16.124a20.438,20.438,0,0,1-5.732,14.165l3.1,3.152-5.685,5.271-3.044-3.618a17.3,17.3,0,0,1-10.34,3.1c-10.6,0-17.364-6.93-17.364-16.49C196.12,420.921,206.456,410.947,217.773,410.947Zm-4.186,30.185a11.368,11.368,0,0,0,4.806-1.189l-4.238-4.759,5.581-5.168,4.087,4.656a13.528,13.528,0,0,0,2.011-7.033c0-5.22-3.359-8.682-8.165-8.682-6.2,0-12.248,5.788-12.248,13.183C205.422,437.514,208.781,441.132,213.587,441.132Z" transform="translate(102.347 0)" fill="#fff"/>
      <path id="Контур_350" data-name="Контур 350" d="M206.691,430.183l2.011-10.444h-3.618l1.3-6.46h12.558l-3.049,15.612a10.211,10.211,0,0,0-.207,1.494c0,1.607.827,2.279,2.326,2.279,3.669,0,6.408-4.083,7.08-7.6l1.034-5.328H222.5l1.292-6.46h12.563L233.1,429.92a9.711,9.711,0,0,0-.207,1.71c0,1.188.568,1.86,2.02,1.86.409,0,.982-.052.982-.052l-1.245,6.46a30.97,30.97,0,0,1-3.458.155c-2.847,0-6.62-.1-7.188-4.909h-.1a11.5,11.5,0,0,1-9.612,5.374c-4.289,0-7.907-2.274-7.907-7.395A15.874,15.874,0,0,1,206.691,430.183Z" transform="translate(135.496 8.624)" fill="#fff"/>
      <path id="Контур_351" data-name="Контур 351" d="M229.58,423.845h.362a10.078,10.078,0,0,0,.207-1.55c0-1.55-1.55-2.171-3.307-2.171-3.514,0-7.855,2.429-7.855,2.429l-1.809-6.46a27.729,27.729,0,0,1,11.421-2.945c4.444,0,10.392,1.705,10.392,8.217,0,3.1-1.813,8.377-1.813,10.754,0,1.189.568,1.86,2.015,1.86.413,0,.982-.052.982-.052l-1.24,6.46a19.579,19.579,0,0,1-3.359.155c-2.739,0-6.3-.1-7.235-3.927h-.1s-3.152,4.393-8.475,4.393c-3.928,0-7.493-2.222-7.493-7.028C212.268,426.222,222.759,423.845,229.58,423.845Zm-6.512,10.749c2.481,0,5.116-2.993,5.685-5.116l.155-.615h-.827c-1.964,0-7.028.564-7.028,3.617C221.053,433.927,221.725,434.594,223.069,434.594Z" transform="translate(162.063 8.136)" fill="#fff"/>
      <path id="Контур_352" data-name="Контур 352" d="M219.5,438.215l4.036-20.676h-3.618l1.236-6.46h12.563l-5.069,26.361a11.67,11.67,0,0,0-.254,2.015c0,1.24.569,1.7,2.011,1.7.573,0,1.09-.047,1.09-.047l-1.4,7.028a24.308,24.308,0,0,1-2.687.155c-4.083,0-8.269-.827-8.269-6.718A17.237,17.237,0,0,1,219.5,438.215Z" transform="translate(187.487 0.488)" fill="#fff"/>
      <path id="Контур_353" data-name="Контур 353" d="M224.338,438.727l2.119-10.853h-3.617l1.24-6.46h12.558l-3.256,16.641a9.714,9.714,0,0,0-.207,1.71c0,1.189.568,1.86,2.015,1.86.413,0,.982-.052.982-.052l-1.24,6.46a24.325,24.325,0,0,1-2.687.155c-4.083,0-8.32-.362-8.32-6.154A17.5,17.5,0,0,1,224.338,438.727Zm5.478-27.648h8.734l-1.344,6.977h-8.734Z" transform="translate(201.155 0.488)" fill="#fff"/>
      <path id="Контур_354" data-name="Контур 354" d="M228.364,435.217l1.964-9.824H226.71l1.245-6.46h3.923l1.4-7.183h8.579l-1.4,7.183h5.633l-1.24,6.46h-5.633l-1.757,9.25a8.235,8.235,0,0,0-.155,1.4c0,2.175,1.964,2.635,3.928,2.635a9.467,9.467,0,0,0,1.4-.1l-1.4,7.085s-1.344.155-2.377.155c-5.84,0-10.749-2.377-10.749-8.527A10.547,10.547,0,0,1,228.364,435.217Z" transform="translate(215.47 2.97)" fill="#fff"/>
      <path id="Контур_355" data-name="Контур 355" d="M237.926,443.567c1.86,0,3.772-.517,4.806-2.17l.155-.258-4.6-21.4h-3l1.236-6.46H250.9l-1.24,6.46h-2.584l1.344,9.871a15.353,15.353,0,0,1-.052,3.467h.207a24.5,24.5,0,0,1,1.5-3.467l5.065-9.871h-2.429l1.24-6.46H268l-1.24,6.46h-2.739l-12.971,22.485c-3.876,6.667-8.424,8.527-13.286,8.527a13.692,13.692,0,0,1-7.855-2.17l3.829-6.15A6.744,6.744,0,0,0,237.926,443.567Z" transform="translate(227.308 8.624)" fill="#fff"/>
      <path id="Контур_356" data-name="Контур 356" d="M245.406,425.674h-4.341l.775-3.876h4.294l.254-1.137c1.706-8.579,8.377-9.561,11.426-9.561a15.278,15.278,0,0,1,2.274.155l-.879,4.082a10.074,10.074,0,0,0-1.5-.1c-1.757,0-5.219.414-6.253,5.323l-.258,1.24h6.3l-.723,3.876h-6.31l-4.336,22.278h-5.017Z" transform="translate(268.556 0.569)" fill="#fff"/>
      <path id="Контур_357" data-name="Контур 357" d="M261.119,413.246c7.08,0,12.046,4.651,12.046,11.421,0,9.1-8.015,15.973-16.49,15.973-7.085,0-12.046-4.7-12.046-11.529C244.629,420.119,252.592,413.246,261.119,413.246ZM257.088,436.3a11.469,11.469,0,0,0,10.956-11.374,7,7,0,0,0-7.338-7.338,11.419,11.419,0,0,0-10.956,11.322A7.012,7.012,0,0,0,257.088,436.3Z" transform="translate(281.736 8.502)" fill="#fff"/>
      <path id="Контур_358" data-name="Контур 358" d="M255.932,418.635c.1-.62-.052-1.137-.93-1.137h-3.256l.827-3.876h5.891c2.016,0,2.791.724,2.791,2.222a23.274,23.274,0,0,1-.93,4.444h.1c1.762-3.721,5.276-6.977,9.41-6.977a10.308,10.308,0,0,1,1.55.1l-.982,4.961a6.471,6.471,0,0,0-1.4-.155c-4.811,0-9.147,5.84-10.289,11.839l-1.86,9.716h-5.013Z" transform="translate(308.055 8.746)" fill="#fff"/>
      <path id="Контур_359" data-name="Контур 359" d="M198.2,456.84h4.6l5.53-28.479h-4.6l.827-3.984h16.077a14.587,14.587,0,0,1,6.512,1.137c2.481,1.3,4.289,3.829,4.289,7.71a12.087,12.087,0,0,1-9.561,11.881v.155a9.147,9.147,0,0,1,1.24,1.964l2.842,7.343c.568,1.447,1.034,2.377,2.946,2.377.62,0,1.5-.1,1.5-.1l-.775,4.031c-.413.052-1.654.108-2.429.108-4.134,0-5.323-2.274-6.3-4.862l-2.946-7.912c-.62-1.705-1.5-2.062-3.26-2.062h-4.6l-2.119,10.7h4.449l-.775,4.031H197.428Zm19.849-14.94a7.936,7.936,0,0,0,8.114-8.01c0-2.119-.723-3.514-1.964-4.294a8.852,8.852,0,0,0-4.651-.982h-6.1L210.869,441.9Z" transform="translate(107.184 49.665)" fill="#fff"/>
      <path id="Контур_360" data-name="Контур 360" d="M220.7,426.445c6.718,0,9.922,4.04,9.922,9.673a16.145,16.145,0,0,1-.827,4.5H210.775a9.152,9.152,0,0,0-.207,1.86c0,4.031,2.636,7.028,7.442,7.028a15.54,15.54,0,0,0,8.372-3l1.4,3.928a18.122,18.122,0,0,1-10.03,3.411c-7.648,0-12.3-4.651-12.3-11.167C205.447,434,211.907,426.445,220.7,426.445Zm4.754,10.965a11.372,11.372,0,0,0,.155-1.705c0-3.514-2.067-5.276-5.065-5.276-3.824,0-7.442,2.532-9.048,6.981Z" transform="translate(136.839 57.312)" fill="#fff"/>
      <path id="Контур_361" data-name="Контур 361" d="M228.808,437.147H230.1a18.616,18.616,0,0,0,.362-2.579c0-2.434-1.4-3.984-4.754-3.984a16.093,16.093,0,0,0-7.8,2.476l-1.3-3.871a21.088,21.088,0,0,1,9.979-2.743c4.858,0,8.889,2.076,8.889,7.5,0,3.054-2.377,10.956-2.377,13.23,0,1.865,1.085,2.279,2.377,2.279a6.025,6.025,0,0,0,1.189-.1l-.723,3.876a22.782,22.782,0,0,1-2.377.108c-2.946,0-5.323-1.193-5.375-4.764h-.1c.052,0-3.359,5.276-9.251,5.276-4.134,0-7.6-2.274-7.6-6.615C211.233,439.007,221.728,437.147,228.808,437.147Zm-8.475,12.816c4.238,0,7.907-4.7,8.889-8.522l.258-1.038h-1.344c-3.669,0-11.886.522-11.886,6C216.251,448.413,217.486,449.963,220.333,449.963Z" transform="translate(158.236 57.312)" fill="#fff"/>
      <path id="Контур_362" data-name="Контур 362" d="M218.1,453.425l4.909-25.167h-4.393l.775-3.881h9.354L223.27,452.96a8.559,8.559,0,0,0-.258,1.762c0,1.907,1.038,2.175,2.382,2.175a5.715,5.715,0,0,0,1.236-.113l-.822,4.139s-1.038.1-2.067.1c-2.532,0-5.9-.615-5.9-5.224A14.525,14.525,0,0,1,218.1,453.425Z" transform="translate(182.684 49.665)" fill="#fff"/>
      <path id="Контур_363" data-name="Контур 363" d="M224.042,456.84h4.548l5.534-28.479h-4.6l.822-3.984h26.412l-1.654,8.48h-4.5l.827-4.242h-12.2l-2.274,11.736h12.92l-.879,4.242H236.14l-2.382,12.036h13.079l.827-4.383h4.548l-1.705,8.626H223.267Z" transform="translate(202.738 49.665)" fill="#fff"/>
      <path id="Контур_364" data-name="Контур 364" d="M230.882,444.8h4.393l-.31,1.705c-.568,2.842,3.566,3.256,5.633,3.256,3.307,0,5.943-1.447,5.943-3.824,0-4.966-12.558-3.514-12.558-11.473,0-5.328,5.53-8.02,11.116-8.02,4.341,0,8.889,1.762,8.114,5.591l-.568,2.842H248.25l.362-1.86c.413-2.067-2.429-2.532-4.242-2.532-2.791,0-5.426,1.236-5.426,3.613,0,5.013,12.563,3.359,12.563,11.167,0,5.065-4.651,8.579-11.632,8.579-4.444,0-10.387-1.762-9.457-6.46Z" transform="translate(228.818 57.312)" fill="#fff"/>
      <path id="Контур_365" data-name="Контур 365" d="M238.109,448.309l2.377-12.2h-4.393l.775-3.881h4.5l1.4-7.183h4.858l-1.4,7.183h6.3l-.775,3.881h-6.3l-2.325,12.2a10.207,10.207,0,0,0-.207,2.02c0,3.561,2.377,4.129,4.341,4.129a9.759,9.759,0,0,0,1.447-.1l-.827,4.139a15.267,15.267,0,0,1-1.654.1c-4.031,0-8.424-1.452-8.424-7.658A12.965,12.965,0,0,1,238.109,448.309Z" transform="translate(250.169 52.15)" fill="#fff"/>
      <path id="Контур_366" data-name="Контур 366" d="M257.133,437.147h1.292a18.616,18.616,0,0,0,.362-2.579c0-2.434-1.4-3.984-4.754-3.984a16.1,16.1,0,0,0-7.808,2.476l-1.292-3.871a21.064,21.064,0,0,1,9.979-2.743c4.858,0,8.889,2.076,8.889,7.5,0,3.054-2.377,10.956-2.377,13.23,0,1.865,1.085,2.279,2.377,2.279a6.025,6.025,0,0,0,1.189-.1l-.723,3.876a22.83,22.83,0,0,1-2.382.108c-2.941,0-5.318-1.193-5.374-4.764h-.1c.056,0-3.354,5.276-9.25,5.276-4.134,0-7.6-2.274-7.6-6.615C239.558,439.007,250.049,437.147,257.133,437.147Zm-8.48,12.816c4.238,0,7.912-4.7,8.893-8.522l.258-1.038h-1.344c-3.674,0-11.891.522-11.891,6C244.571,448.413,245.811,449.963,248.653,449.963Z" transform="translate(262.983 57.312)" fill="#fff"/>
      <path id="Контур_367" data-name="Контур 367" d="M248.074,448.309l2.377-12.2h-4.393l.775-3.881h4.5l1.391-7.183h4.863l-1.4,7.183h6.31l-.775,3.881h-6.309l-2.321,12.2a9.913,9.913,0,0,0-.211,2.02c0,3.561,2.382,4.129,4.341,4.129a9.788,9.788,0,0,0,1.452-.1l-.832,4.139a15.153,15.153,0,0,1-1.654.1c-4.031,0-8.424-1.452-8.424-7.658A12.975,12.975,0,0,1,248.074,448.309Z" transform="translate(287.024 52.15)" fill="#fff"/>
      <path id="Контур_368" data-name="Контур 368" d="M265.1,426.445c6.718,0,9.922,4.04,9.922,9.673a16.143,16.143,0,0,1-.827,4.5H255.177a9.152,9.152,0,0,0-.207,1.86c0,4.031,2.636,7.028,7.442,7.028a15.566,15.566,0,0,0,8.377-3l1.391,3.928a18.117,18.117,0,0,1-10.026,3.411c-7.648,0-12.3-4.651-12.3-11.167C249.854,434,256.314,426.445,265.1,426.445Zm4.754,10.965a11.726,11.726,0,0,0,.15-1.705c0-3.514-2.062-5.276-5.064-5.276-3.824,0-7.442,2.532-9.044,6.981Z" transform="translate(301.058 57.312)" fill="#fff"/>
    </g>
  </g>
</svg>
